<svg width="697" height="461" xmlns="http://www.w3.org/2000/svg" xmlns:xlink="http://www.w3.org/1999/xlink" overflow="hidden"><g transform="translate(-249 -130)"><path d="M250.333 131.667 943.571 131.667 943.571 195.47 250.333 195.47Z" fill="#FCECE8" fill-rule="evenodd"/><path d="M250.333 195.47 299.729 195.47 299.729 223.544 250.333 223.544Z" fill="#FCECE8" fill-rule="evenodd"/><path d="M299.729 195.47 453.025 195.47 453.025 223.544 299.729 223.544Z" fill="#FCECE8" fill-rule="evenodd"/><path d="M453.025 195.47 631.018 195.47 631.018 223.544 453.025 223.544Z" fill="#FCECE8" fill-rule="evenodd"/><path d="M631.018 195.47 778.353 195.47 778.353 223.544 631.018 223.544Z" fill="#FCECE8" fill-rule="evenodd"/><path d="M778.353 195.47 943.571 195.47 943.571 223.544 778.353 223.544Z" fill="#FCECE8" fill-rule="evenodd"/><path d="M250.333 223.544 299.729 223.544 299.729 251.617 250.333 251.617Z" fill="#FCECE8" fill-rule="evenodd"/><path d="M299.729 223.544 453.025 223.544 453.025 251.617 299.729 251.617Z" fill="#FCECE8" fill-rule="evenodd"/><path d="M453.025 223.544 631.018 223.544 631.018 251.617 453.025 251.617Z" fill="#FCECE8" fill-rule="evenodd"/><path d="M631.018 223.544 778.353 223.544 778.353 251.617 631.018 251.617Z" fill="#FCECE8" fill-rule="evenodd"/><path d="M778.353 223.544 943.571 223.544 943.571 251.617 778.353 251.617Z" fill="#FCECE8" fill-rule="evenodd"/><path d="M250.333 251.617 299.729 251.617 299.729 279.691 250.333 279.691Z" fill="#FCECE8" fill-rule="evenodd"/><path d="M299.729 251.617 453.025 251.617 453.025 279.691 299.729 279.691Z" fill="#FCECE8" fill-rule="evenodd"/><path d="M453.025 251.617 631.018 251.617 631.018 279.691 453.025 279.691Z" fill="#FCECE8" fill-rule="evenodd"/><path d="M631.018 251.617 778.353 251.617 778.353 279.691 631.018 279.691Z" fill="#FCECE8" fill-rule="evenodd"/><path d="M778.353 251.617 943.571 251.617 943.571 279.691 778.353 279.691Z" fill="#FCECE8" fill-rule="evenodd"/><path d="M250.333 279.691 299.729 279.691 299.729 307.765 250.333 307.765Z" fill="#FCECE8" fill-rule="evenodd"/><path d="M299.729 279.691 453.025 279.691 453.025 307.765 299.729 307.765Z" fill="#FCECE8" fill-rule="evenodd"/><path d="M453.025 279.691 631.018 279.691 631.018 307.765 453.025 307.765Z" fill="#FCECE8" fill-rule="evenodd"/><path d="M631.018 279.691 778.353 279.691 778.353 307.765 631.018 307.765Z" fill="#FCECE8" fill-rule="evenodd"/><path d="M778.353 279.691 943.571 279.691 943.571 307.765 778.353 307.765Z" fill="#FCECE8" fill-rule="evenodd"/><path d="M250.333 307.765 299.729 307.765 299.729 335.838 250.333 335.838Z" fill="#FCECE8" fill-rule="evenodd"/><path d="M299.729 307.765 453.025 307.765 453.025 335.838 299.729 335.838Z" fill="#FCECE8" fill-rule="evenodd"/><path d="M453.025 307.765 631.018 307.765 631.018 335.838 453.025 335.838Z" fill="#FCECE8" fill-rule="evenodd"/><path d="M631.018 307.765 778.353 307.765 778.353 335.838 631.018 335.838Z" fill="#FCECE8" fill-rule="evenodd"/><path d="M778.353 307.765 943.571 307.765 943.571 335.838 778.353 335.838Z" fill="#FCECE8" fill-rule="evenodd"/><path d="M250.333 335.838 299.729 335.838 299.729 363.912 250.333 363.912Z" fill="#FCECE8" fill-rule="evenodd"/><path d="M299.729 335.838 453.025 335.838 453.025 363.912 299.729 363.912Z" fill="#FCECE8" fill-rule="evenodd"/><path d="M453.025 335.838 631.018 335.838 631.018 363.912 453.025 363.912Z" fill="#FCECE8" fill-rule="evenodd"/><path d="M631.018 335.838 778.353 335.838 778.353 363.912 631.018 363.912Z" fill="#FCECE8" fill-rule="evenodd"/><path d="M778.353 335.838 943.571 335.838 943.571 363.912 778.353 363.912Z" fill="#FCECE8" fill-rule="evenodd"/><path d="M250.333 363.912 299.729 363.912 299.729 391.985 250.333 391.985Z" fill="#FCECE8" fill-rule="evenodd"/><path d="M299.729 363.912 453.025 363.912 453.025 391.985 299.729 391.985Z" fill="#FCECE8" fill-rule="evenodd"/><path d="M453.025 363.912 631.018 363.912 631.018 391.985 453.025 391.985Z" fill="#FCECE8" fill-rule="evenodd"/><path d="M631.018 363.912 778.353 363.912 778.353 391.985 631.018 391.985Z" fill="#FCECE8" fill-rule="evenodd"/><path d="M778.353 363.912 943.571 363.912 943.571 391.985 778.353 391.985Z" fill="#FCECE8" fill-rule="evenodd"/><path d="M250.333 391.985 299.729 391.985 299.729 420.059 250.333 420.059Z" fill="#FCECE8" fill-rule="evenodd"/><path d="M299.729 391.985 453.025 391.985 453.025 420.059 299.729 420.059Z" fill="#FCECE8" fill-rule="evenodd"/><path d="M453.025 391.985 631.018 391.985 631.018 420.059 453.025 420.059Z" fill="#FCECE8" fill-rule="evenodd"/><path d="M631.018 391.985 778.353 391.985 778.353 420.059 631.018 420.059Z" fill="#FCECE8" fill-rule="evenodd"/><path d="M778.353 391.985 943.571 391.985 943.571 420.059 778.353 420.059Z" fill="#FCECE8" fill-rule="evenodd"/><path d="M250.333 420.059 299.729 420.059 299.729 448.133 250.333 448.133Z" fill="#FCECE8" fill-rule="evenodd"/><path d="M299.729 420.059 453.025 420.059 453.025 448.133 299.729 448.133Z" fill="#FCECE8" fill-rule="evenodd"/><path d="M453.025 420.059 631.018 420.059 631.018 448.133 453.025 448.133Z" fill="#FCECE8" fill-rule="evenodd"/><path d="M631.018 420.059 778.353 420.059 778.353 448.133 631.018 448.133Z" fill="#FCECE8" fill-rule="evenodd"/><path d="M778.353 420.059 943.571 420.059 943.571 448.133 778.353 448.133Z" fill="#FCECE8" fill-rule="evenodd"/><path d="M250.333 448.133 299.729 448.133 299.729 476.206 250.333 476.206Z" fill="#FCECE8" fill-rule="evenodd"/><path d="M299.729 448.133 453.025 448.133 453.025 476.206 299.729 476.206Z" fill="#FCECE8" fill-rule="evenodd"/><path d="M453.025 448.133 631.018 448.133 631.018 476.206 453.025 476.206Z" fill="#FCECE8" fill-rule="evenodd"/><path d="M631.018 448.133 778.353 448.133 778.353 476.206 631.018 476.206Z" fill="#FCECE8" fill-rule="evenodd"/><path d="M778.353 448.133 943.571 448.133 943.571 476.206 778.353 476.206Z" fill="#FCECE8" fill-rule="evenodd"/><path d="M250.333 476.206 299.729 476.206 299.729 504.28 250.333 504.28Z" fill="#FCECE8" fill-rule="evenodd"/><path d="M299.729 476.206 453.025 476.206 453.025 504.28 299.729 504.28Z" fill="#FCECE8" fill-rule="evenodd"/><path d="M453.025 476.206 631.018 476.206 631.018 504.28 453.025 504.28Z" fill="#FCECE8" fill-rule="evenodd"/><path d="M631.018 476.206 778.353 476.206 778.353 504.28 631.018 504.28Z" fill="#FCECE8" fill-rule="evenodd"/><path d="M778.353 476.206 943.571 476.206 943.571 504.28 778.353 504.28Z" fill="#FCECE8" fill-rule="evenodd"/><path d="M250.333 504.28 299.729 504.28 299.729 532.353 250.333 532.353Z" fill="#FCECE8" fill-rule="evenodd"/><path d="M299.729 504.28 453.025 504.28 453.025 532.353 299.729 532.353Z" fill="#FCECE8" fill-rule="evenodd"/><path d="M453.025 504.28 631.018 504.28 631.018 532.353 453.025 532.353Z" fill="#FCECE8" fill-rule="evenodd"/><path d="M631.018 504.28 778.353 504.28 778.353 532.353 631.018 532.353Z" fill="#FCECE8" fill-rule="evenodd"/><path d="M778.353 504.28 943.571 504.28 943.571 532.353 778.353 532.353Z" fill="#FCECE8" fill-rule="evenodd"/><path d="M250.333 532.353 299.729 532.353 299.729 560.427 250.333 560.427Z" fill="#FCECE8" fill-rule="evenodd"/><path d="M299.729 532.353 453.025 532.353 453.025 560.427 299.729 560.427Z" fill="#FCECE8" fill-rule="evenodd"/><path d="M453.025 532.353 631.018 532.353 631.018 560.427 453.025 560.427Z" fill="#FCECE8" fill-rule="evenodd"/><path d="M631.018 532.353 778.353 532.353 778.353 560.427 631.018 560.427Z" fill="#FCECE8" fill-rule="evenodd"/><path d="M778.353 532.353 943.571 532.353 943.571 560.427 778.353 560.427Z" fill="#FCECE8" fill-rule="evenodd"/><path d="M250.333 560.427 299.729 560.427 299.729 588.501 250.333 588.501Z" fill="#FCECE8" fill-rule="evenodd"/><path d="M299.729 560.427 453.025 560.427 453.025 588.501 299.729 588.501Z" fill="#FCECE8" fill-rule="evenodd"/><path d="M453.025 560.427 631.018 560.427 631.018 588.501 453.025 588.501Z" fill="#FCECE8" fill-rule="evenodd"/><path d="M631.018 560.427 778.353 560.427 778.353 588.501 631.018 588.501Z" fill="#FCECE8" fill-rule="evenodd"/><path d="M778.353 560.427 943.571 560.427 943.571 588.501 778.353 588.501Z" fill="#FCECE8" fill-rule="evenodd"/><path d="M299.729 194.804 299.729 589.167" stroke="#000000" stroke-width="1.33333" stroke-linejoin="round" stroke-miterlimit="10" fill="none" fill-rule="evenodd"/><path d="M453.025 194.804 453.025 589.167" stroke="#000000" stroke-width="1.33333" stroke-linejoin="round" stroke-miterlimit="10" fill="none" fill-rule="evenodd"/><path d="M631.018 194.804 631.018 589.167" stroke="#000000" stroke-width="1.33333" stroke-linejoin="round" stroke-miterlimit="10" fill="none" fill-rule="evenodd"/><path d="M778.353 194.804 778.353 589.167" stroke="#000000" stroke-width="1.33333" stroke-linejoin="round" stroke-miterlimit="10" fill="none" fill-rule="evenodd"/><path d="M249.667 195.47 944.238 195.47" stroke="#000000" stroke-width="1.33333" stroke-linejoin="round" stroke-miterlimit="10" fill="none" fill-rule="evenodd"/><path d="M249.667 223.544 944.238 223.544" stroke="#000000" stroke-width="1.33333" stroke-linejoin="round" stroke-miterlimit="10" fill="none" fill-rule="evenodd"/><path d="M249.667 251.617 944.238 251.617" stroke="#000000" stroke-width="1.33333" stroke-linejoin="round" stroke-miterlimit="10" fill="none" fill-rule="evenodd"/><path d="M249.667 279.691 944.238 279.691" stroke="#000000" stroke-width="1.33333" stroke-linejoin="round" stroke-miterlimit="10" fill="none" fill-rule="evenodd"/><path d="M249.667 307.765 944.238 307.765" stroke="#000000" stroke-width="1.33333" stroke-linejoin="round" stroke-miterlimit="10" fill="none" fill-rule="evenodd"/><path d="M249.667 335.838 944.238 335.838" stroke="#000000" stroke-width="1.33333" stroke-linejoin="round" stroke-miterlimit="10" fill="none" fill-rule="evenodd"/><path d="M249.667 363.912 944.238 363.912" stroke="#000000" stroke-width="1.33333" stroke-linejoin="round" stroke-miterlimit="10" fill="none" fill-rule="evenodd"/><path d="M249.667 391.985 944.238 391.985" stroke="#000000" stroke-width="1.33333" stroke-linejoin="round" stroke-miterlimit="10" fill="none" fill-rule="evenodd"/><path d="M249.667 420.059 944.238 420.059" stroke="#000000" stroke-width="1.33333" stroke-linejoin="round" stroke-miterlimit="10" fill="none" fill-rule="evenodd"/><path d="M249.667 448.133 944.238 448.133" stroke="#000000" stroke-width="1.33333" stroke-linejoin="round" stroke-miterlimit="10" fill="none" fill-rule="evenodd"/><path d="M249.667 476.206 944.238 476.206" stroke="#000000" stroke-width="1.33333" stroke-linejoin="round" stroke-miterlimit="10" fill="none" fill-rule="evenodd"/><path d="M249.667 504.28 944.238 504.28" stroke="#000000" stroke-width="1.33333" stroke-linejoin="round" stroke-miterlimit="10" fill="none" fill-rule="evenodd"/><path d="M249.667 532.353 944.238 532.353" stroke="#000000" stroke-width="1.33333" stroke-linejoin="round" stroke-miterlimit="10" fill="none" fill-rule="evenodd"/><path d="M249.667 560.427 944.238 560.427" stroke="#000000" stroke-width="1.33333" stroke-linejoin="round" stroke-miterlimit="10" fill="none" fill-rule="evenodd"/><path d="M250.333 131 250.333 589.167" stroke="#000000" stroke-width="1.33333" stroke-linejoin="round" stroke-miterlimit="10" fill="none" fill-rule="evenodd"/><path d="M943.571 131 943.571 589.167" stroke="#000000" stroke-width="1.33333" stroke-linejoin="round" stroke-miterlimit="10" fill="none" fill-rule="evenodd"/><path d="M249.667 131.667 944.238 131.667" stroke="#000000" stroke-width="1.33333" stroke-linejoin="round" stroke-miterlimit="10" fill="none" fill-rule="evenodd"/><path d="M249.667 588.501 944.238 588.501" stroke="#000000" stroke-width="1.33333" stroke-linejoin="round" stroke-miterlimit="10" fill="none" fill-rule="evenodd"/><text font-family="DengXian,DengXian_MSFontService,sans-serif" font-weight="400" font-size="23" transform="translate(451.536 171)">7</text><text font-family="DengXian,DengXian_MSFontService,sans-serif" font-weight="400" font-size="23" transform="translate(463.536 171)">月</text><text font-family="DengXian,DengXian_MSFontService,sans-serif" font-weight="400" font-size="23" transform="translate(486.202 171)">5</text><text font-family="DengXian,DengXian_MSFontService,sans-serif" font-weight="400" font-size="23" transform="translate(498.202 171)">日大巴</text><text font-family="DengXian,DengXian_MSFontService,sans-serif" font-weight="400" font-size="23" transform="translate(566.202 171)">Shuttle Bus</text><text font-family="DengXian,DengXian_MSFontService,sans-serif" font-weight="400" font-size="23" transform="translate(674.369 171)">安排表</text><text font-family="DengXian,DengXian_MSFontService,sans-serif" font-weight="400" font-size="12" transform="translate(788.962 213)">车辆安排（车辆信息待告）</text><text font-family="DengXian,DengXian_MSFontService,sans-serif" font-weight="400" font-size="12" transform="translate(641.685 213)">杭州东站</text><text font-family="DengXian,DengXian_MSFontService,sans-serif" font-weight="400" font-size="12" transform="translate(689.685 213)">-</text><text font-family="DengXian,DengXian_MSFontService,sans-serif" font-weight="400" font-size="12" transform="translate(695.685 213)">白金汉爵酒店</text><text font-family="DengXian,DengXian_MSFontService,sans-serif" font-weight="400" font-size="12" transform="translate(470.021 213)">车辆安排（车辆信息待告）</text><text font-family="DengXian,DengXian_MSFontService,sans-serif" font-weight="400" font-size="12" transform="translate(313.377 213)">萧山机场</text><text font-family="DengXian,DengXian_MSFontService,sans-serif" font-weight="400" font-size="12" transform="translate(361.377 213)">-</text><text font-family="DengXian,DengXian_MSFontService,sans-serif" font-weight="400" font-size="12" transform="translate(367.377 213)">白金汉爵酒店</text><text font-family="DengXian,DengXian_MSFontService,sans-serif" font-weight="400" font-size="12" transform="translate(263.031 213)">序号</text><text font-family="DengXian,DengXian_MSFontService,sans-serif" font-weight="400" font-size="12" transform="translate(833.795 241)">1</text><text font-family="DengXian,DengXian_MSFontService,sans-serif" font-weight="400" font-size="12" transform="translate(840.129 241)">号大巴车</text><text font-family="DengXian,DengXian_MSFontService,sans-serif" font-weight="400" font-size="12" transform="translate(678.685 241)">10:00</text><text font-family="DengXian,DengXian_MSFontService,sans-serif" font-weight="400" font-size="12" transform="translate(706.685 241)">发车</text><text font-family="DengXian,DengXian_MSFontService,sans-serif" font-weight="400" font-size="12" transform="translate(514.855 241)">1</text><text font-family="DengXian,DengXian_MSFontService,sans-serif" font-weight="400" font-size="12" transform="translate(521.188 241)">号大巴车</text><text font-family="DengXian,DengXian_MSFontService,sans-serif" font-weight="400" font-size="12" transform="translate(350.377 241)">10:00</text><text font-family="DengXian,DengXian_MSFontService,sans-serif" font-weight="400" font-size="12" transform="translate(378.377 241)">发车</text><text font-family="DengXian,DengXian_MSFontService,sans-serif" font-weight="400" font-size="12" transform="translate(271.864 241)">1</text><text font-family="DengXian,DengXian_MSFontService,sans-serif" font-weight="400" font-size="12" transform="translate(833.795 269)">2</text><text font-family="DengXian,DengXian_MSFontService,sans-serif" font-weight="400" font-size="12" transform="translate(840.129 269)">号大巴车</text><text font-family="DengXian,DengXian_MSFontService,sans-serif" font-weight="400" font-size="12" transform="translate(678.685 269)">11:00</text><text font-family="DengXian,DengXian_MSFontService,sans-serif" font-weight="400" font-size="12" transform="translate(706.685 269)">发车</text><text font-family="DengXian,DengXian_MSFontService,sans-serif" font-weight="400" font-size="12" transform="translate(514.855 269)">2</text><text font-family="DengXian,DengXian_MSFontService,sans-serif" font-weight="400" font-size="12" transform="translate(521.188 269)">号大巴车</text><text font-family="DengXian,DengXian_MSFontService,sans-serif" font-weight="400" font-size="12" transform="translate(350.377 269)">11:00</text><text font-family="DengXian,DengXian_MSFontService,sans-serif" font-weight="400" font-size="12" transform="translate(378.377 269)">发车</text><text font-family="DengXian,DengXian_MSFontService,sans-serif" font-weight="400" font-size="12" transform="translate(271.864 269)">2</text><text font-family="DengXian,DengXian_MSFontService,sans-serif" font-weight="400" font-size="12" transform="translate(833.795 297)">3</text><text font-family="DengXian,DengXian_MSFontService,sans-serif" font-weight="400" font-size="12" transform="translate(840.129 297)">号大巴车</text><text font-family="DengXian,DengXian_MSFontService,sans-serif" font-weight="400" font-size="12" transform="translate(678.685 297)">12:00</text><text font-family="DengXian,DengXian_MSFontService,sans-serif" font-weight="400" font-size="12" transform="translate(706.685 297)">发车</text><text font-family="DengXian,DengXian_MSFontService,sans-serif" font-weight="400" font-size="12" transform="translate(514.855 297)">3</text><text font-family="DengXian,DengXian_MSFontService,sans-serif" font-weight="400" font-size="12" transform="translate(521.188 297)">号大巴车</text><text font-family="DengXian,DengXian_MSFontService,sans-serif" font-weight="400" font-size="12" transform="translate(350.377 297)">12:00</text><text font-family="DengXian,DengXian_MSFontService,sans-serif" font-weight="400" font-size="12" transform="translate(378.377 297)">发车</text><text font-family="DengXian,DengXian_MSFontService,sans-serif" font-weight="400" font-size="12" transform="translate(271.864 297)">3</text><text font-family="DengXian,DengXian_MSFontService,sans-serif" font-weight="400" font-size="12" transform="translate(833.795 325)">1</text><text font-family="DengXian,DengXian_MSFontService,sans-serif" font-weight="400" font-size="12" transform="translate(840.129 325)">号大巴车</text><text font-family="DengXian,DengXian_MSFontService,sans-serif" font-weight="400" font-size="12" transform="translate(678.685 325)">13:00</text><text font-family="DengXian,DengXian_MSFontService,sans-serif" font-weight="400" font-size="12" transform="translate(706.685 325)">发车</text><text font-family="DengXian,DengXian_MSFontService,sans-serif" font-weight="400" font-size="12" transform="translate(514.855 325)">1</text><text font-family="DengXian,DengXian_MSFontService,sans-serif" font-weight="400" font-size="12" transform="translate(521.188 325)">号大巴车</text><text font-family="DengXian,DengXian_MSFontService,sans-serif" font-weight="400" font-size="12" transform="translate(350.377 325)">13:00</text><text font-family="DengXian,DengXian_MSFontService,sans-serif" font-weight="400" font-size="12" transform="translate(378.377 325)">发车</text><text font-family="DengXian,DengXian_MSFontService,sans-serif" font-weight="400" font-size="12" transform="translate(271.864 325)">4</text><text font-family="DengXian,DengXian_MSFontService,sans-serif" font-weight="400" font-size="12" transform="translate(833.795 353)">2</text><text font-family="DengXian,DengXian_MSFontService,sans-serif" font-weight="400" font-size="12" transform="translate(840.129 353)">号大巴车</text><text font-family="DengXian,DengXian_MSFontService,sans-serif" font-weight="400" font-size="12" transform="translate(678.685 353)">14:00</text><text font-family="DengXian,DengXian_MSFontService,sans-serif" font-weight="400" font-size="12" transform="translate(706.685 353)">发车</text><text font-family="DengXian,DengXian_MSFontService,sans-serif" font-weight="400" font-size="12" transform="translate(514.855 353)">2</text><text font-family="DengXian,DengXian_MSFontService,sans-serif" font-weight="400" font-size="12" transform="translate(521.188 353)">号大巴车</text><text font-family="DengXian,DengXian_MSFontService,sans-serif" font-weight="400" font-size="12" transform="translate(350.377 353)">14:00</text><text font-family="DengXian,DengXian_MSFontService,sans-serif" font-weight="400" font-size="12" transform="translate(378.377 353)">发车</text><text font-family="DengXian,DengXian_MSFontService,sans-serif" font-weight="400" font-size="12" transform="translate(271.864 353)">5</text><text font-family="DengXian,DengXian_MSFontService,sans-serif" font-weight="400" font-size="12" transform="translate(833.795 381)">3</text><text font-family="DengXian,DengXian_MSFontService,sans-serif" font-weight="400" font-size="12" transform="translate(840.129 381)">号大巴车</text><text font-family="DengXian,DengXian_MSFontService,sans-serif" font-weight="400" font-size="12" transform="translate(678.685 381)">15:00</text><text font-family="DengXian,DengXian_MSFontService,sans-serif" font-weight="400" font-size="12" transform="translate(706.685 381)">发车</text><text font-family="DengXian,DengXian_MSFontService,sans-serif" font-weight="400" font-size="12" transform="translate(514.855 381)">3</text><text font-family="DengXian,DengXian_MSFontService,sans-serif" font-weight="400" font-size="12" transform="translate(521.188 381)">号大巴车</text><text font-family="DengXian,DengXian_MSFontService,sans-serif" font-weight="400" font-size="12" transform="translate(350.377 381)">15:00</text><text font-family="DengXian,DengXian_MSFontService,sans-serif" font-weight="400" font-size="12" transform="translate(378.377 381)">发车</text><text font-family="DengXian,DengXian_MSFontService,sans-serif" font-weight="400" font-size="12" transform="translate(271.864 381)">6</text><text font-family="DengXian,DengXian_MSFontService,sans-serif" font-weight="400" font-size="12" transform="translate(833.795 409)">1</text><text font-family="DengXian,DengXian_MSFontService,sans-serif" font-weight="400" font-size="12" transform="translate(840.129 409)">号大巴车</text><text font-family="DengXian,DengXian_MSFontService,sans-serif" font-weight="400" font-size="12" transform="translate(678.685 409)">16:00</text><text font-family="DengXian,DengXian_MSFontService,sans-serif" font-weight="400" font-size="12" transform="translate(706.685 409)">发车</text><text font-family="DengXian,DengXian_MSFontService,sans-serif" font-weight="400" font-size="12" transform="translate(514.855 409)">1</text><text font-family="DengXian,DengXian_MSFontService,sans-serif" font-weight="400" font-size="12" transform="translate(521.188 409)">号大巴车</text><text font-family="DengXian,DengXian_MSFontService,sans-serif" font-weight="400" font-size="12" transform="translate(350.377 409)">16:00</text><text font-family="DengXian,DengXian_MSFontService,sans-serif" font-weight="400" font-size="12" transform="translate(378.377 409)">发车</text><text font-family="DengXian,DengXian_MSFontService,sans-serif" font-weight="400" font-size="12" transform="translate(271.864 409)">7</text><text font-family="DengXian,DengXian_MSFontService,sans-serif" font-weight="400" font-size="12" transform="translate(833.795 437)">2</text><text font-family="DengXian,DengXian_MSFontService,sans-serif" font-weight="400" font-size="12" transform="translate(840.129 437)">号大巴车</text><text font-family="DengXian,DengXian_MSFontService,sans-serif" font-weight="400" font-size="12" transform="translate(678.685 437)">17:00</text><text font-family="DengXian,DengXian_MSFontService,sans-serif" font-weight="400" font-size="12" transform="translate(706.685 437)">发车</text><text font-family="DengXian,DengXian_MSFontService,sans-serif" font-weight="400" font-size="12" transform="translate(514.855 437)">2</text><text font-family="DengXian,DengXian_MSFontService,sans-serif" font-weight="400" font-size="12" transform="translate(521.188 437)">号大巴车</text><text font-family="DengXian,DengXian_MSFontService,sans-serif" font-weight="400" font-size="12" transform="translate(350.377 437)">17:00</text><text font-family="DengXian,DengXian_MSFontService,sans-serif" font-weight="400" font-size="12" transform="translate(378.377 437)">发车</text><text font-family="DengXian,DengXian_MSFontService,sans-serif" font-weight="400" font-size="12" transform="translate(271.864 437)">8</text><text font-family="DengXian,DengXian_MSFontService,sans-serif" font-weight="400" font-size="12" transform="translate(833.795 465)">3</text><text font-family="DengXian,DengXian_MSFontService,sans-serif" font-weight="400" font-size="12" transform="translate(840.129 465)">号大巴车</text><text font-family="DengXian,DengXian_MSFontService,sans-serif" font-weight="400" font-size="12" transform="translate(678.685 465)">18:00</text><text font-family="DengXian,DengXian_MSFontService,sans-serif" font-weight="400" font-size="12" transform="translate(706.685 465)">发车</text><text font-family="DengXian,DengXian_MSFontService,sans-serif" font-weight="400" font-size="12" transform="translate(514.855 465)">3</text><text font-family="DengXian,DengXian_MSFontService,sans-serif" font-weight="400" font-size="12" transform="translate(521.188 465)">号大巴车</text><text font-family="DengXian,DengXian_MSFontService,sans-serif" font-weight="400" font-size="12" transform="translate(350.377 465)">18:00</text><text font-family="DengXian,DengXian_MSFontService,sans-serif" font-weight="400" font-size="12" transform="translate(378.377 465)">发车</text><text font-family="DengXian,DengXian_MSFontService,sans-serif" font-weight="400" font-size="12" transform="translate(271.864 465)">9</text><text font-family="DengXian,DengXian_MSFontService,sans-serif" font-weight="400" font-size="12" transform="translate(833.795 493)">1</text><text font-family="DengXian,DengXian_MSFontService,sans-serif" font-weight="400" font-size="12" transform="translate(840.129 493)">号大巴车</text><text font-family="DengXian,DengXian_MSFontService,sans-serif" font-weight="400" font-size="12" transform="translate(678.685 493)">19:00</text><text font-family="DengXian,DengXian_MSFontService,sans-serif" font-weight="400" font-size="12" transform="translate(706.685 493)">发车</text><text font-family="DengXian,DengXian_MSFontService,sans-serif" font-weight="400" font-size="12" transform="translate(514.855 493)">1</text><text font-family="DengXian,DengXian_MSFontService,sans-serif" font-weight="400" font-size="12" transform="translate(521.188 493)">号大巴车</text><text font-family="DengXian,DengXian_MSFontService,sans-serif" font-weight="400" font-size="12" transform="translate(350.377 493)">19:00</text><text font-family="DengXian,DengXian_MSFontService,sans-serif" font-weight="400" font-size="12" transform="translate(378.377 493)">发车</text><text font-family="DengXian,DengXian_MSFontService,sans-serif" font-weight="400" font-size="12" transform="translate(268.698 493)">10</text><text font-family="DengXian,DengXian_MSFontService,sans-serif" font-weight="400" font-size="12" transform="translate(833.795 521)">2</text><text font-family="DengXian,DengXian_MSFontService,sans-serif" font-weight="400" font-size="12" transform="translate(840.129 521)">号大巴车</text><text font-family="DengXian,DengXian_MSFontService,sans-serif" font-weight="400" font-size="12" transform="translate(678.685 521)">20:00</text><text font-family="DengXian,DengXian_MSFontService,sans-serif" font-weight="400" font-size="12" transform="translate(706.685 521)">发车</text><text font-family="DengXian,DengXian_MSFontService,sans-serif" font-weight="400" font-size="12" transform="translate(514.855 521)">2</text><text font-family="DengXian,DengXian_MSFontService,sans-serif" font-weight="400" font-size="12" transform="translate(521.188 521)">号大巴车</text><text font-family="DengXian,DengXian_MSFontService,sans-serif" font-weight="400" font-size="12" transform="translate(350.377 521)">20:00</text><text font-family="DengXian,DengXian_MSFontService,sans-serif" font-weight="400" font-size="12" transform="translate(378.377 521)">发车</text><text font-family="DengXian,DengXian_MSFontService,sans-serif" font-weight="400" font-size="12" transform="translate(268.698 521)">11</text><text font-family="DengXian,DengXian_MSFontService,sans-serif" font-weight="400" font-size="12" transform="translate(833.795 550)">3</text><text font-family="DengXian,DengXian_MSFontService,sans-serif" font-weight="400" font-size="12" transform="translate(840.129 550)">号大巴车</text><text font-family="DengXian,DengXian_MSFontService,sans-serif" font-weight="400" font-size="12" transform="translate(678.685 550)">21:00</text><text font-family="DengXian,DengXian_MSFontService,sans-serif" font-weight="400" font-size="12" transform="translate(706.685 550)">发车</text><text font-family="DengXian,DengXian_MSFontService,sans-serif" font-weight="400" font-size="12" transform="translate(514.855 550)">3</text><text font-family="DengXian,DengXian_MSFontService,sans-serif" font-weight="400" font-size="12" transform="translate(521.188 550)">号大巴车</text><text font-family="DengXian,DengXian_MSFontService,sans-serif" font-weight="400" font-size="12" transform="translate(350.377 550)">21:00</text><text font-family="DengXian,DengXian_MSFontService,sans-serif" font-weight="400" font-size="12" transform="translate(378.377 550)">发车</text><text font-family="DengXian,DengXian_MSFontService,sans-serif" font-weight="400" font-size="12" transform="translate(268.698 550)">12</text><text font-family="DengXian,DengXian_MSFontService,sans-serif" font-weight="400" font-size="12" transform="translate(833.795 578)">1</text><text font-family="DengXian,DengXian_MSFontService,sans-serif" font-weight="400" font-size="12" transform="translate(840.129 578)">号大巴车</text><text font-family="DengXian,DengXian_MSFontService,sans-serif" font-weight="400" font-size="12" transform="translate(678.685 578)">22:00</text><text font-family="DengXian,DengXian_MSFontService,sans-serif" font-weight="400" font-size="12" transform="translate(706.685 578)">发车</text><text font-family="DengXian,DengXian_MSFontService,sans-serif" font-weight="400" font-size="12" transform="translate(514.855 578)">1</text><text font-family="DengXian,DengXian_MSFontService,sans-serif" font-weight="400" font-size="12" transform="translate(521.188 578)">号大巴车</text><text font-family="DengXian,DengXian_MSFontService,sans-serif" font-weight="400" font-size="12" transform="translate(350.377 578)">22:00</text><text font-family="DengXian,DengXian_MSFontService,sans-serif" font-weight="400" font-size="12" transform="translate(378.377 578)">发车</text><text font-family="DengXian,DengXian_MSFontService,sans-serif" font-weight="400" font-size="12" transform="translate(268.698 578)">13</text></g></svg>