<svg width="858" height="91" xmlns="http://www.w3.org/2000/svg" xmlns:xlink="http://www.w3.org/1999/xlink" overflow="hidden"><defs><clipPath id="clip0"><rect x="212" y="72" width="858" height="91"/></clipPath><clipPath id="clip1"><rect x="213" y="-7" width="285" height="203"/></clipPath><clipPath id="clip2"><rect x="497" y="32" width="570" height="203"/></clipPath><clipPath id="clip3"><rect x="213" y="32" width="285" height="203"/></clipPath></defs><g clip-path="url(#clip0)" transform="translate(-212 -72)"><path d="M213.333 75.5555 497.778 75.5555 497.778 114.489 213.333 114.489Z" fill="#4472C4" fill-rule="evenodd"/><path d="M497.778 75.5555 1066.67 75.5555 1066.67 114.489 497.778 114.489Z" fill="#4472C4" fill-rule="evenodd"/><path d="M213.333 114.489 497.778 114.489 497.778 153.422 213.333 153.422Z" fill="#CFD5EA" fill-rule="evenodd"/><path d="M497.778 114.489 1066.67 114.489 1066.67 153.422 497.778 153.422Z" fill="#CFD5EA" fill-rule="evenodd"/><path d="M497.778 74.8888 497.778 154.089" stroke="#FFFFFF" stroke-width="1.33333" stroke-linejoin="round" stroke-miterlimit="10" fill="none" fill-rule="evenodd"/><path d="M212.667 114.489 1067.33 114.489" stroke="#FFFFFF" stroke-width="4" stroke-linejoin="round" stroke-miterlimit="10" fill="none" fill-rule="evenodd"/><path d="M213.333 74.8888 213.333 154.089" stroke="#FFFFFF" stroke-width="1.33333" stroke-linejoin="round" stroke-miterlimit="10" fill="none" fill-rule="evenodd"/><path d="M1066.67 74.8888 1066.67 154.089" stroke="#FFFFFF" stroke-width="1.33333" stroke-linejoin="round" stroke-miterlimit="10" fill="none" fill-rule="evenodd"/><path d="M212.667 75.5555 1067.33 75.5555" stroke="#FFFFFF" stroke-width="1.33333" stroke-linejoin="round" stroke-miterlimit="10" fill="none" fill-rule="evenodd"/><path d="M212.667 153.422 1067.33 153.422" stroke="#FFFFFF" stroke-width="1.33333" stroke-linejoin="round" stroke-miterlimit="10" fill="none" fill-rule="evenodd"/><g clip-path="url(#clip1)"><text fill="#FFFFFF" font-family="DengXian,DengXian_MSFontService,sans-serif" font-weight="700" font-size="24" transform="translate(222.933 102)">Day1/July 5,</text></g><text fill="#FFFFFF" font-family="DengXian,DengXian_MSFontService,sans-serif" font-weight="700" font-size="24" transform="translate(362.6 102)">2023</text><g clip-path="url(#clip2)"><text font-family="DengXian,DengXian_MSFontService,sans-serif" font-weight="700" font-size="24" transform="translate(507.378 141)">Conference Check</text></g><text font-family="DengXian,DengXian_MSFontService,sans-serif" font-weight="700" font-size="24" transform="translate(703.878 141)">-</text><text font-family="DengXian,DengXian_MSFontService,sans-serif" font-weight="700" font-size="24" transform="translate(715.878 141)">in, Registration</text><g clip-path="url(#clip3)"><text font-family="DengXian,DengXian_MSFontService,sans-serif" font-weight="700" font-size="24" transform="translate(222.933 141)">09:00</text></g><text font-family="DengXian,DengXian_MSFontService,sans-serif" font-weight="700" font-size="24" transform="translate(282.1 141)">-</text><text font-family="DengXian,DengXian_MSFontService,sans-serif" font-weight="700" font-size="24" transform="translate(294.1 141)">22:00</text></g></svg>