<svg width="859" height="1079" xmlns="http://www.w3.org/2000/svg" xmlns:xlink="http://www.w3.org/1999/xlink" overflow="hidden"><g transform="translate(-225 3)"><path d="M227.314 0 1080.65 0 1080.65 38.9333 227.314 38.9333Z" fill="#4472C4" fill-rule="evenodd"/><path d="M227.314 38.9333 507.961 38.9333 507.961 77.8667 227.314 77.8667Z" fill="#CFD5EA" fill-rule="evenodd"/><path d="M507.961 38.9333 1080.65 38.9333 1080.65 77.8667 507.961 77.8667Z" fill="#CFD5EA" fill-rule="evenodd"/><path d="M227.314 77.8667 507.961 77.8667 507.961 116.8 227.314 116.8Z" fill="#E9EBF5" fill-rule="evenodd"/><path d="M507.961 77.8667 1080.65 77.8667 1080.65 116.8 507.961 116.8Z" fill="#E9EBF5" fill-rule="evenodd"/><path d="M227.314 116.8 507.961 116.8 507.961 155.733 227.314 155.733Z" fill="#CFD5EA" fill-rule="evenodd"/><path d="M507.961 116.8 1080.65 116.8 1080.65 155.733 507.961 155.733Z" fill="#CFD5EA" fill-rule="evenodd"/><path d="M227.314 155.733 507.961 155.733 507.961 194.667 227.314 194.667Z" fill="#E9EBF5" fill-rule="evenodd"/><path d="M507.961 155.733 1080.65 155.733 1080.65 194.667 507.961 194.667Z" fill="#E9EBF5" fill-rule="evenodd"/><path d="M227.314 194.667 507.961 194.667 507.961 233.6 227.314 233.6Z" fill="#CFD5EA" fill-rule="evenodd"/><path d="M507.961 194.667 1080.65 194.667 1080.65 233.6 507.961 233.6Z" fill="#CFD5EA" fill-rule="evenodd"/><path d="M227.314 233.6 507.961 233.6 507.961 272.533 227.314 272.533Z" fill="#E9EBF5" fill-rule="evenodd"/><path d="M507.961 233.6 1080.65 233.6 1080.65 272.533 507.961 272.533Z" fill="#E9EBF5" fill-rule="evenodd"/><path d="M227.314 272.533 507.961 272.533 507.961 311.467 227.314 311.467Z" fill="#CFD5EA" fill-rule="evenodd"/><path d="M507.961 272.533 1080.65 272.533 1080.65 311.467 507.961 311.467Z" fill="#CFD5EA" fill-rule="evenodd"/><path d="M227.314 311.467 397.98 311.467 397.98 346.667 227.314 346.667Z" fill="#E9EBF5" fill-rule="evenodd"/><path d="M397.98 311.467 568.647 311.467 568.647 346.667 397.98 346.667Z" fill="#E9EBF5" fill-rule="evenodd"/><path d="M568.647 311.467 739.314 311.467 739.314 346.667 568.647 346.667Z" fill="#E9EBF5" fill-rule="evenodd"/><path d="M739.314 311.467 909.98 311.467 909.98 346.667 739.314 346.667Z" fill="#E9EBF5" fill-rule="evenodd"/><path d="M909.98 311.467 1080.65 311.467 1080.65 346.667 909.98 346.667Z" fill="#E9EBF5" fill-rule="evenodd"/><path d="M227.314 346.667 397.98 346.667 397.98 468.267 227.314 468.267Z" fill="#CFD5EA" fill-rule="evenodd"/><path d="M397.98 346.667 568.647 346.667 568.647 468.267 397.98 468.267Z" fill="#CFD5EA" fill-rule="evenodd"/><path d="M568.647 346.667 739.314 346.667 739.314 468.267 568.647 468.267Z" fill="#CFD5EA" fill-rule="evenodd"/><path d="M739.314 346.667 909.98 346.667 909.98 468.267 739.314 468.267Z" fill="#CFD5EA" fill-rule="evenodd"/><path d="M909.98 346.667 1080.65 346.667 1080.65 468.267 909.98 468.267Z" fill="#CFD5EA" fill-rule="evenodd"/><path d="M227.314 468.267 397.98 468.267 397.98 503.467 227.314 503.467Z" fill="#E9EBF5" fill-rule="evenodd"/><path d="M397.98 468.267 568.647 468.267 568.647 503.467 397.98 503.467Z" fill="#E9EBF5" fill-rule="evenodd"/><path d="M568.647 468.267 739.314 468.267 739.314 503.467 568.647 503.467Z" fill="#E9EBF5" fill-rule="evenodd"/><path d="M739.314 468.267 909.98 468.267 909.98 503.467 739.314 503.467Z" fill="#E9EBF5" fill-rule="evenodd"/><path d="M909.98 468.267 1080.65 468.267 1080.65 503.467 909.98 503.467Z" fill="#E9EBF5" fill-rule="evenodd"/><path d="M227.314 503.467 397.98 503.467 397.98 669.867 227.314 669.867Z" fill="#CFD5EA" fill-rule="evenodd"/><path d="M397.98 503.467 568.647 503.467 568.647 669.867 397.98 669.867Z" fill="#CFD5EA" fill-rule="evenodd"/><path d="M568.647 503.467 739.314 503.467 739.314 669.867 568.647 669.867Z" fill="#CFD5EA" fill-rule="evenodd"/><path d="M739.314 503.467 909.98 503.467 909.98 669.867 739.314 669.867Z" fill="#CFD5EA" fill-rule="evenodd"/><path d="M909.98 503.467 1080.65 503.467 1080.65 669.867 909.98 669.867Z" fill="#CFD5EA" fill-rule="evenodd"/><path d="M227.314 669.867 507.961 669.867 507.961 708.8 227.314 708.8Z" fill="#E9EBF5" fill-rule="evenodd"/><path d="M507.961 669.867 1080.65 669.867 1080.65 708.8 507.961 708.8Z" fill="#E9EBF5" fill-rule="evenodd"/><path d="M227.314 708.8 507.961 708.8 507.961 747.733 227.314 747.733Z" fill="#CFD5EA" fill-rule="evenodd"/><path d="M507.961 708.8 1080.65 708.8 1080.65 747.733 507.961 747.733Z" fill="#CFD5EA" fill-rule="evenodd"/><path d="M227.314 747.733 397.98 747.733 397.98 786.667 227.314 786.667Z" fill="#E9EBF5" fill-rule="evenodd"/><path d="M397.98 747.733 568.647 747.733 568.647 786.667 397.98 786.667Z" fill="#E9EBF5" fill-rule="evenodd"/><path d="M568.647 747.733 739.314 747.733 739.314 786.667 568.647 786.667Z" fill="#E9EBF5" fill-rule="evenodd"/><path d="M739.314 747.733 909.98 747.733 909.98 786.667 739.314 786.667Z" fill="#E9EBF5" fill-rule="evenodd"/><path d="M909.98 747.733 1080.65 747.733 1080.65 786.667 909.98 786.667Z" fill="#E9EBF5" fill-rule="evenodd"/><path d="M227.314 786.667 397.98 786.667 397.98 930.667 227.314 930.667Z" fill="#CFD5EA" fill-rule="evenodd"/><path d="M397.98 786.667 568.647 786.667 568.647 930.667 397.98 930.667Z" fill="#CFD5EA" fill-rule="evenodd"/><path d="M568.647 786.667 739.314 786.667 739.314 930.667 568.647 930.667Z" fill="#CFD5EA" fill-rule="evenodd"/><path d="M739.314 786.667 909.98 786.667 909.98 930.667 739.314 930.667Z" fill="#CFD5EA" fill-rule="evenodd"/><path d="M909.98 786.667 1080.65 786.667 1080.65 930.667 909.98 930.667Z" fill="#CFD5EA" fill-rule="evenodd"/><path d="M227.314 930.667 397.98 930.667 397.98 969.6 227.314 969.6Z" fill="#E9EBF5" fill-rule="evenodd"/><path d="M397.98 930.667 568.647 930.667 568.647 969.6 397.98 969.6Z" fill="#E9EBF5" fill-rule="evenodd"/><path d="M568.647 930.667 739.314 930.667 739.314 969.6 568.647 969.6Z" fill="#E9EBF5" fill-rule="evenodd"/><path d="M739.314 930.667 909.98 930.667 909.98 969.6 739.314 969.6Z" fill="#E9EBF5" fill-rule="evenodd"/><path d="M909.98 930.667 1080.65 930.667 1080.65 969.6 909.98 969.6Z" fill="#E9EBF5" fill-rule="evenodd"/><path d="M227.314 969.6 397.98 969.6 397.98 1068.8 227.314 1068.8Z" fill="#CFD5EA" fill-rule="evenodd"/><path d="M397.98 969.6 568.647 969.6 568.647 1068.8 397.98 1068.8Z" fill="#CFD5EA" fill-rule="evenodd"/><path d="M568.647 969.6 739.314 969.6 739.314 1068.8 568.647 1068.8Z" fill="#CFD5EA" fill-rule="evenodd"/><path d="M739.314 969.6 909.98 969.6 909.98 1068.8 739.314 1068.8Z" fill="#CFD5EA" fill-rule="evenodd"/><path d="M909.98 969.6 1080.65 969.6 1080.65 1068.8 909.98 1068.8Z" fill="#CFD5EA" fill-rule="evenodd"/><path d="M397.98 309.467 397.98 671.867" stroke="#000000" stroke-width="4" stroke-linejoin="round" stroke-miterlimit="10" fill="none" fill-rule="evenodd"/><path d="M397.98 745.733 397.98 1070.8" stroke="#000000" stroke-width="4" stroke-linejoin="round" stroke-miterlimit="10" fill="none" fill-rule="evenodd"/><path d="M507.961 36.9333 507.961 312.133" stroke="#FFFFFF" stroke-width="1.33333" stroke-linejoin="round" stroke-miterlimit="10" fill="none" fill-rule="evenodd"/><path d="M507.961 669.2 507.961 748.4" stroke="#FFFFFF" stroke-width="1.33333" stroke-linejoin="round" stroke-miterlimit="10" fill="none" fill-rule="evenodd"/><path d="M568.647 310.8 568.647 670.533" stroke="#000000" stroke-width="1.33333" stroke-linejoin="round" stroke-miterlimit="10" fill="none" fill-rule="evenodd"/><path d="M568.647 747.067 568.647 1069.47" stroke="#000000" stroke-width="1.33333" stroke-linejoin="round" stroke-miterlimit="10" fill="none" fill-rule="evenodd"/><path d="M739.314 310.8 739.314 670.533" stroke="#000000" stroke-width="1.33333" stroke-linejoin="round" stroke-miterlimit="10" fill="none" fill-rule="evenodd"/><path d="M739.314 747.067 739.314 1069.47" stroke="#000000" stroke-width="1.33333" stroke-linejoin="round" stroke-miterlimit="10" fill="none" fill-rule="evenodd"/><path d="M909.98 310.8 909.98 670.533" stroke="#000000" stroke-width="1.33333" stroke-linejoin="round" stroke-miterlimit="10" fill="none" fill-rule="evenodd"/><path d="M909.98 747.067 909.98 1069.47" stroke="#000000" stroke-width="1.33333" stroke-linejoin="round" stroke-miterlimit="10" fill="none" fill-rule="evenodd"/><path d="M226.647 38.9333 1081.31 38.9333" stroke="#FFFFFF" stroke-width="4" stroke-linejoin="round" stroke-miterlimit="10" fill="none" fill-rule="evenodd"/><path d="M226.647 77.8667 1081.31 77.8667" stroke="#FFFFFF" stroke-width="1.33333" stroke-linejoin="round" stroke-miterlimit="10" fill="none" fill-rule="evenodd"/><path d="M226.647 116.8 1081.31 116.8" stroke="#FFFFFF" stroke-width="1.33333" stroke-linejoin="round" stroke-miterlimit="10" fill="none" fill-rule="evenodd"/><path d="M226.647 155.733 1081.31 155.733" stroke="#FFFFFF" stroke-width="1.33333" stroke-linejoin="round" stroke-miterlimit="10" fill="none" fill-rule="evenodd"/><path d="M226.647 194.667 1081.31 194.667" stroke="#FFFFFF" stroke-width="1.33333" stroke-linejoin="round" stroke-miterlimit="10" fill="none" fill-rule="evenodd"/><path d="M226.647 233.6 1081.31 233.6" stroke="#FFFFFF" stroke-width="1.33333" stroke-linejoin="round" stroke-miterlimit="10" fill="none" fill-rule="evenodd"/><path d="M226.647 272.533 1081.31 272.533" stroke="#FFFFFF" stroke-width="1.33333" stroke-linejoin="round" stroke-miterlimit="10" fill="none" fill-rule="evenodd"/><path d="M225.314 311.467 399.98 311.467" stroke="#000000" stroke-width="4" stroke-linejoin="round" stroke-miterlimit="10" fill="none" fill-rule="evenodd"/><path d="M399.98 311.467 1081.31 311.467" stroke="#000000" stroke-width="1.33333" stroke-linejoin="round" stroke-miterlimit="10" fill="none" fill-rule="evenodd"/><path d="M225.314 346.667 399.98 346.667" stroke="#000000" stroke-width="4" stroke-linejoin="round" stroke-miterlimit="10" fill="none" fill-rule="evenodd"/><path d="M399.98 346.667 1081.31 346.667" stroke="#000000" stroke-width="1.33333" stroke-linejoin="round" stroke-miterlimit="10" fill="none" fill-rule="evenodd"/><path d="M225.314 468.267 399.98 468.267" stroke="#000000" stroke-width="4" stroke-linejoin="round" stroke-miterlimit="10" fill="none" fill-rule="evenodd"/><path d="M399.98 468.267 1081.31 468.267" stroke="#000000" stroke-width="1.33333" stroke-linejoin="round" stroke-miterlimit="10" fill="none" fill-rule="evenodd"/><path d="M225.314 503.467 399.98 503.467" stroke="#000000" stroke-width="4" stroke-linejoin="round" stroke-miterlimit="10" fill="none" fill-rule="evenodd"/><path d="M399.98 503.467 1081.31 503.467" stroke="#000000" stroke-width="1.33333" stroke-linejoin="round" stroke-miterlimit="10" fill="none" fill-rule="evenodd"/><path d="M225.314 669.867 399.98 669.867" stroke="#000000" stroke-width="4" stroke-linejoin="round" stroke-miterlimit="10" fill="none" fill-rule="evenodd"/><path d="M399.98 669.867 1081.31 669.867" stroke="#000000" stroke-width="1.33333" stroke-linejoin="round" stroke-miterlimit="10" fill="none" fill-rule="evenodd"/><path d="M226.647 708.8 1081.31 708.8" stroke="#FFFFFF" stroke-width="1.33333" stroke-linejoin="round" stroke-miterlimit="10" fill="none" fill-rule="evenodd"/><path d="M225.314 747.733 399.98 747.733" stroke="#000000" stroke-width="4" stroke-linejoin="round" stroke-miterlimit="10" fill="none" fill-rule="evenodd"/><path d="M399.98 747.733 1081.31 747.733" stroke="#000000" stroke-width="1.33333" stroke-linejoin="round" stroke-miterlimit="10" fill="none" fill-rule="evenodd"/><path d="M225.314 786.667 399.98 786.667" stroke="#000000" stroke-width="4" stroke-linejoin="round" stroke-miterlimit="10" fill="none" fill-rule="evenodd"/><path d="M399.98 786.667 1081.31 786.667" stroke="#000000" stroke-width="1.33333" stroke-linejoin="round" stroke-miterlimit="10" fill="none" fill-rule="evenodd"/><path d="M225.314 930.667 399.98 930.667" stroke="#000000" stroke-width="4" stroke-linejoin="round" stroke-miterlimit="10" fill="none" fill-rule="evenodd"/><path d="M399.98 930.667 1081.31 930.667" stroke="#000000" stroke-width="1.33333" stroke-linejoin="round" stroke-miterlimit="10" fill="none" fill-rule="evenodd"/><path d="M225.314 969.6 399.98 969.6" stroke="#000000" stroke-width="4" stroke-linejoin="round" stroke-miterlimit="10" fill="none" fill-rule="evenodd"/><path d="M399.98 969.6 1081.31 969.6" stroke="#000000" stroke-width="1.33333" stroke-linejoin="round" stroke-miterlimit="10" fill="none" fill-rule="evenodd"/><path d="M227.314-0.666667 227.314 309.467" stroke="#FFFFFF" stroke-width="1.33333" stroke-linejoin="round" stroke-miterlimit="10" fill="none" fill-rule="evenodd"/><path d="M227.314 309.467 227.314 671.867" stroke="#000000" stroke-width="4" stroke-linejoin="round" stroke-miterlimit="10" fill="none" fill-rule="evenodd"/><path d="M227.314 671.867 227.314 745.733" stroke="#FFFFFF" stroke-width="1.33333" stroke-linejoin="round" stroke-miterlimit="10" fill="none" fill-rule="evenodd"/><path d="M227.314 745.733 227.314 1070.8" stroke="#000000" stroke-width="4" stroke-linejoin="round" stroke-miterlimit="10" fill="none" fill-rule="evenodd"/><path d="M1080.65-0.666667 1080.65 311.467" stroke="#FFFFFF" stroke-width="1.33333" stroke-linejoin="round" stroke-miterlimit="10" fill="none" fill-rule="evenodd"/><path d="M1080.65 311.467 1080.65 669.867" stroke="#000000" stroke-width="1.33333" stroke-linejoin="round" stroke-miterlimit="10" fill="none" fill-rule="evenodd"/><path d="M1080.65 669.867 1080.65 747.733" stroke="#FFFFFF" stroke-width="1.33333" stroke-linejoin="round" stroke-miterlimit="10" fill="none" fill-rule="evenodd"/><path d="M1080.65 747.733 1080.65 1069.47" stroke="#000000" stroke-width="1.33333" stroke-linejoin="round" stroke-miterlimit="10" fill="none" fill-rule="evenodd"/><path d="M226.647 0 1081.31 0" stroke="#FFFFFF" stroke-width="1.33333" stroke-linejoin="round" stroke-miterlimit="10" fill="none" fill-rule="evenodd"/><path d="M225.314 1068.8 399.98 1068.8" stroke="#000000" stroke-width="4" stroke-linejoin="round" stroke-miterlimit="10" fill="none" fill-rule="evenodd"/><path d="M399.98 1068.8 1081.31 1068.8" stroke="#000000" stroke-width="1.33333" stroke-linejoin="round" stroke-miterlimit="10" fill="none" fill-rule="evenodd"/><g><text fill="#FFFFFF" font-family="DengXian,DengXian_MSFontService,sans-serif" font-weight="700" font-size="24" transform="translate(236.914 27)">Day2/July 6,</text></g><text fill="#FFFFFF" font-family="DengXian,DengXian_MSFontService,sans-serif" font-weight="700" font-size="24" transform="translate(376.58 27)">2023</text><g><text font-family="DengXian,DengXian_MSFontService,sans-serif" font-weight="700" font-size="24" transform="translate(517.561 66)">Opening Ceremony</text></g><g><text font-family="DengXian,DengXian_MSFontService,sans-serif" font-weight="700" font-size="24" transform="translate(236.914 66)">08:30</text></g><text font-family="DengXian,DengXian_MSFontService,sans-serif" font-weight="700" font-size="24" transform="translate(296.08 66)">-</text><text font-family="DengXian,DengXian_MSFontService,sans-serif" font-weight="700" font-size="24" transform="translate(308.08 66)">08:50</text><g><text font-family="DengXian,DengXian_MSFontService,sans-serif" font-weight="700" font-size="24" transform="translate(517.561 105)">Plenary Speech</text></g><g><text font-family="DengXian,DengXian_MSFontService,sans-serif" font-weight="700" font-size="24" transform="translate(236.914 105)">08:50</text></g><text font-family="DengXian,DengXian_MSFontService,sans-serif" font-weight="700" font-size="24" transform="translate(296.08 105)">-</text><text font-family="DengXian,DengXian_MSFontService,sans-serif" font-weight="700" font-size="24" transform="translate(308.08 105)">10:10</text><g><text font-family="DengXian,DengXian_MSFontService,sans-serif" font-weight="700" font-size="24" transform="translate(517.561 144)">Photograph &amp; Coffee &amp; Tea Break</text></g><g><text font-family="DengXian,DengXian_MSFontService,sans-serif" font-weight="700" font-size="24" transform="translate(236.914 144)">10:10</text></g><text font-family="DengXian,DengXian_MSFontService,sans-serif" font-weight="700" font-size="24" transform="translate(296.08 144)">-</text><text font-family="DengXian,DengXian_MSFontService,sans-serif" font-weight="700" font-size="24" transform="translate(308.08 144)">10:35</text><g><text font-family="DengXian,DengXian_MSFontService,sans-serif" font-weight="700" font-size="24" transform="translate(517.561 183)">Plenary Speech</text></g><g><text font-family="DengXian,DengXian_MSFontService,sans-serif" font-weight="700" font-size="24" transform="translate(236.914 183)">10:35</text></g><text font-family="DengXian,DengXian_MSFontService,sans-serif" font-weight="700" font-size="24" transform="translate(296.08 183)">-</text><text font-family="DengXian,DengXian_MSFontService,sans-serif" font-weight="700" font-size="24" transform="translate(308.08 183)">11:15</text><g><text font-family="DengXian,DengXian_MSFontService,sans-serif" font-weight="700" font-size="24" transform="translate(517.561 221)">Keynote Speech</text></g><g><text font-family="DengXian,DengXian_MSFontService,sans-serif" font-weight="700" font-size="24" transform="translate(236.914 221)">11:15</text></g><text font-family="DengXian,DengXian_MSFontService,sans-serif" font-weight="700" font-size="24" transform="translate(296.08 221)">-</text><text font-family="DengXian,DengXian_MSFontService,sans-serif" font-weight="700" font-size="24" transform="translate(308.08 221)">12:15</text><g><text font-family="DengXian,DengXian_MSFontService,sans-serif" font-weight="700" font-size="24" transform="translate(517.561 260)">Lunch &amp; Break</text></g><g><text font-family="DengXian,DengXian_MSFontService,sans-serif" font-weight="700" font-size="24" transform="translate(236.914 260)">12:15</text></g><text font-family="DengXian,DengXian_MSFontService,sans-serif" font-weight="700" font-size="24" transform="translate(296.08 260)">-</text><text font-family="DengXian,DengXian_MSFontService,sans-serif" font-weight="700" font-size="24" transform="translate(308.08 260)">13:30</text><g><text font-family="DengXian,DengXian_MSFontService,sans-serif" font-weight="700" font-size="24" transform="translate(517.561 299)">Session</text></g><text font-family="DengXian,DengXian_MSFontService,sans-serif" font-weight="700" font-size="24" transform="translate(605.394 299)">Ⅰ (S01</text><text font-family="DengXian,DengXian_MSFontService,sans-serif" font-weight="700" font-size="24" transform="translate(690.394 299)">-</text><text font-family="DengXian,DengXian_MSFontService,sans-serif" font-weight="700" font-size="24" transform="translate(709.061 299)">S08)</text><g><text font-family="DengXian,DengXian_MSFontService,sans-serif" font-weight="700" font-size="24" transform="translate(236.914 299)">13:30</text></g><text font-family="DengXian,DengXian_MSFontService,sans-serif" font-weight="700" font-size="24" transform="translate(296.08 299)">-</text><text font-family="DengXian,DengXian_MSFontService,sans-serif" font-weight="700" font-size="24" transform="translate(308.08 299)">15:30</text><text font-family="DengXian,DengXian_MSFontService,sans-serif" font-weight="700" font-size="21" transform="translate(977.647 336)">S04</text><text font-family="DengXian,DengXian_MSFontService,sans-serif" font-weight="700" font-size="21" transform="translate(806.98 336)">S03</text><text font-family="DengXian,DengXian_MSFontService,sans-serif" font-weight="700" font-size="21" transform="translate(636.314 336)">S02</text><text font-family="DengXian,DengXian_MSFontService,sans-serif" font-weight="700" font-size="21" transform="translate(465.647 336)">S01</text><text font-family="DengXian,DengXian_MSFontService,sans-serif" font-weight="700" font-size="21" transform="translate(294.397 336)">B01</text><text font-family="DengXian,DengXian_MSFontService,sans-serif" font-weight="700" font-size="19" transform="translate(939.727 380)">Vision</text><text font-family="DengXian,DengXian_MSFontService,sans-serif" font-weight="700" font-size="19" transform="translate(991.394 380)">-</text><text font-family="DengXian,DengXian_MSFontService,sans-serif" font-weight="700" font-size="19" transform="translate(1000.73 380)">Based</text><text font-family="DengXian,DengXian_MSFontService,sans-serif" font-weight="700" font-size="19" transform="translate(936.06 403)">Human Robot</text><text font-family="DengXian,DengXian_MSFontService,sans-serif" font-weight="700" font-size="19" transform="translate(930.98 425)">Interaction and</text><text font-family="DengXian,DengXian_MSFontService,sans-serif" font-weight="700" font-size="19" transform="translate(947.06 448)">Application</text><g><text font-family="DengXian,DengXian_MSFontService,sans-serif" font-weight="700" font-size="19" transform="translate(753.064 380)">Intelligent Robot</text></g><text font-family="DengXian,DengXian_MSFontService,sans-serif" font-weight="700" font-size="19" transform="translate(768.65 403)">Perception in</text><text font-family="DengXian,DengXian_MSFontService,sans-serif" font-weight="700" font-size="19" transform="translate(784.23 425)">Unknown</text><text font-family="DengXian,DengXian_MSFontService,sans-serif" font-weight="700" font-size="19" transform="translate(766.817 448)">Environments</text><text font-family="DengXian,DengXian_MSFontService,sans-serif" font-weight="700" font-size="19" transform="translate(605.06 380)">Multimodal</text><text font-family="DengXian,DengXian_MSFontService,sans-serif" font-weight="700" font-size="19" transform="translate(597.98 403)">Collaborative</text><text font-family="DengXian,DengXian_MSFontService,sans-serif" font-weight="700" font-size="19" transform="translate(589.98 425)">Perception and</text><text font-family="DengXian,DengXian_MSFontService,sans-serif" font-weight="700" font-size="19" transform="translate(626.48 448)">Fusion</text><text font-family="DengXian,DengXian_MSFontService,sans-serif" font-weight="700" font-size="19" transform="translate(419.48 368)">Human</text><text font-family="DengXian,DengXian_MSFontService,sans-serif" font-weight="700" font-size="19" transform="translate(480.98 368)">-</text><text font-family="DengXian,DengXian_MSFontService,sans-serif" font-weight="700" font-size="19" transform="translate(490.314 368)">centric</text><g><text font-family="DengXian,DengXian_MSFontService,sans-serif" font-weight="700" font-size="19" transform="translate(412.48 391)">Technologies for</text></g><text font-family="DengXian,DengXian_MSFontService,sans-serif" font-weight="700" font-size="19" transform="translate(444.727 413)">Seamless</text><text font-family="DengXian,DengXian_MSFontService,sans-serif" font-weight="700" font-size="19" transform="translate(424.394 436)">Human</text><text font-family="DengXian,DengXian_MSFontService,sans-serif" font-weight="700" font-size="19" transform="translate(485.894 436)">-</text><text font-family="DengXian,DengXian_MSFontService,sans-serif" font-weight="700" font-size="19" transform="translate(495.227 436)">robot</text><text font-family="DengXian,DengXian_MSFontService,sans-serif" font-weight="700" font-size="19" transform="translate(426.06 458)">Collaboration</text><text font-family="DengXian,DengXian_MSFontService,sans-serif" font-weight="700" font-size="19" transform="translate(258.894 391)">Best Student</text><text font-family="DengXian,DengXian_MSFontService,sans-serif" font-weight="700" font-size="19" transform="translate(288.394 414)">Paper</text><text font-family="DengXian,DengXian_MSFontService,sans-serif" font-weight="700" font-size="19" transform="translate(245.98 436)">Competition (1)</text><text font-family="DengXian,DengXian_MSFontService,sans-serif" font-weight="700" font-size="21" transform="translate(977.647 493)">S08</text><text font-family="DengXian,DengXian_MSFontService,sans-serif" font-weight="700" font-size="21" transform="translate(806.98 493)">S07</text><text font-family="DengXian,DengXian_MSFontService,sans-serif" font-weight="700" font-size="21" transform="translate(636.314 493)">S06</text><text font-family="DengXian,DengXian_MSFontService,sans-serif" font-weight="700" font-size="21" transform="translate(465.647 493)">S05</text><text font-family="DengXian,DengXian_MSFontService,sans-serif" font-weight="700" font-size="21" transform="translate(294.397 493)">B02</text><text font-family="DengXian,DengXian_MSFontService,sans-serif" font-weight="700" font-size="19" transform="translate(931.314 548)">Perception and</text><text font-family="DengXian,DengXian_MSFontService,sans-serif" font-weight="700" font-size="19" transform="translate(927.56 571)">Manipulation of</text><text font-family="DengXian,DengXian_MSFontService,sans-serif" font-weight="700" font-size="19" transform="translate(926.98 593)">Dexterous Hand</text><text font-family="DengXian,DengXian_MSFontService,sans-serif" font-weight="700" font-size="19" transform="translate(936.147 616)">for Humanoid</text><text font-family="DengXian,DengXian_MSFontService,sans-serif" font-weight="700" font-size="19" transform="translate(969.394 638)">Robot</text><g><text font-family="DengXian,DengXian_MSFontService,sans-serif" font-weight="700" font-size="19" transform="translate(752.064 525)">Wearable Robots</text></g><text font-family="DengXian,DengXian_MSFontService,sans-serif" font-weight="700" font-size="19" transform="translate(763.897 548)">for Assistance,</text><text font-family="DengXian,DengXian_MSFontService,sans-serif" font-weight="700" font-size="19" transform="translate(763.817 570)">Augmentation</text><text font-family="DengXian,DengXian_MSFontService,sans-serif" font-weight="700" font-size="19" transform="translate(808.817 593)">and</text><g><text font-family="DengXian,DengXian_MSFontService,sans-serif" font-weight="700" font-size="19" transform="translate(754.397 615)">Rehabilitation of</text></g><text font-family="DengXian,DengXian_MSFontService,sans-serif" font-weight="700" font-size="19" transform="translate(793.897 637)">Human</text><text font-family="DengXian,DengXian_MSFontService,sans-serif" font-weight="700" font-size="19" transform="translate(774.65 660)">Movements</text><g><text font-family="DengXian,DengXian_MSFontService,sans-serif" font-weight="700" font-size="19" transform="translate(578.814 581)">Wearable Sensors</text></g><text font-family="DengXian,DengXian_MSFontService,sans-serif" font-weight="700" font-size="19" transform="translate(605.647 604)">and Robots</text><text font-family="DengXian,DengXian_MSFontService,sans-serif" font-weight="700" font-size="19" transform="translate(424.647 570)">Reliable AI on</text><g><text font-family="DengXian,DengXian_MSFontService,sans-serif" font-weight="700" font-size="19" transform="translate(413.814 593)">Machine Human</text></g><text font-family="DengXian,DengXian_MSFontService,sans-serif" font-weight="700" font-size="19" transform="translate(442.48 615)">Reactions</text><text font-family="DengXian,DengXian_MSFontService,sans-serif" font-weight="700" font-size="19" transform="translate(258.894 570)">Best Student</text><text font-family="DengXian,DengXian_MSFontService,sans-serif" font-weight="700" font-size="19" transform="translate(288.394 593)">Paper</text><text font-family="DengXian,DengXian_MSFontService,sans-serif" font-weight="700" font-size="19" transform="translate(245.98 615)">Competition (2)</text><g><text font-family="DengXian,DengXian_MSFontService,sans-serif" font-weight="700" font-size="24" transform="translate(517.561 697)">Coffee &amp; Tea Break</text></g><g><text font-family="DengXian,DengXian_MSFontService,sans-serif" font-weight="700" font-size="24" transform="translate(236.914 697)">15:30</text></g><text font-family="DengXian,DengXian_MSFontService,sans-serif" font-weight="700" font-size="24" transform="translate(296.08 697)">-</text><text font-family="DengXian,DengXian_MSFontService,sans-serif" font-weight="700" font-size="24" transform="translate(308.08 697)">15:45</text><g><text font-family="DengXian,DengXian_MSFontService,sans-serif" font-weight="700" font-size="24" transform="translate(517.561 736)">Session</text></g><text font-family="DengXian,DengXian_MSFontService,sans-serif" font-weight="700" font-size="24" transform="translate(605.394 736)">Ⅱ (S09</text><text font-family="DengXian,DengXian_MSFontService,sans-serif" font-weight="700" font-size="24" transform="translate(690.394 736)">–</text><text font-family="DengXian,DengXian_MSFontService,sans-serif" font-weight="700" font-size="24" transform="translate(709.061 736)">S16)</text><g><text font-family="DengXian,DengXian_MSFontService,sans-serif" font-weight="700" font-size="24" transform="translate(236.914 736)">15:45</text></g><text font-family="DengXian,DengXian_MSFontService,sans-serif" font-weight="700" font-size="24" transform="translate(296.08 736)">-</text><text font-family="DengXian,DengXian_MSFontService,sans-serif" font-weight="700" font-size="24" transform="translate(308.08 736)">17:45</text><text font-family="DengXian,DengXian_MSFontService,sans-serif" font-weight="700" font-size="21" transform="translate(977.647 773)">S12</text><text font-family="DengXian,DengXian_MSFontService,sans-serif" font-weight="700" font-size="21" transform="translate(806.98 773)">S11</text><text font-family="DengXian,DengXian_MSFontService,sans-serif" font-weight="700" font-size="21" transform="translate(636.314 773)">S10</text><text font-family="DengXian,DengXian_MSFontService,sans-serif" font-weight="700" font-size="21" transform="translate(465.647 773)">S09</text><text font-family="DengXian,DengXian_MSFontService,sans-serif" font-weight="700" font-size="21" transform="translate(294.397 773)">B03</text><text font-family="DengXian,DengXian_MSFontService,sans-serif" font-weight="700" font-size="19" transform="translate(940.064 820)">Evaluation of</text><g><text font-family="DengXian,DengXian_MSFontService,sans-serif" font-weight="700" font-size="19" transform="translate(922.73 843)">Wearable Robots</text></g><text font-family="DengXian,DengXian_MSFontService,sans-serif" font-weight="700" font-size="19" transform="translate(936.817 865)">for Assistance</text><text font-family="DengXian,DengXian_MSFontService,sans-serif" font-weight="700" font-size="19" transform="translate(979.484 888)">and</text><text font-family="DengXian,DengXian_MSFontService,sans-serif" font-weight="700" font-size="19" transform="translate(936.484 910)">Rehabilitation</text><text font-family="DengXian,DengXian_MSFontService,sans-serif" font-weight="700" font-size="19" transform="translate(780.394 808)">Innovative</text><text font-family="DengXian,DengXian_MSFontService,sans-serif" font-weight="700" font-size="19" transform="translate(777.147 831)">Design and</text><text font-family="DengXian,DengXian_MSFontService,sans-serif" font-weight="700" font-size="19" transform="translate(770.647 853)">Performance</text><text font-family="DengXian,DengXian_MSFontService,sans-serif" font-weight="700" font-size="19" transform="translate(769.394 876)">Evaluation of</text><text font-family="DengXian,DengXian_MSFontService,sans-serif" font-weight="700" font-size="19" transform="translate(798.727 898)">Robot</text><text font-family="DengXian,DengXian_MSFontService,sans-serif" font-weight="700" font-size="19" transform="translate(754.147 920)">Mechanisms (Ⅰ)</text><text font-family="DengXian,DengXian_MSFontService,sans-serif" font-weight="700" font-size="19" transform="translate(612.147 831)">Advanced</text><text font-family="DengXian,DengXian_MSFontService,sans-serif" font-weight="700" font-size="19" transform="translate(604.314 854)">Underwater</text><text font-family="DengXian,DengXian_MSFontService,sans-serif" font-weight="700" font-size="19" transform="translate(628.06 876)">Robot</text><text font-family="DengXian,DengXian_MSFontService,sans-serif" font-weight="700" font-size="19" transform="translate(597.98 899)">Technologies</text><g><text font-family="DengXian,DengXian_MSFontService,sans-serif" font-weight="700" font-size="19" transform="translate(412.564 842)">Medical Imaging</text></g><text font-family="DengXian,DengXian_MSFontService,sans-serif" font-weight="700" font-size="19" transform="translate(421.897 865)">for Biomedical</text><text font-family="DengXian,DengXian_MSFontService,sans-serif" font-weight="700" font-size="19" transform="translate(446.564 887)">Robotics</text><text font-family="DengXian,DengXian_MSFontService,sans-serif" font-weight="700" font-size="19" transform="translate(267.814 853)">Best Paper</text><text font-family="DengXian,DengXian_MSFontService,sans-serif" font-weight="700" font-size="19" transform="translate(245.98 876)">Competition (1)</text><text font-family="DengXian,DengXian_MSFontService,sans-serif" font-weight="700" font-size="21" transform="translate(977.647 955)">S16</text><text font-family="DengXian,DengXian_MSFontService,sans-serif" font-weight="700" font-size="21" transform="translate(806.98 955)">S15</text><text font-family="DengXian,DengXian_MSFontService,sans-serif" font-weight="700" font-size="21" transform="translate(636.314 955)">S14</text><text font-family="DengXian,DengXian_MSFontService,sans-serif" font-weight="700" font-size="21" transform="translate(465.647 955)">S13</text><text font-family="DengXian,DengXian_MSFontService,sans-serif" font-weight="700" font-size="21" transform="translate(294.397 955)">B04</text><text font-family="DengXian,DengXian_MSFontService,sans-serif" font-weight="700" font-size="19" transform="translate(964.564 991)">Pattern</text><g><text font-family="DengXian,DengXian_MSFontService,sans-serif" font-weight="700" font-size="19" transform="translate(925.897 1014)">Recognition and</text></g><g><text font-family="DengXian,DengXian_MSFontService,sans-serif" font-weight="700" font-size="19" transform="translate(919.897 1036)">Machine Learning</text></g><text font-family="DengXian,DengXian_MSFontService,sans-serif" font-weight="700" font-size="19" transform="translate(923.064 1059)">for Smart Robots</text><text font-family="DengXian,DengXian_MSFontService,sans-serif" font-weight="700" font-size="19" transform="translate(774.48 1003)">Human</text><text font-family="DengXian,DengXian_MSFontService,sans-serif" font-weight="700" font-size="19" transform="translate(835.98 1003)">-</text><text font-family="DengXian,DengXian_MSFontService,sans-serif" font-weight="700" font-size="19" transform="translate(845.314 1003)">like</text><text font-family="DengXian,DengXian_MSFontService,sans-serif" font-weight="700" font-size="19" transform="translate(755.48 1026)">Locomotion and</text><text font-family="DengXian,DengXian_MSFontService,sans-serif" font-weight="700" font-size="19" transform="translate(768.314 1048)">Manipulation</text><text font-family="DengXian,DengXian_MSFontService,sans-serif" font-weight="700" font-size="19" transform="translate(614.484 991)">Dielectric</text><text font-family="DengXian,DengXian_MSFontService,sans-serif" font-weight="700" font-size="19" transform="translate(612.317 1014)">Elastomer</text><g><text font-family="DengXian,DengXian_MSFontService,sans-serif" font-weight="700" font-size="19" transform="translate(578.73 1036)">Actuators for Soft</text></g><text font-family="DengXian,DengXian_MSFontService,sans-serif" font-weight="700" font-size="19" transform="translate(617.23 1059)">Robotics</text><text font-family="DengXian,DengXian_MSFontService,sans-serif" font-weight="700" font-size="19" transform="translate(415.647 1014)">3D Printing Soft</text><text font-family="DengXian,DengXian_MSFontService,sans-serif" font-weight="700" font-size="19" transform="translate(453.394 1037)">Robots</text><text font-family="DengXian,DengXian_MSFontService,sans-serif" font-weight="700" font-size="19" transform="translate(267.814 1014)">Best Paper</text><text font-family="DengXian,DengXian_MSFontService,sans-serif" font-weight="700" font-size="19" transform="translate(245.98 1037)">Competition (2)</text></g></svg>