<svg width="859" height="1159" xmlns="http://www.w3.org/2000/svg" xmlns:xlink="http://www.w3.org/1999/xlink" overflow="hidden"><g transform="translate(-225 3)"><path d="M227.314 0 1080.65 0 1080.65 38.9333 227.314 38.9333Z" fill="#4472C4" fill-rule="evenodd"/><path d="M227.314 38.9333 568.647 38.9333 568.647 77.8667 227.314 77.8667Z" fill="#CFD5EA" fill-rule="evenodd"/><path d="M568.647 38.9333 1080.65 38.9333 1080.65 77.8667 568.647 77.8667Z" fill="#CFD5EA" fill-rule="evenodd"/><path d="M227.314 77.8667 568.647 77.8667 568.647 116.8 227.314 116.8Z" fill="#E9EBF5" fill-rule="evenodd"/><path d="M568.647 77.8667 1080.65 77.8667 1080.65 116.8 568.647 116.8Z" fill="#E9EBF5" fill-rule="evenodd"/><path d="M227.314 116.8 568.647 116.8 568.647 155.733 227.314 155.733Z" fill="#CFD5EA" fill-rule="evenodd"/><path d="M568.647 116.8 1080.65 116.8 1080.65 155.733 568.647 155.733Z" fill="#CFD5EA" fill-rule="evenodd"/><path d="M227.314 155.733 568.647 155.733 568.647 194.667 227.314 194.667Z" fill="#E9EBF5" fill-rule="evenodd"/><path d="M568.647 155.733 1080.65 155.733 1080.65 194.667 568.647 194.667Z" fill="#E9EBF5" fill-rule="evenodd"/><path d="M227.314 194.667 568.647 194.667 568.647 233.6 227.314 233.6Z" fill="#CFD5EA" fill-rule="evenodd"/><path d="M568.647 194.667 1080.65 194.667 1080.65 233.6 568.647 233.6Z" fill="#CFD5EA" fill-rule="evenodd"/><path d="M227.314 233.6 568.647 233.6 568.647 272.533 227.314 272.533Z" fill="#E9EBF5" fill-rule="evenodd"/><path d="M568.647 233.6 1080.65 233.6 1080.65 272.533 568.647 272.533Z" fill="#E9EBF5" fill-rule="evenodd"/><path d="M227.314 272.533 397.98 272.533 397.98 307.733 227.314 307.733Z" fill="#CFD5EA" fill-rule="evenodd"/><path d="M397.98 272.533 568.647 272.533 568.647 307.733 397.98 307.733Z" fill="#CFD5EA" fill-rule="evenodd"/><path d="M568.647 272.533 739.314 272.533 739.314 307.733 568.647 307.733Z" fill="#CFD5EA" fill-rule="evenodd"/><path d="M739.314 272.533 909.98 272.533 909.98 307.733 739.314 307.733Z" fill="#CFD5EA" fill-rule="evenodd"/><path d="M909.98 272.533 1080.65 272.533 1080.65 307.733 909.98 307.733Z" fill="#CFD5EA" fill-rule="evenodd"/><path d="M227.314 307.733 397.98 307.733 397.98 429.333 227.314 429.333Z" fill="#E9EBF5" fill-rule="evenodd"/><path d="M397.98 307.733 568.647 307.733 568.647 429.333 397.98 429.333Z" fill="#E9EBF5" fill-rule="evenodd"/><path d="M568.647 307.733 739.314 307.733 739.314 429.333 568.647 429.333Z" fill="#E9EBF5" fill-rule="evenodd"/><path d="M739.314 307.733 909.98 307.733 909.98 429.333 739.314 429.333Z" fill="#E9EBF5" fill-rule="evenodd"/><path d="M909.98 307.733 1080.65 307.733 1080.65 429.333 909.98 429.333Z" fill="#E9EBF5" fill-rule="evenodd"/><path d="M227.314 429.333 397.98 429.333 397.98 464.533 227.314 464.533Z" fill="#CFD5EA" fill-rule="evenodd"/><path d="M397.98 429.333 568.647 429.333 568.647 464.533 397.98 464.533Z" fill="#CFD5EA" fill-rule="evenodd"/><path d="M568.647 429.333 739.314 429.333 739.314 464.533 568.647 464.533Z" fill="#CFD5EA" fill-rule="evenodd"/><path d="M739.314 429.333 909.98 429.333 909.98 464.533 739.314 464.533Z" fill="#CFD5EA" fill-rule="evenodd"/><path d="M909.98 429.333 1080.65 429.333 1080.65 464.533 909.98 464.533Z" fill="#CFD5EA" fill-rule="evenodd"/><path d="M227.314 464.533 397.98 464.533 397.98 630.933 227.314 630.933Z" fill="#E9EBF5" fill-rule="evenodd"/><path d="M397.98 464.533 568.647 464.533 568.647 630.933 397.98 630.933Z" fill="#E9EBF5" fill-rule="evenodd"/><path d="M568.647 464.533 739.314 464.533 739.314 630.933 568.647 630.933Z" fill="#E9EBF5" fill-rule="evenodd"/><path d="M739.314 464.533 909.98 464.533 909.98 630.933 739.314 630.933Z" fill="#E9EBF5" fill-rule="evenodd"/><path d="M909.98 464.533 1080.65 464.533 1080.65 630.933 909.98 630.933Z" fill="#E9EBF5" fill-rule="evenodd"/><path d="M227.314 630.933 568.647 630.933 568.647 669.867 227.314 669.867Z" fill="#CFD5EA" fill-rule="evenodd"/><path d="M568.647 630.933 1080.65 630.933 1080.65 669.867 568.647 669.867Z" fill="#CFD5EA" fill-rule="evenodd"/><path d="M227.314 669.867 568.647 669.867 568.647 708.8 227.314 708.8Z" fill="#E9EBF5" fill-rule="evenodd"/><path d="M568.647 669.867 1080.65 669.867 1080.65 708.8 568.647 708.8Z" fill="#E9EBF5" fill-rule="evenodd"/><path d="M227.314 708.8 568.647 708.8 568.647 747.733 227.314 747.733Z" fill="#CFD5EA" fill-rule="evenodd"/><path d="M568.647 708.8 1080.65 708.8 1080.65 747.733 568.647 747.733Z" fill="#CFD5EA" fill-rule="evenodd"/><path d="M227.314 747.733 397.98 747.733 397.98 786.667 227.314 786.667Z" fill="#E9EBF5" fill-rule="evenodd"/><path d="M397.98 747.733 568.647 747.733 568.647 786.667 397.98 786.667Z" fill="#E9EBF5" fill-rule="evenodd"/><path d="M568.647 747.733 739.314 747.733 739.314 786.667 568.647 786.667Z" fill="#E9EBF5" fill-rule="evenodd"/><path d="M739.314 747.733 909.98 747.733 909.98 786.667 739.314 786.667Z" fill="#E9EBF5" fill-rule="evenodd"/><path d="M909.98 747.733 1080.65 747.733 1080.65 786.667 909.98 786.667Z" fill="#E9EBF5" fill-rule="evenodd"/><path d="M227.314 786.667 397.98 786.667 397.98 930.667 227.314 930.667Z" fill="#CFD5EA" fill-rule="evenodd"/><path d="M397.98 786.667 568.647 786.667 568.647 930.667 397.98 930.667Z" fill="#CFD5EA" fill-rule="evenodd"/><path d="M568.647 786.667 739.314 786.667 739.314 930.667 568.647 930.667Z" fill="#CFD5EA" fill-rule="evenodd"/><path d="M739.314 786.667 909.98 786.667 909.98 930.667 739.314 930.667Z" fill="#CFD5EA" fill-rule="evenodd"/><path d="M909.98 786.667 1080.65 786.667 1080.65 930.667 909.98 930.667Z" fill="#CFD5EA" fill-rule="evenodd"/><path d="M227.314 930.667 397.98 930.667 397.98 969.6 227.314 969.6Z" fill="#E9EBF5" fill-rule="evenodd"/><path d="M397.98 930.667 568.647 930.667 568.647 969.6 397.98 969.6Z" fill="#E9EBF5" fill-rule="evenodd"/><path d="M568.647 930.667 739.314 930.667 739.314 969.6 568.647 969.6Z" fill="#E9EBF5" fill-rule="evenodd"/><path d="M739.314 930.667 909.98 930.667 909.98 969.6 739.314 969.6Z" fill="#E9EBF5" fill-rule="evenodd"/><path d="M909.98 930.667 1080.65 930.667 1080.65 969.6 909.98 969.6Z" fill="#E9EBF5" fill-rule="evenodd"/><path d="M227.314 969.6 397.98 969.6 397.98 1068.8 227.314 1068.8Z" fill="#CFD5EA" fill-rule="evenodd"/><path d="M397.98 969.6 568.647 969.6 568.647 1068.8 397.98 1068.8Z" fill="#CFD5EA" fill-rule="evenodd"/><path d="M568.647 969.6 739.314 969.6 739.314 1068.8 568.647 1068.8Z" fill="#CFD5EA" fill-rule="evenodd"/><path d="M739.314 969.6 909.98 969.6 909.98 1068.8 739.314 1068.8Z" fill="#CFD5EA" fill-rule="evenodd"/><path d="M909.98 969.6 1080.65 969.6 1080.65 1068.8 909.98 1068.8Z" fill="#CFD5EA" fill-rule="evenodd"/><path d="M227.314 1068.8 568.647 1068.8 568.647 1107.73 227.314 1107.73Z" fill="#E9EBF5" fill-rule="evenodd"/><path d="M568.647 1068.8 1080.65 1068.8 1080.65 1107.73 568.647 1107.73Z" fill="#E9EBF5" fill-rule="evenodd"/><path d="M227.314 1107.73 568.647 1107.73 568.647 1146.67 227.314 1146.67Z" fill="#CFD5EA" fill-rule="evenodd"/><path d="M568.647 1107.73 1080.65 1107.73 1080.65 1146.67 568.647 1146.67Z" fill="#CFD5EA" fill-rule="evenodd"/><path d="M397.98 270.533 397.98 632.933" stroke="#000000" stroke-width="4" stroke-linejoin="round" stroke-miterlimit="10" fill="none" fill-rule="evenodd"/><path d="M397.98 745.733 397.98 1070.8" stroke="#000000" stroke-width="4" stroke-linejoin="round" stroke-miterlimit="10" fill="none" fill-rule="evenodd"/><path d="M568.647 36.9333 568.647 272.533" stroke="#FFFFFF" stroke-width="1.33333" stroke-linejoin="round" stroke-miterlimit="10" fill="none" fill-rule="evenodd"/><path d="M568.647 272.533 568.647 630.933" stroke="#000000" stroke-width="1.33333" stroke-linejoin="round" stroke-miterlimit="10" fill="none" fill-rule="evenodd"/><path d="M568.647 630.933 568.647 747.733" stroke="#FFFFFF" stroke-width="1.33333" stroke-linejoin="round" stroke-miterlimit="10" fill="none" fill-rule="evenodd"/><path d="M568.647 747.733 568.647 1069.47" stroke="#000000" stroke-width="1.33333" stroke-linejoin="round" stroke-miterlimit="10" fill="none" fill-rule="evenodd"/><path d="M739.314 271.867 739.314 631.6" stroke="#000000" stroke-width="1.33333" stroke-linejoin="round" stroke-miterlimit="10" fill="none" fill-rule="evenodd"/><path d="M739.314 747.067 739.314 1069.47" stroke="#000000" stroke-width="1.33333" stroke-linejoin="round" stroke-miterlimit="10" fill="none" fill-rule="evenodd"/><path d="M909.98 271.867 909.98 631.6" stroke="#000000" stroke-width="1.33333" stroke-linejoin="round" stroke-miterlimit="10" fill="none" fill-rule="evenodd"/><path d="M909.98 747.067 909.98 1069.47" stroke="#000000" stroke-width="1.33333" stroke-linejoin="round" stroke-miterlimit="10" fill="none" fill-rule="evenodd"/><path d="M226.647 38.9333 1081.31 38.9333" stroke="#FFFFFF" stroke-width="4" stroke-linejoin="round" stroke-miterlimit="10" fill="none" fill-rule="evenodd"/><path d="M226.647 77.8667 1081.31 77.8667" stroke="#FFFFFF" stroke-width="1.33333" stroke-linejoin="round" stroke-miterlimit="10" fill="none" fill-rule="evenodd"/><path d="M226.647 116.8 1081.31 116.8" stroke="#FFFFFF" stroke-width="1.33333" stroke-linejoin="round" stroke-miterlimit="10" fill="none" fill-rule="evenodd"/><path d="M226.647 155.733 1081.31 155.733" stroke="#FFFFFF" stroke-width="1.33333" stroke-linejoin="round" stroke-miterlimit="10" fill="none" fill-rule="evenodd"/><path d="M226.647 194.667 1081.31 194.667" stroke="#FFFFFF" stroke-width="1.33333" stroke-linejoin="round" stroke-miterlimit="10" fill="none" fill-rule="evenodd"/><path d="M226.647 233.6 1081.31 233.6" stroke="#FFFFFF" stroke-width="1.33333" stroke-linejoin="round" stroke-miterlimit="10" fill="none" fill-rule="evenodd"/><path d="M225.314 272.533 399.98 272.533" stroke="#000000" stroke-width="4" stroke-linejoin="round" stroke-miterlimit="10" fill="none" fill-rule="evenodd"/><path d="M399.98 272.533 1081.31 272.533" stroke="#000000" stroke-width="1.33333" stroke-linejoin="round" stroke-miterlimit="10" fill="none" fill-rule="evenodd"/><path d="M225.314 307.733 399.98 307.733" stroke="#000000" stroke-width="4" stroke-linejoin="round" stroke-miterlimit="10" fill="none" fill-rule="evenodd"/><path d="M399.98 307.733 1081.31 307.733" stroke="#000000" stroke-width="1.33333" stroke-linejoin="round" stroke-miterlimit="10" fill="none" fill-rule="evenodd"/><path d="M225.314 429.333 399.98 429.333" stroke="#000000" stroke-width="4" stroke-linejoin="round" stroke-miterlimit="10" fill="none" fill-rule="evenodd"/><path d="M399.98 429.333 1081.31 429.333" stroke="#000000" stroke-width="1.33333" stroke-linejoin="round" stroke-miterlimit="10" fill="none" fill-rule="evenodd"/><path d="M225.314 464.533 399.98 464.533" stroke="#000000" stroke-width="4" stroke-linejoin="round" stroke-miterlimit="10" fill="none" fill-rule="evenodd"/><path d="M399.98 464.533 1081.31 464.533" stroke="#000000" stroke-width="1.33333" stroke-linejoin="round" stroke-miterlimit="10" fill="none" fill-rule="evenodd"/><path d="M225.314 630.933 399.98 630.933" stroke="#000000" stroke-width="4" stroke-linejoin="round" stroke-miterlimit="10" fill="none" fill-rule="evenodd"/><path d="M399.98 630.933 1081.31 630.933" stroke="#000000" stroke-width="1.33333" stroke-linejoin="round" stroke-miterlimit="10" fill="none" fill-rule="evenodd"/><path d="M226.647 669.867 1081.31 669.867" stroke="#FFFFFF" stroke-width="1.33333" stroke-linejoin="round" stroke-miterlimit="10" fill="none" fill-rule="evenodd"/><path d="M226.647 708.8 1081.31 708.8" stroke="#FFFFFF" stroke-width="1.33333" stroke-linejoin="round" stroke-miterlimit="10" fill="none" fill-rule="evenodd"/><path d="M225.314 747.733 399.98 747.733" stroke="#000000" stroke-width="4" stroke-linejoin="round" stroke-miterlimit="10" fill="none" fill-rule="evenodd"/><path d="M399.98 747.733 1081.31 747.733" stroke="#000000" stroke-width="1.33333" stroke-linejoin="round" stroke-miterlimit="10" fill="none" fill-rule="evenodd"/><path d="M225.314 786.667 399.98 786.667" stroke="#000000" stroke-width="4" stroke-linejoin="round" stroke-miterlimit="10" fill="none" fill-rule="evenodd"/><path d="M399.98 786.667 1081.31 786.667" stroke="#000000" stroke-width="1.33333" stroke-linejoin="round" stroke-miterlimit="10" fill="none" fill-rule="evenodd"/><path d="M225.314 930.667 399.98 930.667" stroke="#000000" stroke-width="4" stroke-linejoin="round" stroke-miterlimit="10" fill="none" fill-rule="evenodd"/><path d="M399.98 930.667 1081.31 930.667" stroke="#000000" stroke-width="1.33333" stroke-linejoin="round" stroke-miterlimit="10" fill="none" fill-rule="evenodd"/><path d="M225.314 969.6 399.98 969.6" stroke="#000000" stroke-width="4" stroke-linejoin="round" stroke-miterlimit="10" fill="none" fill-rule="evenodd"/><path d="M399.98 969.6 1081.31 969.6" stroke="#000000" stroke-width="1.33333" stroke-linejoin="round" stroke-miterlimit="10" fill="none" fill-rule="evenodd"/><path d="M225.314 1068.8 399.98 1068.8" stroke="#000000" stroke-width="4" stroke-linejoin="round" stroke-miterlimit="10" fill="none" fill-rule="evenodd"/><path d="M399.98 1068.8 1081.31 1068.8" stroke="#000000" stroke-width="1.33333" stroke-linejoin="round" stroke-miterlimit="10" fill="none" fill-rule="evenodd"/><path d="M227.314-0.666667 227.314 270.533" stroke="#FFFFFF" stroke-width="1.33333" stroke-linejoin="round" stroke-miterlimit="10" fill="none" fill-rule="evenodd"/><path d="M227.314 270.533 227.314 632.933" stroke="#000000" stroke-width="4" stroke-linejoin="round" stroke-miterlimit="10" fill="none" fill-rule="evenodd"/><path d="M227.314 632.933 227.314 745.733" stroke="#FFFFFF" stroke-width="1.33333" stroke-linejoin="round" stroke-miterlimit="10" fill="none" fill-rule="evenodd"/><path d="M227.314 745.733 227.314 1070.8" stroke="#000000" stroke-width="4" stroke-linejoin="round" stroke-miterlimit="10" fill="none" fill-rule="evenodd"/><path d="M1080.65-0.666667 1080.65 272.533" stroke="#FFFFFF" stroke-width="1.33333" stroke-linejoin="round" stroke-miterlimit="10" fill="none" fill-rule="evenodd"/><path d="M1080.65 272.533 1080.65 630.933" stroke="#000000" stroke-width="1.33333" stroke-linejoin="round" stroke-miterlimit="10" fill="none" fill-rule="evenodd"/><path d="M1080.65 630.933 1080.65 747.733" stroke="#FFFFFF" stroke-width="1.33333" stroke-linejoin="round" stroke-miterlimit="10" fill="none" fill-rule="evenodd"/><path d="M1080.65 747.733 1080.65 1069.47" stroke="#000000" stroke-width="1.33333" stroke-linejoin="round" stroke-miterlimit="10" fill="none" fill-rule="evenodd"/><path d="M226.647 0 1081.31 0" stroke="#FFFFFF" stroke-width="1.33333" stroke-linejoin="round" stroke-miterlimit="10" fill="none" fill-rule="evenodd"/><g><text fill="#FFFFFF" font-family="DengXian,DengXian_MSFontService,sans-serif" font-weight="700" font-size="24" transform="translate(236.914 27)">Day2/July 6,</text></g><text fill="#FFFFFF" font-family="DengXian,DengXian_MSFontService,sans-serif" font-weight="700" font-size="24" transform="translate(376.58 27)">2023</text><g><text font-family="DengXian,DengXian_MSFontService,sans-serif" font-weight="700" font-size="24" transform="translate(578.247 66)">Opening Ceremony</text></g><g><text font-family="DengXian,DengXian_MSFontService,sans-serif" font-weight="700" font-size="24" transform="translate(236.914 66)">08:30</text></g><text font-family="DengXian,DengXian_MSFontService,sans-serif" font-weight="700" font-size="24" transform="translate(296.08 66)">-</text><text font-family="DengXian,DengXian_MSFontService,sans-serif" font-weight="700" font-size="24" transform="translate(308.08 66)">08:40</text><g><text font-family="DengXian,DengXian_MSFontService,sans-serif" font-weight="700" font-size="24" transform="translate(578.247 105)">Plenary</text></g><text font-family="DengXian,DengXian_MSFontService,sans-serif" font-weight="700" font-size="24" transform="translate(665.58 105)">Speech</text><text font-family="DengXian,DengXian_MSFontService,sans-serif" font-weight="700" font-size="24" transform="translate(750.747 105)">I</text><g><text font-family="DengXian,DengXian_MSFontService,sans-serif" font-weight="700" font-size="24" transform="translate(236.914 105)">08:40</text></g><text font-family="DengXian,DengXian_MSFontService,sans-serif" font-weight="700" font-size="24" transform="translate(296.08 105)">-</text><text font-family="DengXian,DengXian_MSFontService,sans-serif" font-weight="700" font-size="24" transform="translate(308.08 105)">10:10</text><g><text font-family="DengXian,DengXian_MSFontService,sans-serif" font-weight="700" font-size="24" transform="translate(578.247 144)">Photograph &amp; Coffee &amp; Tea Break</text></g><g><text font-family="DengXian,DengXian_MSFontService,sans-serif" font-weight="700" font-size="24" transform="translate(236.914 144)">10:10</text></g><text font-family="DengXian,DengXian_MSFontService,sans-serif" font-weight="700" font-size="24" transform="translate(296.08 144)">-</text><text font-family="DengXian,DengXian_MSFontService,sans-serif" font-weight="700" font-size="24" transform="translate(308.08 144)">10:25</text><g><text font-family="DengXian,DengXian_MSFontService,sans-serif" font-weight="700" font-size="24" transform="translate(578.247 183)">Plenary</text></g><text font-family="DengXian,DengXian_MSFontService,sans-serif" font-weight="700" font-size="24" transform="translate(665.58 183)">Speech</text><text font-family="DengXian,DengXian_MSFontService,sans-serif" font-weight="700" font-size="24" transform="translate(750.747 183)">II</text><g><text font-family="DengXian,DengXian_MSFontService,sans-serif" font-weight="700" font-size="24" transform="translate(236.914 183)">10:25</text></g><text font-family="DengXian,DengXian_MSFontService,sans-serif" font-weight="700" font-size="24" transform="translate(296.08 183)">-</text><text font-family="DengXian,DengXian_MSFontService,sans-serif" font-weight="700" font-size="24" transform="translate(308.08 183)">11:55</text><g><text font-family="DengXian,DengXian_MSFontService,sans-serif" font-weight="700" font-size="24" transform="translate(578.247 221)">Lunch &amp; Break</text></g><g><text font-family="DengXian,DengXian_MSFontService,sans-serif" font-weight="700" font-size="24" transform="translate(236.914 221)">11:55</text></g><text font-family="DengXian,DengXian_MSFontService,sans-serif" font-weight="700" font-size="24" transform="translate(296.08 221)">-</text><text font-family="DengXian,DengXian_MSFontService,sans-serif" font-weight="700" font-size="24" transform="translate(308.08 221)">14:00</text><g><text font-family="DengXian,DengXian_MSFontService,sans-serif" font-weight="700" font-size="24" transform="translate(578.247 260)">Oral Presentation Ⅰ</text></g><text font-family="DengXian,DengXian_MSFontService,sans-serif" font-weight="700" font-size="24" transform="translate(805.414 260)">(S01</text><text font-family="DengXian,DengXian_MSFontService,sans-serif" font-weight="700" font-size="24" transform="translate(859.747 260)">-</text><text font-family="DengXian,DengXian_MSFontService,sans-serif" font-weight="700" font-size="24" transform="translate(878.414 260)">S08)</text><g><text font-family="DengXian,DengXian_MSFontService,sans-serif" font-weight="700" font-size="24" transform="translate(236.914 260)">14:00</text></g><text font-family="DengXian,DengXian_MSFontService,sans-serif" font-weight="700" font-size="24" transform="translate(296.08 260)">-</text><text font-family="DengXian,DengXian_MSFontService,sans-serif" font-weight="700" font-size="24" transform="translate(308.08 260)">15:45</text><text font-family="DengXian,DengXian_MSFontService,sans-serif" font-weight="700" font-size="21" transform="translate(977.647 297)">S04</text><text font-family="DengXian,DengXian_MSFontService,sans-serif" font-weight="700" font-size="21" transform="translate(806.98 297)">S03</text><text font-family="DengXian,DengXian_MSFontService,sans-serif" font-weight="700" font-size="21" transform="translate(636.314 297)">S02</text><text font-family="DengXian,DengXian_MSFontService,sans-serif" font-weight="700" font-size="21" transform="translate(465.647 297)">S01</text><text font-family="DengXian,DengXian_MSFontService,sans-serif" font-weight="700" font-size="21" transform="translate(280.314 297)">Best01</text><text font-family="DengXian,DengXian_MSFontService,sans-serif" font-weight="700" font-size="19" transform="translate(939.727 341)">Vision</text><text font-family="DengXian,DengXian_MSFontService,sans-serif" font-weight="700" font-size="19" transform="translate(991.394 341)">-</text><text font-family="DengXian,DengXian_MSFontService,sans-serif" font-weight="700" font-size="19" transform="translate(1000.73 341)">Based</text><text font-family="DengXian,DengXian_MSFontService,sans-serif" font-weight="700" font-size="19" transform="translate(936.06 364)">Human Robot</text><text font-family="DengXian,DengXian_MSFontService,sans-serif" font-weight="700" font-size="19" transform="translate(930.98 386)">Interaction and</text><text font-family="DengXian,DengXian_MSFontService,sans-serif" font-weight="700" font-size="19" transform="translate(947.06 409)">Application</text><g><text font-family="DengXian,DengXian_MSFontService,sans-serif" font-weight="700" font-size="19" transform="translate(753.064 341)">Intelligent Robot</text></g><text font-family="DengXian,DengXian_MSFontService,sans-serif" font-weight="700" font-size="19" transform="translate(768.65 364)">Perception in</text><text font-family="DengXian,DengXian_MSFontService,sans-serif" font-weight="700" font-size="19" transform="translate(784.23 386)">Unknown</text><text font-family="DengXian,DengXian_MSFontService,sans-serif" font-weight="700" font-size="19" transform="translate(766.817 409)">Environments</text><text font-family="DengXian,DengXian_MSFontService,sans-serif" font-weight="700" font-size="19" transform="translate(605.06 341)">Multimodal</text><text font-family="DengXian,DengXian_MSFontService,sans-serif" font-weight="700" font-size="19" transform="translate(597.98 364)">Collaborative</text><text font-family="DengXian,DengXian_MSFontService,sans-serif" font-weight="700" font-size="19" transform="translate(589.98 386)">Perception and</text><text font-family="DengXian,DengXian_MSFontService,sans-serif" font-weight="700" font-size="19" transform="translate(626.48 409)">Fusion</text><text font-family="DengXian,DengXian_MSFontService,sans-serif" font-weight="700" font-size="19" transform="translate(419.48 330)">Human</text><text font-family="DengXian,DengXian_MSFontService,sans-serif" font-weight="700" font-size="19" transform="translate(480.98 330)">-</text><text font-family="DengXian,DengXian_MSFontService,sans-serif" font-weight="700" font-size="19" transform="translate(490.314 330)">centric</text><g><text font-family="DengXian,DengXian_MSFontService,sans-serif" font-weight="700" font-size="19" transform="translate(412.48 353)">Technologies for</text></g><text font-family="DengXian,DengXian_MSFontService,sans-serif" font-weight="700" font-size="19" transform="translate(444.727 375)">Seamless</text><text font-family="DengXian,DengXian_MSFontService,sans-serif" font-weight="700" font-size="19" transform="translate(424.394 398)">Human</text><text font-family="DengXian,DengXian_MSFontService,sans-serif" font-weight="700" font-size="19" transform="translate(485.894 398)">-</text><text font-family="DengXian,DengXian_MSFontService,sans-serif" font-weight="700" font-size="19" transform="translate(495.227 398)">robot</text><text font-family="DengXian,DengXian_MSFontService,sans-serif" font-weight="700" font-size="19" transform="translate(426.06 420)">Collaboration</text><text font-family="DengXian,DengXian_MSFontService,sans-serif" font-weight="700" font-size="19" transform="translate(258.894 352)">Best Student</text><text font-family="DengXian,DengXian_MSFontService,sans-serif" font-weight="700" font-size="19" transform="translate(288.394 375)">Paper</text><text font-family="DengXian,DengXian_MSFontService,sans-serif" font-weight="700" font-size="19" transform="translate(241.814 397)">Competition (Ⅰ)</text><text font-family="DengXian,DengXian_MSFontService,sans-serif" font-weight="700" font-size="21" transform="translate(977.647 454)">S08</text><text font-family="DengXian,DengXian_MSFontService,sans-serif" font-weight="700" font-size="21" transform="translate(806.98 454)">S07</text><text font-family="DengXian,DengXian_MSFontService,sans-serif" font-weight="700" font-size="21" transform="translate(636.314 454)">S06</text><text font-family="DengXian,DengXian_MSFontService,sans-serif" font-weight="700" font-size="21" transform="translate(465.647 454)">S05</text><text font-family="DengXian,DengXian_MSFontService,sans-serif" font-weight="700" font-size="21" transform="translate(280.314 454)">Best02</text><text font-family="DengXian,DengXian_MSFontService,sans-serif" font-weight="700" font-size="19" transform="translate(931.314 509)">Perception and</text><text font-family="DengXian,DengXian_MSFontService,sans-serif" font-weight="700" font-size="19" transform="translate(927.56 532)">Manipulation of</text><text font-family="DengXian,DengXian_MSFontService,sans-serif" font-weight="700" font-size="19" transform="translate(926.98 554)">Dexterous Hand</text><text font-family="DengXian,DengXian_MSFontService,sans-serif" font-weight="700" font-size="19" transform="translate(936.147 577)">for Humanoid</text><text font-family="DengXian,DengXian_MSFontService,sans-serif" font-weight="700" font-size="19" transform="translate(969.394 599)">Robot</text><g><text font-family="DengXian,DengXian_MSFontService,sans-serif" font-weight="700" font-size="19" transform="translate(752.064 486)">Wearable Robots</text></g><text font-family="DengXian,DengXian_MSFontService,sans-serif" font-weight="700" font-size="19" transform="translate(763.897 509)">for Assistance,</text><text font-family="DengXian,DengXian_MSFontService,sans-serif" font-weight="700" font-size="19" transform="translate(763.817 531)">Augmentation</text><text font-family="DengXian,DengXian_MSFontService,sans-serif" font-weight="700" font-size="19" transform="translate(808.817 554)">and</text><g><text font-family="DengXian,DengXian_MSFontService,sans-serif" font-weight="700" font-size="19" transform="translate(754.397 576)">Rehabilitation of</text></g><text font-family="DengXian,DengXian_MSFontService,sans-serif" font-weight="700" font-size="19" transform="translate(793.897 598)">Human</text><text font-family="DengXian,DengXian_MSFontService,sans-serif" font-weight="700" font-size="19" transform="translate(774.65 621)">Movements</text><g><text font-family="DengXian,DengXian_MSFontService,sans-serif" font-weight="700" font-size="19" transform="translate(578.814 542)">Wearable Sensors</text></g><text font-family="DengXian,DengXian_MSFontService,sans-serif" font-weight="700" font-size="19" transform="translate(605.647 565)">and Robots</text><text font-family="DengXian,DengXian_MSFontService,sans-serif" font-weight="700" font-size="19" transform="translate(424.647 531)">Reliable AI on</text><g><text font-family="DengXian,DengXian_MSFontService,sans-serif" font-weight="700" font-size="19" transform="translate(413.814 554)">Machine Human</text></g><text font-family="DengXian,DengXian_MSFontService,sans-serif" font-weight="700" font-size="19" transform="translate(442.48 576)">Reactions</text><text font-family="DengXian,DengXian_MSFontService,sans-serif" font-weight="700" font-size="19" transform="translate(258.894 531)">Best Student</text><text font-family="DengXian,DengXian_MSFontService,sans-serif" font-weight="700" font-size="19" transform="translate(288.394 554)">Paper</text><text font-family="DengXian,DengXian_MSFontService,sans-serif" font-weight="700" font-size="19" transform="translate(241.814 576)">Competition (Ⅱ)</text><g><text font-family="DengXian,DengXian_MSFontService,sans-serif" font-weight="700" font-size="24" transform="translate(578.247 658)">Poster Presentation Ⅰ</text></g><g><text font-family="DengXian,DengXian_MSFontService,sans-serif" font-weight="700" font-size="24" transform="translate(236.914 658)">14:00</text></g><text font-family="DengXian,DengXian_MSFontService,sans-serif" font-weight="700" font-size="24" transform="translate(296.08 658)">-</text><text font-family="DengXian,DengXian_MSFontService,sans-serif" font-weight="700" font-size="24" transform="translate(308.08 658)">15:45</text><g><text font-family="DengXian,DengXian_MSFontService,sans-serif" font-weight="700" font-size="24" transform="translate(578.247 697)">Coffee &amp; Tea Break</text></g><g><text font-family="DengXian,DengXian_MSFontService,sans-serif" font-weight="700" font-size="24" transform="translate(236.914 697)">15:45</text></g><text font-family="DengXian,DengXian_MSFontService,sans-serif" font-weight="700" font-size="24" transform="translate(296.08 697)">-</text><text font-family="DengXian,DengXian_MSFontService,sans-serif" font-weight="700" font-size="24" transform="translate(308.08 697)">16:00</text><g><text font-family="DengXian,DengXian_MSFontService,sans-serif" font-weight="700" font-size="24" transform="translate(578.247 736)">Oral Presentation Ⅱ (S09</text></g><text font-family="DengXian,DengXian_MSFontService,sans-serif" font-weight="700" font-size="24" transform="translate(859.747 736)">–</text><text font-family="DengXian,DengXian_MSFontService,sans-serif" font-weight="700" font-size="24" transform="translate(878.414 736)">S16)</text><g><text font-family="DengXian,DengXian_MSFontService,sans-serif" font-weight="700" font-size="24" transform="translate(236.914 736)">16:00</text></g><text font-family="DengXian,DengXian_MSFontService,sans-serif" font-weight="700" font-size="24" transform="translate(296.08 736)">-</text><text font-family="DengXian,DengXian_MSFontService,sans-serif" font-weight="700" font-size="24" transform="translate(308.08 736)">17:45</text><text font-family="DengXian,DengXian_MSFontService,sans-serif" font-weight="700" font-size="21" transform="translate(977.647 773)">S12</text><text font-family="DengXian,DengXian_MSFontService,sans-serif" font-weight="700" font-size="21" transform="translate(806.98 773)">S11</text><text font-family="DengXian,DengXian_MSFontService,sans-serif" font-weight="700" font-size="21" transform="translate(636.314 773)">S10</text><text font-family="DengXian,DengXian_MSFontService,sans-serif" font-weight="700" font-size="21" transform="translate(465.647 773)">S09</text><text font-family="DengXian,DengXian_MSFontService,sans-serif" font-weight="700" font-size="21" transform="translate(280.314 773)">Best03</text><text font-family="DengXian,DengXian_MSFontService,sans-serif" font-weight="700" font-size="19" transform="translate(940.064 820)">Evaluation of</text><g><text font-family="DengXian,DengXian_MSFontService,sans-serif" font-weight="700" font-size="19" transform="translate(922.73 843)">Wearable Robots</text></g><text font-family="DengXian,DengXian_MSFontService,sans-serif" font-weight="700" font-size="19" transform="translate(936.817 865)">for Assistance</text><text font-family="DengXian,DengXian_MSFontService,sans-serif" font-weight="700" font-size="19" transform="translate(979.484 888)">and</text><text font-family="DengXian,DengXian_MSFontService,sans-serif" font-weight="700" font-size="19" transform="translate(936.484 910)">Rehabilitation</text><text font-family="DengXian,DengXian_MSFontService,sans-serif" font-weight="700" font-size="19" transform="translate(780.394 808)">Innovative</text><text font-family="DengXian,DengXian_MSFontService,sans-serif" font-weight="700" font-size="19" transform="translate(777.147 831)">Design and</text><text font-family="DengXian,DengXian_MSFontService,sans-serif" font-weight="700" font-size="19" transform="translate(770.647 853)">Performance</text><text font-family="DengXian,DengXian_MSFontService,sans-serif" font-weight="700" font-size="19" transform="translate(769.394 876)">Evaluation of</text><text font-family="DengXian,DengXian_MSFontService,sans-serif" font-weight="700" font-size="19" transform="translate(798.727 898)">Robot</text><text font-family="DengXian,DengXian_MSFontService,sans-serif" font-weight="700" font-size="19" transform="translate(754.147 920)">Mechanisms (Ⅰ)</text><text font-family="DengXian,DengXian_MSFontService,sans-serif" font-weight="700" font-size="19" transform="translate(612.147 831)">Advanced</text><text font-family="DengXian,DengXian_MSFontService,sans-serif" font-weight="700" font-size="19" transform="translate(604.314 854)">Underwater</text><text font-family="DengXian,DengXian_MSFontService,sans-serif" font-weight="700" font-size="19" transform="translate(628.06 876)">Robot</text><text font-family="DengXian,DengXian_MSFontService,sans-serif" font-weight="700" font-size="19" transform="translate(597.98 899)">Technologies</text><g><text font-family="DengXian,DengXian_MSFontService,sans-serif" font-weight="700" font-size="19" transform="translate(412.564 842)">Medical Imaging</text></g><text font-family="DengXian,DengXian_MSFontService,sans-serif" font-weight="700" font-size="19" transform="translate(421.897 865)">for Biomedical</text><text font-family="DengXian,DengXian_MSFontService,sans-serif" font-weight="700" font-size="19" transform="translate(446.564 887)">Robotics</text><text font-family="DengXian,DengXian_MSFontService,sans-serif" font-weight="700" font-size="19" transform="translate(267.814 853)">Best Paper</text><text font-family="DengXian,DengXian_MSFontService,sans-serif" font-weight="700" font-size="19" transform="translate(241.814 876)">Competition (Ⅰ)</text><text font-family="DengXian,DengXian_MSFontService,sans-serif" font-weight="700" font-size="21" transform="translate(977.647 955)">S16</text><text font-family="DengXian,DengXian_MSFontService,sans-serif" font-weight="700" font-size="21" transform="translate(806.98 955)">S15</text><text font-family="DengXian,DengXian_MSFontService,sans-serif" font-weight="700" font-size="21" transform="translate(636.314 955)">S14</text><text font-family="DengXian,DengXian_MSFontService,sans-serif" font-weight="700" font-size="21" transform="translate(465.647 955)">S13</text><text font-family="DengXian,DengXian_MSFontService,sans-serif" font-weight="700" font-size="21" transform="translate(280.314 955)">Best04</text><text font-family="DengXian,DengXian_MSFontService,sans-serif" font-weight="700" font-size="19" transform="translate(964.564 991)">Pattern</text><g><text font-family="DengXian,DengXian_MSFontService,sans-serif" font-weight="700" font-size="19" transform="translate(925.897 1014)">Recognition and</text></g><g><text font-family="DengXian,DengXian_MSFontService,sans-serif" font-weight="700" font-size="19" transform="translate(919.897 1036)">Machine Learning</text></g><text font-family="DengXian,DengXian_MSFontService,sans-serif" font-weight="700" font-size="19" transform="translate(923.064 1059)">for Smart Robots</text><text font-family="DengXian,DengXian_MSFontService,sans-serif" font-weight="700" font-size="19" transform="translate(774.48 1003)">Human</text><text font-family="DengXian,DengXian_MSFontService,sans-serif" font-weight="700" font-size="19" transform="translate(835.98 1003)">-</text><text font-family="DengXian,DengXian_MSFontService,sans-serif" font-weight="700" font-size="19" transform="translate(845.314 1003)">like</text><text font-family="DengXian,DengXian_MSFontService,sans-serif" font-weight="700" font-size="19" transform="translate(755.48 1026)">Locomotion and</text><text font-family="DengXian,DengXian_MSFontService,sans-serif" font-weight="700" font-size="19" transform="translate(768.314 1048)">Manipulation</text><text font-family="DengXian,DengXian_MSFontService,sans-serif" font-weight="700" font-size="19" transform="translate(614.484 991)">Dielectric</text><text font-family="DengXian,DengXian_MSFontService,sans-serif" font-weight="700" font-size="19" transform="translate(612.317 1014)">Elastomer</text><g><text font-family="DengXian,DengXian_MSFontService,sans-serif" font-weight="700" font-size="19" transform="translate(578.73 1036)">Actuators for Soft</text></g><text font-family="DengXian,DengXian_MSFontService,sans-serif" font-weight="700" font-size="19" transform="translate(617.23 1059)">Robotics</text><text font-family="DengXian,DengXian_MSFontService,sans-serif" font-weight="700" font-size="19" transform="translate(415.647 1014)">3D Printing Soft</text><text font-family="DengXian,DengXian_MSFontService,sans-serif" font-weight="700" font-size="19" transform="translate(453.394 1037)">Robots</text><text font-family="DengXian,DengXian_MSFontService,sans-serif" font-weight="700" font-size="19" transform="translate(267.814 1014)">Best Paper</text><text font-family="DengXian,DengXian_MSFontService,sans-serif" font-weight="700" font-size="19" transform="translate(241.814 1037)">Competition (Ⅱ)</text><g><text font-family="DengXian,DengXian_MSFontService,sans-serif" font-weight="700" font-size="24" transform="translate(578.247 1096)">Poster Presentation Ⅱ</text></g><g><text font-family="DengXian,DengXian_MSFontService,sans-serif" font-weight="700" font-size="24" transform="translate(236.914 1096)">16:00</text></g><text font-family="DengXian,DengXian_MSFontService,sans-serif" font-weight="700" font-size="24" transform="translate(296.08 1096)">-</text><text font-family="DengXian,DengXian_MSFontService,sans-serif" font-weight="700" font-size="24" transform="translate(308.08 1096)">17:45</text><g><text font-family="DengXian,DengXian_MSFontService,sans-serif" font-weight="700" font-size="24" transform="translate(578.247 1135)">Dinner &amp; Awards Presentation</text></g><g><text font-family="DengXian,DengXian_MSFontService,sans-serif" font-weight="700" font-size="24" transform="translate(236.914 1135)">18:30~</text></g></g></svg>