<svg width="858" height="945" xmlns="http://www.w3.org/2000/svg" xmlns:xlink="http://www.w3.org/1999/xlink" overflow="hidden"><defs><clipPath id="clip0"><rect x="226" y="-3" width="858" height="945"/></clipPath><clipPath id="clip1"><rect x="227" y="-82" width="854" height="202"/></clipPath><clipPath id="clip2"><rect x="511" y="-43" width="570" height="202"/></clipPath><clipPath id="clip3"><rect x="227" y="-43" width="285" height="202"/></clipPath><clipPath id="clip4"><rect x="511" y="-4" width="570" height="202"/></clipPath><clipPath id="clip5"><rect x="227" y="-4" width="285" height="202"/></clipPath><clipPath id="clip6"><rect x="511" y="35" width="570" height="202"/></clipPath><clipPath id="clip7"><rect x="227" y="35" width="285" height="202"/></clipPath><clipPath id="clip8"><rect x="511" y="74" width="570" height="202"/></clipPath><clipPath id="clip9"><rect x="227" y="74" width="285" height="202"/></clipPath><clipPath id="clip10"><rect x="511" y="113" width="570" height="202"/></clipPath><clipPath id="clip11"><rect x="227" y="113" width="285" height="202"/></clipPath><clipPath id="clip12"><rect x="511" y="152" width="570" height="202"/></clipPath><clipPath id="clip13"><rect x="227" y="152" width="285" height="202"/></clipPath><clipPath id="clip14"><rect x="511" y="190" width="570" height="203"/></clipPath><clipPath id="clip15"><rect x="227" y="190" width="285" height="203"/></clipPath><clipPath id="clip16"><rect x="867" y="161" width="214" height="471"/></clipPath><clipPath id="clip17"><rect x="440" y="385" width="214" height="314"/></clipPath><clipPath id="clip18"><rect x="511" y="521" width="570" height="202"/></clipPath><clipPath id="clip19"><rect x="227" y="521" width="285" height="202"/></clipPath><clipPath id="clip20"><rect x="511" y="560" width="570" height="202"/></clipPath><clipPath id="clip21"><rect x="227" y="560" width="285" height="202"/></clipPath><clipPath id="clip22"><rect x="653" y="455" width="215" height="628"/></clipPath><clipPath id="clip23"><rect x="440" y="612" width="214" height="314"/></clipPath><clipPath id="clip24"><rect x="867" y="660" width="214" height="472"/></clipPath></defs><g clip-path="url(#clip0)" transform="translate(-226 3)"><path d="M227.314 0 1080.65 0 1080.65 38.9333 227.314 38.9333Z" fill="#4472C4" fill-rule="evenodd"/><path d="M227.314 38.9333 511.758 38.9333 511.758 77.8667 227.314 77.8667Z" fill="#CFD5EA" fill-rule="evenodd"/><path d="M511.758 38.9333 1080.65 38.9333 1080.65 77.8667 511.758 77.8667Z" fill="#CFD5EA" fill-rule="evenodd"/><path d="M227.314 77.8667 511.758 77.8667 511.758 116.8 227.314 116.8Z" fill="#E9EBF5" fill-rule="evenodd"/><path d="M511.758 77.8667 1080.65 77.8667 1080.65 116.8 511.758 116.8Z" fill="#E9EBF5" fill-rule="evenodd"/><path d="M227.314 116.8 511.758 116.8 511.758 155.733 227.314 155.733Z" fill="#CFD5EA" fill-rule="evenodd"/><path d="M511.758 116.8 1080.65 116.8 1080.65 155.733 511.758 155.733Z" fill="#CFD5EA" fill-rule="evenodd"/><path d="M227.314 155.733 511.758 155.733 511.758 194.667 227.314 194.667Z" fill="#E9EBF5" fill-rule="evenodd"/><path d="M511.758 155.733 1080.65 155.733 1080.65 194.667 511.758 194.667Z" fill="#E9EBF5" fill-rule="evenodd"/><path d="M227.314 194.667 511.758 194.667 511.758 233.6 227.314 233.6Z" fill="#CFD5EA" fill-rule="evenodd"/><path d="M511.758 194.667 1080.65 194.667 1080.65 233.6 511.758 233.6Z" fill="#CFD5EA" fill-rule="evenodd"/><path d="M227.314 233.6 511.758 233.6 511.758 272.533 227.314 272.533Z" fill="#E9EBF5" fill-rule="evenodd"/><path d="M511.758 233.6 1080.65 233.6 1080.65 272.533 511.758 272.533Z" fill="#E9EBF5" fill-rule="evenodd"/><path d="M227.314 272.533 511.758 272.533 511.758 311.467 227.314 311.467Z" fill="#CFD5EA" fill-rule="evenodd"/><path d="M511.758 272.533 1080.65 272.533 1080.65 311.467 511.758 311.467Z" fill="#CFD5EA" fill-rule="evenodd"/><path d="M227.314 311.467 440.647 311.467 440.647 346.667 227.314 346.667Z" fill="#E9EBF5" fill-rule="evenodd"/><path d="M440.647 311.467 653.98 311.467 653.98 346.667 440.647 346.667Z" fill="#E9EBF5" fill-rule="evenodd"/><path d="M653.98 311.467 867.314 311.467 867.314 346.667 653.98 346.667Z" fill="#E9EBF5" fill-rule="evenodd"/><path d="M867.314 311.467 1080.65 311.467 1080.65 346.667 867.314 346.667Z" fill="#E9EBF5" fill-rule="evenodd"/><path d="M227.314 346.667 440.647 346.667 440.647 445.867 227.314 445.867Z" fill="#CFD5EA" fill-rule="evenodd"/><path d="M440.647 346.667 653.98 346.667 653.98 445.867 440.647 445.867Z" fill="#CFD5EA" fill-rule="evenodd"/><path d="M653.98 346.667 867.314 346.667 867.314 445.867 653.98 445.867Z" fill="#CFD5EA" fill-rule="evenodd"/><path d="M867.314 346.667 1080.65 346.667 1080.65 445.867 867.314 445.867Z" fill="#CFD5EA" fill-rule="evenodd"/><path d="M227.314 445.867 440.647 445.867 440.647 481.067 227.314 481.067Z" fill="#E9EBF5" fill-rule="evenodd"/><path d="M440.647 445.867 653.98 445.867 653.98 481.067 440.647 481.067Z" fill="#E9EBF5" fill-rule="evenodd"/><path d="M653.98 445.867 867.314 445.867 867.314 481.067 653.98 481.067Z" fill="#E9EBF5" fill-rule="evenodd"/><path d="M867.314 445.867 1080.65 445.867 1080.65 481.067 867.314 481.067Z" fill="#E9EBF5" fill-rule="evenodd"/><path d="M227.314 481.067 440.647 481.067 440.647 602.667 227.314 602.667Z" fill="#CFD5EA" fill-rule="evenodd"/><path d="M440.647 481.067 653.98 481.067 653.98 602.667 440.647 602.667Z" fill="#CFD5EA" fill-rule="evenodd"/><path d="M653.98 481.067 867.314 481.067 867.314 602.667 653.98 602.667Z" fill="#CFD5EA" fill-rule="evenodd"/><path d="M867.314 481.067 1080.65 481.067 1080.65 602.667 867.314 602.667Z" fill="#CFD5EA" fill-rule="evenodd"/><path d="M227.314 602.667 511.758 602.667 511.758 641.6 227.314 641.6Z" fill="#E9EBF5" fill-rule="evenodd"/><path d="M511.758 602.667 1080.65 602.667 1080.65 641.6 511.758 641.6Z" fill="#E9EBF5" fill-rule="evenodd"/><path d="M227.314 641.6 511.758 641.6 511.758 680.533 227.314 680.533Z" fill="#CFD5EA" fill-rule="evenodd"/><path d="M511.758 641.6 1080.65 641.6 1080.65 680.533 511.758 680.533Z" fill="#CFD5EA" fill-rule="evenodd"/><path d="M227.314 680.533 440.647 680.533 440.647 719.467 227.314 719.467Z" fill="#E9EBF5" fill-rule="evenodd"/><path d="M440.647 680.533 653.98 680.533 653.98 719.467 440.647 719.467Z" fill="#E9EBF5" fill-rule="evenodd"/><path d="M653.98 680.533 867.314 680.533 867.314 719.467 653.98 719.467Z" fill="#E9EBF5" fill-rule="evenodd"/><path d="M867.314 680.533 1080.65 680.533 1080.65 719.467 867.314 719.467Z" fill="#E9EBF5" fill-rule="evenodd"/><path d="M227.314 719.467 440.647 719.467 440.647 818.667 227.314 818.667Z" fill="#CFD5EA" fill-rule="evenodd"/><path d="M440.647 719.467 653.98 719.467 653.98 818.667 440.647 818.667Z" fill="#CFD5EA" fill-rule="evenodd"/><path d="M653.98 719.467 867.314 719.467 867.314 818.667 653.98 818.667Z" fill="#CFD5EA" fill-rule="evenodd"/><path d="M867.314 719.467 1080.65 719.467 1080.65 818.667 867.314 818.667Z" fill="#CFD5EA" fill-rule="evenodd"/><path d="M227.314 818.667 440.647 818.667 440.647 857.6 227.314 857.6Z" fill="#E9EBF5" fill-rule="evenodd"/><path d="M440.647 818.667 653.98 818.667 653.98 857.6 440.647 857.6Z" fill="#E9EBF5" fill-rule="evenodd"/><path d="M653.98 818.667 867.314 818.667 867.314 857.6 653.98 857.6Z" fill="#E9EBF5" fill-rule="evenodd"/><path d="M867.314 818.667 1080.65 818.667 1080.65 857.6 867.314 857.6Z" fill="#E9EBF5" fill-rule="evenodd"/><path d="M227.314 857.6 440.647 857.6 440.647 934.4 227.314 934.4Z" fill="#CFD5EA" fill-rule="evenodd"/><path d="M440.647 857.6 653.98 857.6 653.98 934.4 440.647 934.4Z" fill="#CFD5EA" fill-rule="evenodd"/><path d="M653.98 857.6 867.314 857.6 867.314 934.4 653.98 934.4Z" fill="#CFD5EA" fill-rule="evenodd"/><path d="M867.314 857.6 1080.65 857.6 1080.65 934.4 867.314 934.4Z" fill="#CFD5EA" fill-rule="evenodd"/><path d="M440.647 310.8 440.647 603.333" stroke="#000000" stroke-width="1.33333" stroke-linejoin="round" stroke-miterlimit="10" fill="none" fill-rule="evenodd"/><path d="M440.647 679.867 440.647 935.067" stroke="#000000" stroke-width="1.33333" stroke-linejoin="round" stroke-miterlimit="10" fill="none" fill-rule="evenodd"/><path d="M511.758 36.9333 511.758 312.133" stroke="#FFFFFF" stroke-width="1.33333" stroke-linejoin="round" stroke-miterlimit="10" fill="none" fill-rule="evenodd"/><path d="M511.758 602 511.758 681.2" stroke="#FFFFFF" stroke-width="1.33333" stroke-linejoin="round" stroke-miterlimit="10" fill="none" fill-rule="evenodd"/><path d="M653.98 310.8 653.98 603.333" stroke="#000000" stroke-width="1.33333" stroke-linejoin="round" stroke-miterlimit="10" fill="none" fill-rule="evenodd"/><path d="M653.98 679.867 653.98 935.067" stroke="#000000" stroke-width="1.33333" stroke-linejoin="round" stroke-miterlimit="10" fill="none" fill-rule="evenodd"/><path d="M867.314 310.8 867.314 603.333" stroke="#000000" stroke-width="1.33333" stroke-linejoin="round" stroke-miterlimit="10" fill="none" fill-rule="evenodd"/><path d="M867.314 679.867 867.314 935.067" stroke="#000000" stroke-width="1.33333" stroke-linejoin="round" stroke-miterlimit="10" fill="none" fill-rule="evenodd"/><path d="M226.647 38.9333 1081.31 38.9333" stroke="#FFFFFF" stroke-width="4" stroke-linejoin="round" stroke-miterlimit="10" fill="none" fill-rule="evenodd"/><path d="M226.647 77.8667 1081.31 77.8667" stroke="#FFFFFF" stroke-width="1.33333" stroke-linejoin="round" stroke-miterlimit="10" fill="none" fill-rule="evenodd"/><path d="M226.647 116.8 1081.31 116.8" stroke="#FFFFFF" stroke-width="1.33333" stroke-linejoin="round" stroke-miterlimit="10" fill="none" fill-rule="evenodd"/><path d="M226.647 155.733 1081.31 155.733" stroke="#FFFFFF" stroke-width="1.33333" stroke-linejoin="round" stroke-miterlimit="10" fill="none" fill-rule="evenodd"/><path d="M226.647 194.667 1081.31 194.667" stroke="#FFFFFF" stroke-width="1.33333" stroke-linejoin="round" stroke-miterlimit="10" fill="none" fill-rule="evenodd"/><path d="M226.647 233.6 1081.31 233.6" stroke="#FFFFFF" stroke-width="1.33333" stroke-linejoin="round" stroke-miterlimit="10" fill="none" fill-rule="evenodd"/><path d="M226.647 272.533 1081.31 272.533" stroke="#FFFFFF" stroke-width="1.33333" stroke-linejoin="round" stroke-miterlimit="10" fill="none" fill-rule="evenodd"/><path d="M226.647 311.467 1081.31 311.467" stroke="#000000" stroke-width="1.33333" stroke-linejoin="round" stroke-miterlimit="10" fill="none" fill-rule="evenodd"/><path d="M226.647 346.667 1081.31 346.667" stroke="#000000" stroke-width="1.33333" stroke-linejoin="round" stroke-miterlimit="10" fill="none" fill-rule="evenodd"/><path d="M226.647 445.867 1081.31 445.867" stroke="#000000" stroke-width="1.33333" stroke-linejoin="round" stroke-miterlimit="10" fill="none" fill-rule="evenodd"/><path d="M226.647 481.067 1081.31 481.067" stroke="#000000" stroke-width="1.33333" stroke-linejoin="round" stroke-miterlimit="10" fill="none" fill-rule="evenodd"/><path d="M226.647 602.667 1081.31 602.667" stroke="#000000" stroke-width="1.33333" stroke-linejoin="round" stroke-miterlimit="10" fill="none" fill-rule="evenodd"/><path d="M226.647 641.6 1081.31 641.6" stroke="#FFFFFF" stroke-width="1.33333" stroke-linejoin="round" stroke-miterlimit="10" fill="none" fill-rule="evenodd"/><path d="M226.647 680.533 1081.31 680.533" stroke="#000000" stroke-width="1.33333" stroke-linejoin="round" stroke-miterlimit="10" fill="none" fill-rule="evenodd"/><path d="M226.647 719.467 1081.31 719.467" stroke="#000000" stroke-width="1.33333" stroke-linejoin="round" stroke-miterlimit="10" fill="none" fill-rule="evenodd"/><path d="M226.647 818.667 1081.31 818.667" stroke="#000000" stroke-width="1.33333" stroke-linejoin="round" stroke-miterlimit="10" fill="none" fill-rule="evenodd"/><path d="M226.647 857.6 1081.31 857.6" stroke="#000000" stroke-width="1.33333" stroke-linejoin="round" stroke-miterlimit="10" fill="none" fill-rule="evenodd"/><path d="M227.314-0.666667 227.314 311.467" stroke="#FFFFFF" stroke-width="1.33333" stroke-linejoin="round" stroke-miterlimit="10" fill="none" fill-rule="evenodd"/><path d="M227.314 311.467 227.314 602.667" stroke="#000000" stroke-width="1.33333" stroke-linejoin="round" stroke-miterlimit="10" fill="none" fill-rule="evenodd"/><path d="M227.314 602.667 227.314 680.533" stroke="#FFFFFF" stroke-width="1.33333" stroke-linejoin="round" stroke-miterlimit="10" fill="none" fill-rule="evenodd"/><path d="M227.314 680.533 227.314 935.067" stroke="#000000" stroke-width="1.33333" stroke-linejoin="round" stroke-miterlimit="10" fill="none" fill-rule="evenodd"/><path d="M1080.65-0.666667 1080.65 311.467" stroke="#FFFFFF" stroke-width="1.33333" stroke-linejoin="round" stroke-miterlimit="10" fill="none" fill-rule="evenodd"/><path d="M1080.65 311.467 1080.65 602.667" stroke="#000000" stroke-width="1.33333" stroke-linejoin="round" stroke-miterlimit="10" fill="none" fill-rule="evenodd"/><path d="M1080.65 602.667 1080.65 680.533" stroke="#FFFFFF" stroke-width="1.33333" stroke-linejoin="round" stroke-miterlimit="10" fill="none" fill-rule="evenodd"/><path d="M1080.65 680.533 1080.65 935.067" stroke="#000000" stroke-width="1.33333" stroke-linejoin="round" stroke-miterlimit="10" fill="none" fill-rule="evenodd"/><path d="M226.647 0 1081.31 0" stroke="#FFFFFF" stroke-width="1.33333" stroke-linejoin="round" stroke-miterlimit="10" fill="none" fill-rule="evenodd"/><path d="M226.647 934.4 1081.31 934.4" stroke="#000000" stroke-width="1.33333" stroke-linejoin="round" stroke-miterlimit="10" fill="none" fill-rule="evenodd"/><g clip-path="url(#clip1)"><text fill="#FFFFFF" font-family="DengXian,DengXian_MSFontService,sans-serif" font-weight="700" font-size="24" transform="translate(236.914 27)">Day2/July 6,</text></g><text fill="#FFFFFF" font-family="DengXian,DengXian_MSFontService,sans-serif" font-weight="700" font-size="24" transform="translate(376.58 27)">2023</text><g clip-path="url(#clip2)"><text font-family="DengXian,DengXian_MSFontService,sans-serif" font-weight="700" font-size="24" transform="translate(521.358 66)">Opening Ceremony</text></g><g clip-path="url(#clip3)"><text font-family="DengXian,DengXian_MSFontService,sans-serif" font-weight="700" font-size="24" transform="translate(236.914 66)">08:30</text></g><text font-family="DengXian,DengXian_MSFontService,sans-serif" font-weight="700" font-size="24" transform="translate(296.08 66)">-</text><text font-family="DengXian,DengXian_MSFontService,sans-serif" font-weight="700" font-size="24" transform="translate(308.08 66)">08:50</text><g clip-path="url(#clip4)"><text font-family="DengXian,DengXian_MSFontService,sans-serif" font-weight="700" font-size="24" transform="translate(521.358 105)">Plenary Speech</text></g><g clip-path="url(#clip5)"><text font-family="DengXian,DengXian_MSFontService,sans-serif" font-weight="700" font-size="24" transform="translate(236.914 105)">08:50</text></g><text font-family="DengXian,DengXian_MSFontService,sans-serif" font-weight="700" font-size="24" transform="translate(296.08 105)">-</text><text font-family="DengXian,DengXian_MSFontService,sans-serif" font-weight="700" font-size="24" transform="translate(308.08 105)">10:10</text><g clip-path="url(#clip6)"><text font-family="DengXian,DengXian_MSFontService,sans-serif" font-weight="700" font-size="24" transform="translate(521.358 144)">Photograph &amp; Coffee &amp; Tea Break</text></g><g clip-path="url(#clip7)"><text font-family="DengXian,DengXian_MSFontService,sans-serif" font-weight="700" font-size="24" transform="translate(236.914 144)">10:10</text></g><text font-family="DengXian,DengXian_MSFontService,sans-serif" font-weight="700" font-size="24" transform="translate(296.08 144)">-</text><text font-family="DengXian,DengXian_MSFontService,sans-serif" font-weight="700" font-size="24" transform="translate(308.08 144)">10:35</text><g clip-path="url(#clip8)"><text font-family="DengXian,DengXian_MSFontService,sans-serif" font-weight="700" font-size="24" transform="translate(521.358 183)">Plenary Speech</text></g><g clip-path="url(#clip9)"><text font-family="DengXian,DengXian_MSFontService,sans-serif" font-weight="700" font-size="24" transform="translate(236.914 183)">10:35</text></g><text font-family="DengXian,DengXian_MSFontService,sans-serif" font-weight="700" font-size="24" transform="translate(296.08 183)">-</text><text font-family="DengXian,DengXian_MSFontService,sans-serif" font-weight="700" font-size="24" transform="translate(308.08 183)">11:15</text><g clip-path="url(#clip10)"><text font-family="DengXian,DengXian_MSFontService,sans-serif" font-weight="700" font-size="24" transform="translate(521.358 221)">Keynote Speech</text></g><g clip-path="url(#clip11)"><text font-family="DengXian,DengXian_MSFontService,sans-serif" font-weight="700" font-size="24" transform="translate(236.914 221)">11:15</text></g><text font-family="DengXian,DengXian_MSFontService,sans-serif" font-weight="700" font-size="24" transform="translate(296.08 221)">-</text><text font-family="DengXian,DengXian_MSFontService,sans-serif" font-weight="700" font-size="24" transform="translate(308.08 221)">12:15</text><g clip-path="url(#clip12)"><text font-family="DengXian,DengXian_MSFontService,sans-serif" font-weight="700" font-size="24" transform="translate(521.358 260)">Lunch &amp; Break</text></g><g clip-path="url(#clip13)"><text font-family="DengXian,DengXian_MSFontService,sans-serif" font-weight="700" font-size="24" transform="translate(236.914 260)">12:15</text></g><text font-family="DengXian,DengXian_MSFontService,sans-serif" font-weight="700" font-size="24" transform="translate(296.08 260)">-</text><text font-family="DengXian,DengXian_MSFontService,sans-serif" font-weight="700" font-size="24" transform="translate(308.08 260)">13:30</text><g clip-path="url(#clip14)"><text font-family="DengXian,DengXian_MSFontService,sans-serif" font-weight="700" font-size="24" transform="translate(521.358 299)">Session</text></g><text font-family="DengXian,DengXian_MSFontService,sans-serif" font-weight="700" font-size="24" transform="translate(609.191 299)">Ⅰ (S01</text><text font-family="DengXian,DengXian_MSFontService,sans-serif" font-weight="700" font-size="24" transform="translate(694.191 299)">-</text><text font-family="DengXian,DengXian_MSFontService,sans-serif" font-weight="700" font-size="24" transform="translate(712.858 299)">S08)</text><g clip-path="url(#clip15)"><text font-family="DengXian,DengXian_MSFontService,sans-serif" font-weight="700" font-size="24" transform="translate(236.914 299)">13:30</text></g><text font-family="DengXian,DengXian_MSFontService,sans-serif" font-weight="700" font-size="24" transform="translate(296.08 299)">-</text><text font-family="DengXian,DengXian_MSFontService,sans-serif" font-weight="700" font-size="24" transform="translate(308.08 299)">15:30</text><text font-family="DengXian,DengXian_MSFontService,sans-serif" font-weight="700" font-size="21" transform="translate(956.314 336)">S04</text><text font-family="DengXian,DengXian_MSFontService,sans-serif" font-weight="700" font-size="21" transform="translate(742.98 336)">S03</text><text font-family="DengXian,DengXian_MSFontService,sans-serif" font-weight="700" font-size="21" transform="translate(529.647 336)">S02</text><text font-family="DengXian,DengXian_MSFontService,sans-serif" font-weight="700" font-size="21" transform="translate(316.314 336)">S01</text><text font-family="DengXian,DengXian_MSFontService,sans-serif" font-weight="700" font-size="19" transform="translate(885.06 380)">Vision</text><text font-family="DengXian,DengXian_MSFontService,sans-serif" font-weight="700" font-size="19" transform="translate(936.727 380)">-</text><text font-family="DengXian,DengXian_MSFontService,sans-serif" font-weight="700" font-size="19" transform="translate(946.06 380)">Based Human</text><g clip-path="url(#clip16)"><text font-family="DengXian,DengXian_MSFontService,sans-serif" font-weight="700" font-size="19" transform="translate(881.147 403)">Robot Interaction and</text></g><text font-family="DengXian,DengXian_MSFontService,sans-serif" font-weight="700" font-size="19" transform="translate(925.727 425)">Application</text><text font-family="DengXian,DengXian_MSFontService,sans-serif" font-weight="700" font-size="19" transform="translate(689.064 368)">Intelligent Robot</text><text font-family="DengXian,DengXian_MSFontService,sans-serif" font-weight="700" font-size="19" transform="translate(704.65 391)">Perception in</text><text font-family="DengXian,DengXian_MSFontService,sans-serif" font-weight="700" font-size="19" transform="translate(720.23 413)">Unknown</text><text font-family="DengXian,DengXian_MSFontService,sans-serif" font-weight="700" font-size="19" transform="translate(702.817 436)">Environments</text><text font-family="DengXian,DengXian_MSFontService,sans-serif" font-weight="700" font-size="19" transform="translate(498.397 380)">Multimodal</text><text font-family="DengXian,DengXian_MSFontService,sans-serif" font-weight="700" font-size="19" transform="translate(491.317 403)">Collaborative</text><text font-family="DengXian,DengXian_MSFontService,sans-serif" font-weight="700" font-size="19" transform="translate(453.23 425)">Perception and Fusion</text><text font-family="DengXian,DengXian_MSFontService,sans-serif" font-weight="700" font-size="19" transform="translate(270.147 368)">Human</text><text font-family="DengXian,DengXian_MSFontService,sans-serif" font-weight="700" font-size="19" transform="translate(331.647 368)">-</text><text font-family="DengXian,DengXian_MSFontService,sans-serif" font-weight="700" font-size="19" transform="translate(340.98 368)">centric</text><text font-family="DengXian,DengXian_MSFontService,sans-serif" font-weight="700" font-size="19" transform="translate(263.147 391)">Technologies for</text><text font-family="DengXian,DengXian_MSFontService,sans-serif" font-weight="700" font-size="19" transform="translate(257.394 413)">Seamless Human</text><text font-family="DengXian,DengXian_MSFontService,sans-serif" font-weight="700" font-size="19" transform="translate(401.227 413)">-</text><text font-family="DengXian,DengXian_MSFontService,sans-serif" font-weight="700" font-size="19" transform="translate(250.647 436)">robot Collaboration</text><text font-family="DengXian,DengXian_MSFontService,sans-serif" font-weight="700" font-size="21" transform="translate(956.314 471)">S08</text><text font-family="DengXian,DengXian_MSFontService,sans-serif" font-weight="700" font-size="21" transform="translate(742.98 471)">S07</text><text font-family="DengXian,DengXian_MSFontService,sans-serif" font-weight="700" font-size="21" transform="translate(529.647 471)">S06</text><text font-family="DengXian,DengXian_MSFontService,sans-serif" font-weight="700" font-size="21" transform="translate(316.314 471)">S05</text><text font-family="DengXian,DengXian_MSFontService,sans-serif" font-weight="700" font-size="19" transform="translate(909.98 514)">Perception and</text><text font-family="DengXian,DengXian_MSFontService,sans-serif" font-weight="700" font-size="19" transform="translate(906.227 537)">Manipulation of</text><text font-family="DengXian,DengXian_MSFontService,sans-serif" font-weight="700" font-size="19" transform="translate(890.814 559)">Dexterous Hand for</text><text font-family="DengXian,DengXian_MSFontService,sans-serif" font-weight="700" font-size="19" transform="translate(901.147 582)">Humanoid Robot</text><text font-family="DengXian,DengXian_MSFontService,sans-serif" font-weight="700" font-size="19" transform="translate(673.23 503)">Wearable Robots for</text><text font-family="DengXian,DengXian_MSFontService,sans-serif" font-weight="700" font-size="19" transform="translate(714.73 526)">Assistance,</text><text font-family="DengXian,DengXian_MSFontService,sans-serif" font-weight="700" font-size="19" transform="translate(681.397 548)">Augmentation and</text><text font-family="DengXian,DengXian_MSFontService,sans-serif" font-weight="700" font-size="19" transform="translate(690.397 571)">Rehabilitation of</text><text font-family="DengXian,DengXian_MSFontService,sans-serif" font-weight="700" font-size="19" transform="translate(677.317 593)">Human Movements</text><g clip-path="url(#clip17)"><text font-family="DengXian,DengXian_MSFontService,sans-serif" font-weight="700" font-size="19" transform="translate(453.73 536)">Wearable Sensors and</text></g><text font-family="DengXian,DengXian_MSFontService,sans-serif" font-weight="700" font-size="19" transform="translate(517.397 559)">Robots</text><text font-family="DengXian,DengXian_MSFontService,sans-serif" font-weight="700" font-size="19" transform="translate(275.314 525)">Reliable AI on</text><text font-family="DengXian,DengXian_MSFontService,sans-serif" font-weight="700" font-size="19" transform="translate(264.48 548)">Machine Human</text><text font-family="DengXian,DengXian_MSFontService,sans-serif" font-weight="700" font-size="19" transform="translate(293.147 570)">Reactions</text><g clip-path="url(#clip18)"><text font-family="DengXian,DengXian_MSFontService,sans-serif" font-weight="700" font-size="24" transform="translate(521.358 629)">Coffee &amp; Tea Break</text></g><g clip-path="url(#clip19)"><text font-family="DengXian,DengXian_MSFontService,sans-serif" font-weight="700" font-size="24" transform="translate(236.914 629)">15:30</text></g><text font-family="DengXian,DengXian_MSFontService,sans-serif" font-weight="700" font-size="24" transform="translate(296.08 629)">-</text><text font-family="DengXian,DengXian_MSFontService,sans-serif" font-weight="700" font-size="24" transform="translate(308.08 629)">15:45</text><g clip-path="url(#clip20)"><text font-family="DengXian,DengXian_MSFontService,sans-serif" font-weight="700" font-size="24" transform="translate(521.358 668)">Session</text></g><text font-family="DengXian,DengXian_MSFontService,sans-serif" font-weight="700" font-size="24" transform="translate(609.191 668)">Ⅱ (S09</text><text font-family="DengXian,DengXian_MSFontService,sans-serif" font-weight="700" font-size="24" transform="translate(694.191 668)">–</text><text font-family="DengXian,DengXian_MSFontService,sans-serif" font-weight="700" font-size="24" transform="translate(712.858 668)">S16)</text><g clip-path="url(#clip21)"><text font-family="DengXian,DengXian_MSFontService,sans-serif" font-weight="700" font-size="24" transform="translate(236.914 668)">15:45</text></g><text font-family="DengXian,DengXian_MSFontService,sans-serif" font-weight="700" font-size="24" transform="translate(296.08 668)">-</text><text font-family="DengXian,DengXian_MSFontService,sans-serif" font-weight="700" font-size="24" transform="translate(308.08 668)">17:45</text><text font-family="DengXian,DengXian_MSFontService,sans-serif" font-weight="700" font-size="21" transform="translate(956.314 705)">S12</text><text font-family="DengXian,DengXian_MSFontService,sans-serif" font-weight="700" font-size="21" transform="translate(742.98 705)">S11</text><text font-family="DengXian,DengXian_MSFontService,sans-serif" font-weight="700" font-size="21" transform="translate(529.647 705)">S10</text><text font-family="DengXian,DengXian_MSFontService,sans-serif" font-weight="700" font-size="21" transform="translate(316.314 705)">S09</text><text font-family="DengXian,DengXian_MSFontService,sans-serif" font-weight="700" font-size="19" transform="translate(918.73 741)">Evaluation of</text><text font-family="DengXian,DengXian_MSFontService,sans-serif" font-weight="700" font-size="19" transform="translate(886.564 764)">Wearable Robots for</text><text font-family="DengXian,DengXian_MSFontService,sans-serif" font-weight="700" font-size="19" transform="translate(911.897 786)">Assistance and</text><text font-family="DengXian,DengXian_MSFontService,sans-serif" font-weight="700" font-size="19" transform="translate(915.15 809)">Rehabilitation</text><g clip-path="url(#clip22)"><text font-family="DengXian,DengXian_MSFontService,sans-serif" font-weight="700" font-size="19" transform="translate(666.314 741)">Innovative Design and</text></g><text font-family="DengXian,DengXian_MSFontService,sans-serif" font-weight="700" font-size="19" transform="translate(706.647 764)">Performance</text><text font-family="DengXian,DengXian_MSFontService,sans-serif" font-weight="700" font-size="19" transform="translate(676.894 786)">Evaluation of Robot</text><text font-family="DengXian,DengXian_MSFontService,sans-serif" font-weight="700" font-size="19" transform="translate(690.147 809)">Mechanisms</text><text font-family="DengXian,DengXian_MSFontService,sans-serif" font-weight="700" font-size="19" transform="translate(800.147 809)">(Ⅰ)</text><g clip-path="url(#clip23)"><text font-family="DengXian,DengXian_MSFontService,sans-serif" font-weight="700" font-size="19" transform="translate(453.23 764)">Advanced Underwater</text></g><text font-family="DengXian,DengXian_MSFontService,sans-serif" font-weight="700" font-size="19" transform="translate(462.817 787)">Robot Technologies</text><text font-family="DengXian,DengXian_MSFontService,sans-serif" font-weight="700" font-size="19" transform="translate(248.397 764)">Medical Imaging for</text><text font-family="DengXian,DengXian_MSFontService,sans-serif" font-weight="700" font-size="19" transform="translate(248.064 787)">Biomedical Robotics</text><text font-family="DengXian,DengXian_MSFontService,sans-serif" font-weight="700" font-size="21" transform="translate(956.314 843)">S16</text><text font-family="DengXian,DengXian_MSFontService,sans-serif" font-weight="700" font-size="21" transform="translate(742.98 843)">S15</text><text font-family="DengXian,DengXian_MSFontService,sans-serif" font-weight="700" font-size="21" transform="translate(529.647 843)">S14</text><text font-family="DengXian,DengXian_MSFontService,sans-serif" font-weight="700" font-size="21" transform="translate(316.314 843)">S13</text><text font-family="DengXian,DengXian_MSFontService,sans-serif" font-weight="700" font-size="19" transform="translate(889.647 879)">Pattern Recognition</text><g clip-path="url(#clip24)"><text font-family="DengXian,DengXian_MSFontService,sans-serif" font-weight="700" font-size="19" transform="translate(880.147 902)">and Machine Learning</text></g><text font-family="DengXian,DengXian_MSFontService,sans-serif" font-weight="700" font-size="19" transform="translate(901.727 924)">for Smart Robots</text><text font-family="DengXian,DengXian_MSFontService,sans-serif" font-weight="700" font-size="19" transform="translate(710.48 879)">Human</text><text font-family="DengXian,DengXian_MSFontService,sans-serif" font-weight="700" font-size="19" transform="translate(771.98 879)">-</text><text font-family="DengXian,DengXian_MSFontService,sans-serif" font-weight="700" font-size="19" transform="translate(781.314 879)">like</text><text font-family="DengXian,DengXian_MSFontService,sans-serif" font-weight="700" font-size="19" transform="translate(691.48 902)">Locomotion and</text><text font-family="DengXian,DengXian_MSFontService,sans-serif" font-weight="700" font-size="19" transform="translate(704.314 924)">Manipulation</text><text font-family="DengXian,DengXian_MSFontService,sans-serif" font-weight="700" font-size="19" transform="translate(463.564 879)">Dielectric Elastomer</text><text font-family="DengXian,DengXian_MSFontService,sans-serif" font-weight="700" font-size="19" transform="translate(472.064 902)">Actuators for Soft</text><text font-family="DengXian,DengXian_MSFontService,sans-serif" font-weight="700" font-size="19" transform="translate(510.564 924)">Robotics</text><text font-family="DengXian,DengXian_MSFontService,sans-serif" font-weight="700" font-size="19" transform="translate(266.314 891)">3D Printing Soft</text><text font-family="DengXian,DengXian_MSFontService,sans-serif" font-weight="700" font-size="19" transform="translate(304.06 914)">Robots</text></g></svg>