<svg width="859" height="979" xmlns="http://www.w3.org/2000/svg" xmlns:xlink="http://www.w3.org/1999/xlink" overflow="hidden"><g transform="translate(-225 3)"><path d="M227.314 0 1080.65 0 1080.65 38.9333 227.314 38.9333Z" fill="#4472C4" fill-rule="evenodd"/><path d="M227.314 38.9333 568.647 38.9333 568.647 77.8667 227.314 77.8667Z" fill="#CFD5EA" fill-rule="evenodd"/><path d="M568.647 38.9333 1080.65 38.9333 1080.65 77.8667 568.647 77.8667Z" fill="#CFD5EA" fill-rule="evenodd"/><path d="M227.314 77.8667 568.647 77.8667 568.647 116.8 227.314 116.8Z" fill="#E9EBF5" fill-rule="evenodd"/><path d="M568.647 77.8667 1080.65 77.8667 1080.65 116.8 568.647 116.8Z" fill="#E9EBF5" fill-rule="evenodd"/><path d="M227.314 116.8 568.647 116.8 568.647 155.733 227.314 155.733Z" fill="#CFD5EA" fill-rule="evenodd"/><path d="M568.647 116.8 1080.65 116.8 1080.65 155.733 568.647 155.733Z" fill="#CFD5EA" fill-rule="evenodd"/><path d="M227.314 155.733 568.647 155.733 568.647 194.667 227.314 194.667Z" fill="#E9EBF5" fill-rule="evenodd"/><path d="M568.647 155.733 1080.65 155.733 1080.65 194.667 568.647 194.667Z" fill="#E9EBF5" fill-rule="evenodd"/><path d="M227.314 194.667 568.647 194.667 568.647 233.6 227.314 233.6Z" fill="#CFD5EA" fill-rule="evenodd"/><path d="M568.647 194.667 1080.65 194.667 1080.65 233.6 568.647 233.6Z" fill="#CFD5EA" fill-rule="evenodd"/><path d="M227.314 233.6 397.98 233.6 397.98 268.8 227.314 268.8Z" fill="#E9EBF5" fill-rule="evenodd"/><path d="M397.98 233.6 568.647 233.6 568.647 268.8 397.98 268.8Z" fill="#E9EBF5" fill-rule="evenodd"/><path d="M568.647 233.6 739.314 233.6 739.314 268.8 568.647 268.8Z" fill="#E9EBF5" fill-rule="evenodd"/><path d="M739.314 233.6 909.98 233.6 909.98 268.8 739.314 268.8Z" fill="#E9EBF5" fill-rule="evenodd"/><path d="M909.98 233.6 1080.65 233.6 1080.65 268.8 909.98 268.8Z" fill="#E9EBF5" fill-rule="evenodd"/><path d="M227.314 268.8 397.98 268.8 397.98 412.8 227.314 412.8Z" fill="#CFD5EA" fill-rule="evenodd"/><path d="M397.98 268.8 568.647 268.8 568.647 412.8 397.98 412.8Z" fill="#CFD5EA" fill-rule="evenodd"/><path d="M568.647 268.8 739.314 268.8 739.314 412.8 568.647 412.8Z" fill="#CFD5EA" fill-rule="evenodd"/><path d="M739.314 268.8 909.98 268.8 909.98 412.8 739.314 412.8Z" fill="#CFD5EA" fill-rule="evenodd"/><path d="M909.98 268.8 1080.65 268.8 1080.65 412.8 909.98 412.8Z" fill="#CFD5EA" fill-rule="evenodd"/><path d="M227.314 412.8 397.98 412.8 397.98 569.6 227.314 569.6Z" fill="#E9EBF5" fill-rule="evenodd"/><path d="M397.98 412.8 568.647 412.8 568.647 448 397.98 448Z" fill="#E9EBF5" fill-rule="evenodd"/><path d="M568.647 412.8 739.314 412.8 739.314 448 568.647 448Z" fill="#E9EBF5" fill-rule="evenodd"/><path d="M739.314 412.8 909.98 412.8 909.98 448 739.314 448Z" fill="#E9EBF5" fill-rule="evenodd"/><path d="M909.98 412.8 1080.65 412.8 1080.65 448 909.98 448Z" fill="#E9EBF5" fill-rule="evenodd"/><path d="M397.98 448 568.647 448 568.647 569.6 397.98 569.6Z" fill="#CFD5EA" fill-rule="evenodd"/><path d="M568.647 448 739.314 448 739.314 569.6 568.647 569.6Z" fill="#CFD5EA" fill-rule="evenodd"/><path d="M739.314 448 909.98 448 909.98 569.6 739.314 569.6Z" fill="#CFD5EA" fill-rule="evenodd"/><path d="M909.98 448 1080.65 448 1080.65 569.6 909.98 569.6Z" fill="#CFD5EA" fill-rule="evenodd"/><path d="M227.314 569.6 568.647 569.6 568.647 608.533 227.314 608.533Z" fill="#E9EBF5" fill-rule="evenodd"/><path d="M568.647 569.6 1080.65 569.6 1080.65 608.533 568.647 608.533Z" fill="#E9EBF5" fill-rule="evenodd"/><path d="M227.314 608.533 568.647 608.533 568.647 647.467 227.314 647.467Z" fill="#CFD5EA" fill-rule="evenodd"/><path d="M568.647 608.533 1080.65 608.533 1080.65 647.467 568.647 647.467Z" fill="#CFD5EA" fill-rule="evenodd"/><path d="M227.314 647.467 397.98 647.467 397.98 686.4 227.314 686.4Z" fill="#E9EBF5" fill-rule="evenodd"/><path d="M397.98 647.467 568.647 647.467 568.647 686.4 397.98 686.4Z" fill="#E9EBF5" fill-rule="evenodd"/><path d="M568.647 647.467 739.314 647.467 739.314 686.4 568.647 686.4Z" fill="#E9EBF5" fill-rule="evenodd"/><path d="M739.314 647.467 909.98 647.467 909.98 686.4 739.314 686.4Z" fill="#E9EBF5" fill-rule="evenodd"/><path d="M909.98 647.467 1080.65 647.467 1080.65 686.4 909.98 686.4Z" fill="#E9EBF5" fill-rule="evenodd"/><path d="M227.314 686.4 397.98 686.4 397.98 785.6 227.314 785.6Z" fill="#CFD5EA" fill-rule="evenodd"/><path d="M397.98 686.4 568.647 686.4 568.647 785.6 397.98 785.6Z" fill="#CFD5EA" fill-rule="evenodd"/><path d="M568.647 686.4 739.314 686.4 739.314 785.6 568.647 785.6Z" fill="#CFD5EA" fill-rule="evenodd"/><path d="M739.314 686.4 909.98 686.4 909.98 785.6 739.314 785.6Z" fill="#CFD5EA" fill-rule="evenodd"/><path d="M909.98 686.4 1080.65 686.4 1080.65 785.6 909.98 785.6Z" fill="#CFD5EA" fill-rule="evenodd"/><path d="M227.314 785.6 397.98 785.6 397.98 968.533 227.314 968.533Z" fill="#E9EBF5" fill-rule="evenodd"/><path d="M397.98 785.6 568.647 785.6 568.647 824.533 397.98 824.533Z" fill="#E9EBF5" fill-rule="evenodd"/><path d="M568.647 785.6 739.314 785.6 739.314 824.533 568.647 824.533Z" fill="#E9EBF5" fill-rule="evenodd"/><path d="M739.314 785.6 909.98 785.6 909.98 824.533 739.314 824.533Z" fill="#E9EBF5" fill-rule="evenodd"/><path d="M909.98 785.6 1080.65 785.6 1080.65 824.533 909.98 824.533Z" fill="#E9EBF5" fill-rule="evenodd"/><path d="M397.98 824.533 568.647 824.533 568.647 968.533 397.98 968.533Z" fill="#CFD5EA" fill-rule="evenodd"/><path d="M568.647 824.533 739.314 824.533 739.314 968.533 568.647 968.533Z" fill="#CFD5EA" fill-rule="evenodd"/><path d="M739.314 824.533 909.98 824.533 909.98 968.533 739.314 968.533Z" fill="#CFD5EA" fill-rule="evenodd"/><path d="M909.98 824.533 1080.65 824.533 1080.65 968.533 909.98 968.533Z" fill="#CFD5EA" fill-rule="evenodd"/><path d="M397.98 232.1 397.98 414.3" stroke="#000000" stroke-width="3" stroke-linejoin="round" stroke-miterlimit="10" fill="none" fill-rule="evenodd"/><path d="M397.98 414.3 397.98 570.267" stroke="#000000" stroke-width="1.33333" stroke-linejoin="round" stroke-miterlimit="10" fill="none" fill-rule="evenodd"/><path d="M397.98 645.967 397.98 787.1" stroke="#000000" stroke-width="3" stroke-linejoin="round" stroke-miterlimit="10" fill="none" fill-rule="evenodd"/><path d="M397.98 787.1 397.98 969.2" stroke="#000000" stroke-width="1.33333" stroke-linejoin="round" stroke-miterlimit="10" fill="none" fill-rule="evenodd"/><path d="M568.647 36.9333 568.647 233.6" stroke="#FFFFFF" stroke-width="1.33333" stroke-linejoin="round" stroke-miterlimit="10" fill="none" fill-rule="evenodd"/><path d="M568.647 233.6 568.647 569.6" stroke="#000000" stroke-width="1.33333" stroke-linejoin="round" stroke-miterlimit="10" fill="none" fill-rule="evenodd"/><path d="M568.647 569.6 568.647 647.467" stroke="#FFFFFF" stroke-width="1.33333" stroke-linejoin="round" stroke-miterlimit="10" fill="none" fill-rule="evenodd"/><path d="M568.647 647.467 568.647 969.2" stroke="#000000" stroke-width="1.33333" stroke-linejoin="round" stroke-miterlimit="10" fill="none" fill-rule="evenodd"/><path d="M739.314 232.933 739.314 570.267" stroke="#000000" stroke-width="1.33333" stroke-linejoin="round" stroke-miterlimit="10" fill="none" fill-rule="evenodd"/><path d="M739.314 646.8 739.314 969.2" stroke="#000000" stroke-width="1.33333" stroke-linejoin="round" stroke-miterlimit="10" fill="none" fill-rule="evenodd"/><path d="M909.98 232.933 909.98 570.267" stroke="#000000" stroke-width="1.33333" stroke-linejoin="round" stroke-miterlimit="10" fill="none" fill-rule="evenodd"/><path d="M909.98 646.8 909.98 969.2" stroke="#000000" stroke-width="1.33333" stroke-linejoin="round" stroke-miterlimit="10" fill="none" fill-rule="evenodd"/><path d="M226.647 38.9333 1081.31 38.9333" stroke="#FFFFFF" stroke-width="4" stroke-linejoin="round" stroke-miterlimit="10" fill="none" fill-rule="evenodd"/><path d="M226.647 77.8667 1081.31 77.8667" stroke="#FFFFFF" stroke-width="1.33333" stroke-linejoin="round" stroke-miterlimit="10" fill="none" fill-rule="evenodd"/><path d="M226.647 116.8 1081.31 116.8" stroke="#FFFFFF" stroke-width="1.33333" stroke-linejoin="round" stroke-miterlimit="10" fill="none" fill-rule="evenodd"/><path d="M226.647 155.733 1081.31 155.733" stroke="#FFFFFF" stroke-width="1.33333" stroke-linejoin="round" stroke-miterlimit="10" fill="none" fill-rule="evenodd"/><path d="M226.647 194.667 1081.31 194.667" stroke="#FFFFFF" stroke-width="1.33333" stroke-linejoin="round" stroke-miterlimit="10" fill="none" fill-rule="evenodd"/><path d="M225.814 233.6 399.48 233.6" stroke="#000000" stroke-width="3" stroke-linejoin="round" stroke-miterlimit="10" fill="none" fill-rule="evenodd"/><path d="M399.48 233.6 1081.31 233.6" stroke="#000000" stroke-width="1.33333" stroke-linejoin="round" stroke-miterlimit="10" fill="none" fill-rule="evenodd"/><path d="M225.814 268.8 399.48 268.8" stroke="#000000" stroke-width="3" stroke-linejoin="round" stroke-miterlimit="10" fill="none" fill-rule="evenodd"/><path d="M399.48 268.8 1081.31 268.8" stroke="#000000" stroke-width="1.33333" stroke-linejoin="round" stroke-miterlimit="10" fill="none" fill-rule="evenodd"/><path d="M225.814 412.8 399.48 412.8" stroke="#000000" stroke-width="3" stroke-linejoin="round" stroke-miterlimit="10" fill="none" fill-rule="evenodd"/><path d="M399.48 412.8 1081.31 412.8" stroke="#000000" stroke-width="1.33333" stroke-linejoin="round" stroke-miterlimit="10" fill="none" fill-rule="evenodd"/><path d="M397.314 448 1081.31 448" stroke="#000000" stroke-width="1.33333" stroke-linejoin="round" stroke-miterlimit="10" fill="none" fill-rule="evenodd"/><path d="M397.314 569.6 1081.31 569.6" stroke="#000000" stroke-width="1.33333" stroke-linejoin="round" stroke-miterlimit="10" fill="none" fill-rule="evenodd"/><path d="M226.647 608.533 1081.31 608.533" stroke="#FFFFFF" stroke-width="1.33333" stroke-linejoin="round" stroke-miterlimit="10" fill="none" fill-rule="evenodd"/><path d="M225.814 647.467 399.48 647.467" stroke="#000000" stroke-width="3" stroke-linejoin="round" stroke-miterlimit="10" fill="none" fill-rule="evenodd"/><path d="M399.48 647.467 1081.31 647.467" stroke="#000000" stroke-width="1.33333" stroke-linejoin="round" stroke-miterlimit="10" fill="none" fill-rule="evenodd"/><path d="M225.814 686.4 399.48 686.4" stroke="#000000" stroke-width="3" stroke-linejoin="round" stroke-miterlimit="10" fill="none" fill-rule="evenodd"/><path d="M399.48 686.4 1081.31 686.4" stroke="#000000" stroke-width="1.33333" stroke-linejoin="round" stroke-miterlimit="10" fill="none" fill-rule="evenodd"/><path d="M225.814 785.6 399.48 785.6" stroke="#000000" stroke-width="3" stroke-linejoin="round" stroke-miterlimit="10" fill="none" fill-rule="evenodd"/><path d="M399.48 785.6 1081.31 785.6" stroke="#000000" stroke-width="1.33333" stroke-linejoin="round" stroke-miterlimit="10" fill="none" fill-rule="evenodd"/><path d="M397.314 824.533 1081.31 824.533" stroke="#000000" stroke-width="1.33333" stroke-linejoin="round" stroke-miterlimit="10" fill="none" fill-rule="evenodd"/><path d="M227.314-0.666667 227.314 232.1" stroke="#FFFFFF" stroke-width="1.33333" stroke-linejoin="round" stroke-miterlimit="10" fill="none" fill-rule="evenodd"/><path d="M227.314 232.1 227.314 414.3" stroke="#000000" stroke-width="3" stroke-linejoin="round" stroke-miterlimit="10" fill="none" fill-rule="evenodd"/><path d="M227.314 569.6 227.314 645.967" stroke="#FFFFFF" stroke-width="1.33333" stroke-linejoin="round" stroke-miterlimit="10" fill="none" fill-rule="evenodd"/><path d="M227.314 645.967 227.314 787.1" stroke="#000000" stroke-width="3" stroke-linejoin="round" stroke-miterlimit="10" fill="none" fill-rule="evenodd"/><path d="M1080.65-0.666667 1080.65 233.6" stroke="#FFFFFF" stroke-width="1.33333" stroke-linejoin="round" stroke-miterlimit="10" fill="none" fill-rule="evenodd"/><path d="M1080.65 233.6 1080.65 569.6" stroke="#000000" stroke-width="1.33333" stroke-linejoin="round" stroke-miterlimit="10" fill="none" fill-rule="evenodd"/><path d="M1080.65 569.6 1080.65 647.467" stroke="#FFFFFF" stroke-width="1.33333" stroke-linejoin="round" stroke-miterlimit="10" fill="none" fill-rule="evenodd"/><path d="M1080.65 647.467 1080.65 969.2" stroke="#000000" stroke-width="1.33333" stroke-linejoin="round" stroke-miterlimit="10" fill="none" fill-rule="evenodd"/><path d="M226.647 0 1081.31 0" stroke="#FFFFFF" stroke-width="1.33333" stroke-linejoin="round" stroke-miterlimit="10" fill="none" fill-rule="evenodd"/><path d="M397.314 968.533 1081.31 968.533" stroke="#000000" stroke-width="1.33333" stroke-linejoin="round" stroke-miterlimit="10" fill="none" fill-rule="evenodd"/><g><text fill="#FFFFFF" font-family="DengXian,DengXian_MSFontService,sans-serif" font-weight="700" font-size="24" transform="translate(236.914 27)">Day3/July 7,</text></g><text fill="#FFFFFF" font-family="DengXian,DengXian_MSFontService,sans-serif" font-weight="700" font-size="24" transform="translate(376.58 27)">2023</text><g><text font-family="DengXian,DengXian_MSFontService,sans-serif" font-weight="700" font-size="24" transform="translate(578.247 66)">Plenary</text></g><text font-family="DengXian,DengXian_MSFontService,sans-serif" font-weight="700" font-size="24" transform="translate(665.58 66)">Speech</text><text font-family="DengXian,DengXian_MSFontService,sans-serif" font-weight="700" font-size="24" transform="translate(750.747 66)">III</text><g><text font-family="DengXian,DengXian_MSFontService,sans-serif" font-weight="700" font-size="24" transform="translate(236.914 66)">08:30</text></g><text font-family="DengXian,DengXian_MSFontService,sans-serif" font-weight="700" font-size="24" transform="translate(296.08 66)">-</text><text font-family="DengXian,DengXian_MSFontService,sans-serif" font-weight="700" font-size="24" transform="translate(308.08 66)">10:00</text><g><text font-family="DengXian,DengXian_MSFontService,sans-serif" font-weight="700" font-size="24" transform="translate(578.247 105)">Photograph &amp; Coffee</text></g><text font-family="DengXian,DengXian_MSFontService,sans-serif" font-weight="700" font-size="24" transform="translate(819.08 105)">&amp; Tea Break</text><g><text font-family="DengXian,DengXian_MSFontService,sans-serif" font-weight="700" font-size="24" transform="translate(236.914 105)">10:00</text></g><text font-family="DengXian,DengXian_MSFontService,sans-serif" font-weight="700" font-size="24" transform="translate(296.08 105)">-</text><text font-family="DengXian,DengXian_MSFontService,sans-serif" font-weight="700" font-size="24" transform="translate(308.08 105)">10:15</text><g><text font-family="DengXian,DengXian_MSFontService,sans-serif" font-weight="700" font-size="24" transform="translate(578.247 144)">Plenary</text></g><text font-family="DengXian,DengXian_MSFontService,sans-serif" font-weight="700" font-size="24" transform="translate(665.58 144)">Speech IV</text><g><text font-family="DengXian,DengXian_MSFontService,sans-serif" font-weight="700" font-size="24" transform="translate(236.914 144)">10:15</text></g><text font-family="DengXian,DengXian_MSFontService,sans-serif" font-weight="700" font-size="24" transform="translate(296.08 144)">-</text><text font-family="DengXian,DengXian_MSFontService,sans-serif" font-weight="700" font-size="24" transform="translate(308.08 144)">11:45</text><g><text font-family="DengXian,DengXian_MSFontService,sans-serif" font-weight="700" font-size="24" transform="translate(578.247 183)">Lunch &amp; Break</text></g><g><text font-family="DengXian,DengXian_MSFontService,sans-serif" font-weight="700" font-size="24" transform="translate(236.914 183)">11:45</text></g><text font-family="DengXian,DengXian_MSFontService,sans-serif" font-weight="700" font-size="24" transform="translate(296.08 183)">-</text><text font-family="DengXian,DengXian_MSFontService,sans-serif" font-weight="700" font-size="24" transform="translate(308.08 183)">14:00</text><g><text font-family="DengXian,DengXian_MSFontService,sans-serif" font-weight="700" font-size="24" transform="translate(578.247 221)">Oral Presentation</text></g><text font-family="DengXian,DengXian_MSFontService,sans-serif" font-weight="700" font-size="24" transform="translate(774.747 221)">Ⅲ (S17</text><text font-family="DengXian,DengXian_MSFontService,sans-serif" font-weight="700" font-size="24" transform="translate(859.747 221)">–</text><text font-family="DengXian,DengXian_MSFontService,sans-serif" font-weight="700" font-size="24" transform="translate(878.414 221)">S24)</text><g><text font-family="DengXian,DengXian_MSFontService,sans-serif" font-weight="700" font-size="24" transform="translate(236.914 221)">14:00</text></g><text font-family="DengXian,DengXian_MSFontService,sans-serif" font-weight="700" font-size="24" transform="translate(296.08 221)">-</text><text font-family="DengXian,DengXian_MSFontService,sans-serif" font-weight="700" font-size="24" transform="translate(308.08 221)">15:45</text><text font-family="DengXian,DengXian_MSFontService,sans-serif" font-weight="700" font-size="21" transform="translate(977.647 258)">S20</text><text font-family="DengXian,DengXian_MSFontService,sans-serif" font-weight="700" font-size="21" transform="translate(806.98 258)">S19</text><text font-family="DengXian,DengXian_MSFontService,sans-serif" font-weight="700" font-size="21" transform="translate(636.314 258)">S18</text><text font-family="DengXian,DengXian_MSFontService,sans-serif" font-weight="700" font-size="21" transform="translate(465.647 258)">S17</text><text font-family="DengXian,DengXian_MSFontService,sans-serif" font-weight="700" font-size="21" transform="translate(294.147 258)">C01</text><text font-family="DengXian,DengXian_MSFontService,sans-serif" font-weight="700" font-size="19" transform="translate(947.814 324)">Design and</text><text font-family="DengXian,DengXian_MSFontService,sans-serif" font-weight="700" font-size="19" transform="translate(952.314 347)">Control of</text><text font-family="DengXian,DengXian_MSFontService,sans-serif" font-weight="700" font-size="19" transform="translate(931.48 369)">Legged Robots</text><text font-family="DengXian,DengXian_MSFontService,sans-serif" font-weight="700" font-size="19" transform="translate(772.65 313)">Knowledge</text><text font-family="DengXian,DengXian_MSFontService,sans-serif" font-weight="700" font-size="19" transform="translate(867.317 313)">-</text><text font-family="DengXian,DengXian_MSFontService,sans-serif" font-weight="700" font-size="19" transform="translate(771.15 336)">based Robot</text><text font-family="DengXian,DengXian_MSFontService,sans-serif" font-weight="700" font-size="19" transform="translate(752.65 358)">Decision</text><text font-family="DengXian,DengXian_MSFontService,sans-serif" font-weight="700" font-size="19" transform="translate(824.484 358)">-</text><g><text font-family="DengXian,DengXian_MSFontService,sans-serif" font-weight="700" font-size="19" transform="translate(833.817 358)">making</text></g><g><text font-family="DengXian,DengXian_MSFontService,sans-serif" font-weight="700" font-size="19" transform="translate(749.897 381)">and Manipulation</text></g><text font-family="DengXian,DengXian_MSFontService,sans-serif" font-weight="700" font-size="19" transform="translate(612.147 291)">Advanced</text><text font-family="DengXian,DengXian_MSFontService,sans-serif" font-weight="700" font-size="19" transform="translate(602.647 314)">Sensing and</text><text font-family="DengXian,DengXian_MSFontService,sans-serif" font-weight="700" font-size="19" transform="translate(622.394 336)">Control</text><text font-family="DengXian,DengXian_MSFontService,sans-serif" font-weight="700" font-size="19" transform="translate(589.814 359)">Technology for</text><text font-family="DengXian,DengXian_MSFontService,sans-serif" font-weight="700" font-size="19" transform="translate(595.06 381)">Human</text><text font-family="DengXian,DengXian_MSFontService,sans-serif" font-weight="700" font-size="19" transform="translate(656.56 381)">-</text><text font-family="DengXian,DengXian_MSFontService,sans-serif" font-weight="700" font-size="19" transform="translate(665.894 381)">robot</text><text font-family="DengXian,DengXian_MSFontService,sans-serif" font-weight="700" font-size="19" transform="translate(608.06 403)">Interaction</text><text font-family="DengXian,DengXian_MSFontService,sans-serif" font-weight="700" font-size="19" transform="translate(420.397 313)">Robotic Tactile</text><text font-family="DengXian,DengXian_MSFontService,sans-serif" font-weight="700" font-size="19" transform="translate(439.984 336)">Sensation,</text><text font-family="DengXian,DengXian_MSFontService,sans-serif" font-weight="700" font-size="19" transform="translate(417.064 358)">Perception, and</text><text font-family="DengXian,DengXian_MSFontService,sans-serif" font-weight="700" font-size="19" transform="translate(431.064 381)">Applications</text><text font-family="DengXian,DengXian_MSFontService,sans-serif" font-weight="700" font-size="19" transform="translate(255.48 324)">Cutting</text><text font-family="DengXian,DengXian_MSFontService,sans-serif" font-weight="700" font-size="19" transform="translate(318.147 324)">-</text><text font-family="DengXian,DengXian_MSFontService,sans-serif" font-weight="700" font-size="19" transform="translate(327.48 324)">edge</text><text font-family="DengXian,DengXian_MSFontService,sans-serif" font-weight="700" font-size="19" transform="translate(266.727 347)">research in</text><text font-family="DengXian,DengXian_MSFontService,sans-serif" font-weight="700" font-size="19" transform="translate(266.814 369)">robotics (I)</text><text font-family="DengXian,DengXian_MSFontService,sans-serif" font-weight="700" font-size="21" transform="translate(977.647 438)">S24</text><text font-family="DengXian,DengXian_MSFontService,sans-serif" font-weight="700" font-size="21" transform="translate(806.98 438)">S23</text><text font-family="DengXian,DengXian_MSFontService,sans-serif" font-weight="700" font-size="21" transform="translate(636.314 438)">S22</text><text font-family="DengXian,DengXian_MSFontService,sans-serif" font-weight="700" font-size="21" transform="translate(465.647 438)">S21</text><text font-family="DengXian,DengXian_MSFontService,sans-serif" font-weight="700" font-size="19" transform="translate(951.817 481)">Visual and</text><text font-family="DengXian,DengXian_MSFontService,sans-serif" font-weight="700" font-size="19" transform="translate(939.817 504)">Visual</text><text font-family="DengXian,DengXian_MSFontService,sans-serif" font-weight="700" font-size="19" transform="translate(989.984 504)">-</text><text font-family="DengXian,DengXian_MSFontService,sans-serif" font-weight="700" font-size="19" transform="translate(999.317 504)">tactile</text><text font-family="DengXian,DengXian_MSFontService,sans-serif" font-weight="700" font-size="19" transform="translate(934.897 526)">Perception for</text><text font-family="DengXian,DengXian_MSFontService,sans-serif" font-weight="700" font-size="19" transform="translate(958.564 549)">Robotics</text><text font-family="DengXian,DengXian_MSFontService,sans-serif" font-weight="700" font-size="19" transform="translate(787.317 470)">Clinically</text><text font-family="DengXian,DengXian_MSFontService,sans-serif" font-weight="700" font-size="19" transform="translate(755.73 493)">Oriented Design</text><text font-family="DengXian,DengXian_MSFontService,sans-serif" font-weight="700" font-size="19" transform="translate(781.484 515)">in Robotic</text><text font-family="DengXian,DengXian_MSFontService,sans-serif" font-weight="700" font-size="19" transform="translate(773.564 538)">Surgery and</text><text font-family="DengXian,DengXian_MSFontService,sans-serif" font-weight="700" font-size="19" transform="translate(765.817 560)">Rehabilitation</text><text font-family="DengXian,DengXian_MSFontService,sans-serif" font-weight="700" font-size="19" transform="translate(621.227 481)">Robotic</text><text font-family="DengXian,DengXian_MSFontService,sans-serif" font-weight="700" font-size="19" transform="translate(597.98 504)">Machining of</text><text font-family="DengXian,DengXian_MSFontService,sans-serif" font-weight="700" font-size="19" transform="translate(616.647 526)">Complex</text><text font-family="DengXian,DengXian_MSFontService,sans-serif" font-weight="700" font-size="19" transform="translate(599.98 549)">Components</text><text font-family="DengXian,DengXian_MSFontService,sans-serif" font-weight="700" font-size="19" transform="translate(442.984 481)">Robots in</text><text font-family="DengXian,DengXian_MSFontService,sans-serif" font-weight="700" font-size="19" transform="translate(420.23 504)">Tunnelling and</text><text font-family="DengXian,DengXian_MSFontService,sans-serif" font-weight="700" font-size="19" transform="translate(426.317 526)">Underground</text><text font-family="DengXian,DengXian_MSFontService,sans-serif" font-weight="700" font-size="19" transform="translate(458.397 549)">Space</text><g><text font-family="DengXian,DengXian_MSFontService,sans-serif" font-weight="700" font-size="24" transform="translate(578.247 596)">Coffee &amp; Tea Break</text></g><g><text font-family="DengXian,DengXian_MSFontService,sans-serif" font-weight="700" font-size="24" transform="translate(236.914 596)">15:45</text></g><text font-family="DengXian,DengXian_MSFontService,sans-serif" font-weight="700" font-size="24" transform="translate(296.08 596)">-</text><text font-family="DengXian,DengXian_MSFontService,sans-serif" font-weight="700" font-size="24" transform="translate(308.08 596)">16:00</text><g><text font-family="DengXian,DengXian_MSFontService,sans-serif" font-weight="700" font-size="24" transform="translate(578.247 635)">Oral Presentation</text></g><text font-family="DengXian,DengXian_MSFontService,sans-serif" font-weight="700" font-size="24" transform="translate(774.747 635)">Ⅳ (S25</text><text font-family="DengXian,DengXian_MSFontService,sans-serif" font-weight="700" font-size="24" transform="translate(859.747 635)">–</text><text font-family="DengXian,DengXian_MSFontService,sans-serif" font-weight="700" font-size="24" transform="translate(878.414 635)">S32)</text><g><text font-family="DengXian,DengXian_MSFontService,sans-serif" font-weight="700" font-size="24" transform="translate(236.914 635)">16:00</text></g><text font-family="DengXian,DengXian_MSFontService,sans-serif" font-weight="700" font-size="24" transform="translate(296.08 635)">-</text><text font-family="DengXian,DengXian_MSFontService,sans-serif" font-weight="700" font-size="24" transform="translate(308.08 635)">17:45</text><text font-family="DengXian,DengXian_MSFontService,sans-serif" font-weight="700" font-size="21" transform="translate(977.647 672)">S28</text><text font-family="DengXian,DengXian_MSFontService,sans-serif" font-weight="700" font-size="21" transform="translate(806.98 672)">S27</text><text font-family="DengXian,DengXian_MSFontService,sans-serif" font-weight="700" font-size="21" transform="translate(636.314 672)">S26</text><text font-family="DengXian,DengXian_MSFontService,sans-serif" font-weight="700" font-size="21" transform="translate(465.647 672)">S25</text><text font-family="DengXian,DengXian_MSFontService,sans-serif" font-weight="700" font-size="21" transform="translate(294.147 672)">C02</text><text font-family="DengXian,DengXian_MSFontService,sans-serif" font-weight="700" font-size="19" transform="translate(943.227 708)">Physical and</text><text font-family="DengXian,DengXian_MSFontService,sans-serif" font-weight="700" font-size="19" transform="translate(941.06 731)">Neurological</text><text font-family="DengXian,DengXian_MSFontService,sans-serif" font-weight="700" font-size="19" transform="translate(933.98 753)">Human</text><text font-family="DengXian,DengXian_MSFontService,sans-serif" font-weight="700" font-size="19" transform="translate(995.48 753)">-</text><text font-family="DengXian,DengXian_MSFontService,sans-serif" font-weight="700" font-size="19" transform="translate(1004.81 753)">Robot</text><text font-family="DengXian,DengXian_MSFontService,sans-serif" font-weight="700" font-size="19" transform="translate(949.394 776)">Interaction</text><text font-family="DengXian,DengXian_MSFontService,sans-serif" font-weight="700" font-size="19" transform="translate(774.23 708)">Multi</text><text font-family="DengXian,DengXian_MSFontService,sans-serif" font-weight="700" font-size="19" transform="translate(818.73 708)">-</text><text font-family="DengXian,DengXian_MSFontService,sans-serif" font-weight="700" font-size="19" transform="translate(828.064 708)">robot</text><g><text font-family="DengXian,DengXian_MSFontService,sans-serif" font-weight="700" font-size="19" transform="translate(754.73 731)">Systems for Real</text></g><text font-family="DengXian,DengXian_MSFontService,sans-serif" font-weight="700" font-size="19" transform="translate(798.65 753)">World</text><text font-family="DengXian,DengXian_MSFontService,sans-serif" font-weight="700" font-size="19" transform="translate(772.397 776)">Applications</text><text font-family="DengXian,DengXian_MSFontService,sans-serif" font-weight="700" font-size="19" transform="translate(584.894 731)">Marine Robotics</text><text font-family="DengXian,DengXian_MSFontService,sans-serif" font-weight="700" font-size="19" transform="translate(583.314 754)">and Applications</text><text font-family="DengXian,DengXian_MSFontService,sans-serif" font-weight="700" font-size="19" transform="translate(435.484 708)">Perception,</text><text font-family="DengXian,DengXian_MSFontService,sans-serif" font-weight="700" font-size="19" transform="translate(416.73 731)">Interaction, and</text><text font-family="DengXian,DengXian_MSFontService,sans-serif" font-weight="700" font-size="19" transform="translate(440.317 753)">Control of</text><text font-family="DengXian,DengXian_MSFontService,sans-serif" font-weight="700" font-size="19" transform="translate(410.73 776)">Wearable Robots</text><text font-family="DengXian,DengXian_MSFontService,sans-serif" font-weight="700" font-size="19" transform="translate(255.48 719)">Cutting</text><text font-family="DengXian,DengXian_MSFontService,sans-serif" font-weight="700" font-size="19" transform="translate(318.147 719)">-</text><text font-family="DengXian,DengXian_MSFontService,sans-serif" font-weight="700" font-size="19" transform="translate(327.48 719)">edge</text><text font-family="DengXian,DengXian_MSFontService,sans-serif" font-weight="700" font-size="19" transform="translate(266.727 742)">research in</text><text font-family="DengXian,DengXian_MSFontService,sans-serif" font-weight="700" font-size="19" transform="translate(260.227 764)">robotics (Ⅱ)</text><text font-family="DengXian,DengXian_MSFontService,sans-serif" font-weight="700" font-size="21" transform="translate(977.647 810)">S32</text><text font-family="DengXian,DengXian_MSFontService,sans-serif" font-weight="700" font-size="21" transform="translate(806.98 810)">S31</text><text font-family="DengXian,DengXian_MSFontService,sans-serif" font-weight="700" font-size="21" transform="translate(636.314 810)">S30</text><text font-family="DengXian,DengXian_MSFontService,sans-serif" font-weight="700" font-size="21" transform="translate(465.647 810)">S29</text><text font-family="DengXian,DengXian_MSFontService,sans-serif" font-weight="700" font-size="19" transform="translate(951.06 846)">Innovative</text><text font-family="DengXian,DengXian_MSFontService,sans-serif" font-weight="700" font-size="19" transform="translate(947.814 869)">Design and</text><text font-family="DengXian,DengXian_MSFontService,sans-serif" font-weight="700" font-size="19" transform="translate(941.314 891)">Performance</text><text font-family="DengXian,DengXian_MSFontService,sans-serif" font-weight="700" font-size="19" transform="translate(940.06 914)">Evaluation of</text><text font-family="DengXian,DengXian_MSFontService,sans-serif" font-weight="700" font-size="19" transform="translate(969.394 936)">Robot</text><text font-family="DengXian,DengXian_MSFontService,sans-serif" font-weight="700" font-size="19" transform="translate(924.814 958)">Mechanisms (Ⅱ)</text><text font-family="DengXian,DengXian_MSFontService,sans-serif" font-weight="700" font-size="19" transform="translate(777.484 858)">Robotics in</text><text font-family="DengXian,DengXian_MSFontService,sans-serif" font-weight="700" font-size="19" transform="translate(776.317 881)">Sustainable</text><text font-family="DengXian,DengXian_MSFontService,sans-serif" font-weight="700" font-size="19" transform="translate(762.23 903)">Manufacturing</text><text font-family="DengXian,DengXian_MSFontService,sans-serif" font-weight="700" font-size="19" transform="translate(779.15 926)">for Carbon</text><text font-family="DengXian,DengXian_MSFontService,sans-serif" font-weight="700" font-size="19" transform="translate(782.564 948)">Neutrality</text><text font-family="DengXian,DengXian_MSFontService,sans-serif" font-weight="700" font-size="19" transform="translate(610.897 880)">Intelligent</text><text font-family="DengXian,DengXian_MSFontService,sans-serif" font-weight="700" font-size="19" transform="translate(610.064 903)">Inspection</text><text font-family="DengXian,DengXian_MSFontService,sans-serif" font-weight="700" font-size="19" transform="translate(617.23 925)">Robotics</text><g><text font-family="DengXian,DengXian_MSFontService,sans-serif" font-weight="700" font-size="19" transform="translate(407.897 869)">Advanced Motion</text></g><text font-family="DengXian,DengXian_MSFontService,sans-serif" font-weight="700" font-size="19" transform="translate(451.73 892)">Control</text><g><text font-family="DengXian,DengXian_MSFontService,sans-serif" font-weight="700" font-size="19" transform="translate(412.484 914)">Technologies for</text></g><text font-family="DengXian,DengXian_MSFontService,sans-serif" font-weight="700" font-size="19" transform="translate(421.15 937)">Mobile Robots</text></g></svg>