<svg width="859" height="1018" xmlns="http://www.w3.org/2000/svg" xmlns:xlink="http://www.w3.org/1999/xlink" overflow="hidden"><g transform="translate(-225 3)"><path d="M227.314 0 1080.65 0 1080.65 38.9333 227.314 38.9333Z" fill="#4472C4" fill-rule="evenodd"/><path d="M227.314 38.9333 568.647 38.9333 568.647 77.8667 227.314 77.8667Z" fill="#CFD5EA" fill-rule="evenodd"/><path d="M568.647 38.9333 1080.65 38.9333 1080.65 77.8667 568.647 77.8667Z" fill="#CFD5EA" fill-rule="evenodd"/><path d="M227.314 77.8667 568.647 77.8667 568.647 116.8 227.314 116.8Z" fill="#E9EBF5" fill-rule="evenodd"/><path d="M568.647 77.8667 1080.65 77.8667 1080.65 116.8 568.647 116.8Z" fill="#E9EBF5" fill-rule="evenodd"/><path d="M227.314 116.8 568.647 116.8 568.647 155.733 227.314 155.733Z" fill="#CFD5EA" fill-rule="evenodd"/><path d="M568.647 116.8 1080.65 116.8 1080.65 155.733 568.647 155.733Z" fill="#CFD5EA" fill-rule="evenodd"/><path d="M227.314 155.733 568.647 155.733 568.647 194.667 227.314 194.667Z" fill="#E9EBF5" fill-rule="evenodd"/><path d="M568.647 155.733 1080.65 155.733 1080.65 194.667 568.647 194.667Z" fill="#E9EBF5" fill-rule="evenodd"/><path d="M227.314 194.667 568.647 194.667 568.647 233.6 227.314 233.6Z" fill="#CFD5EA" fill-rule="evenodd"/><path d="M568.647 194.667 1080.65 194.667 1080.65 233.6 568.647 233.6Z" fill="#CFD5EA" fill-rule="evenodd"/><path d="M227.314 233.6 568.647 233.6 568.647 272.533 227.314 272.533Z" fill="#E9EBF5" fill-rule="evenodd"/><path d="M568.647 233.6 1080.65 233.6 1080.65 272.533 568.647 272.533Z" fill="#E9EBF5" fill-rule="evenodd"/><path d="M227.314 272.533 397.98 272.533 397.98 307.733 227.314 307.733Z" fill="#CFD5EA" fill-rule="evenodd"/><path d="M397.98 272.533 568.647 272.533 568.647 307.733 397.98 307.733Z" fill="#CFD5EA" fill-rule="evenodd"/><path d="M568.647 272.533 739.314 272.533 739.314 307.733 568.647 307.733Z" fill="#CFD5EA" fill-rule="evenodd"/><path d="M739.314 272.533 909.98 272.533 909.98 307.733 739.314 307.733Z" fill="#CFD5EA" fill-rule="evenodd"/><path d="M909.98 272.533 1080.65 272.533 1080.65 307.733 909.98 307.733Z" fill="#CFD5EA" fill-rule="evenodd"/><path d="M227.314 307.733 397.98 307.733 397.98 451.733 227.314 451.733Z" fill="#E9EBF5" fill-rule="evenodd"/><path d="M397.98 307.733 568.647 307.733 568.647 451.733 397.98 451.733Z" fill="#E9EBF5" fill-rule="evenodd"/><path d="M568.647 307.733 739.314 307.733 739.314 451.733 568.647 451.733Z" fill="#E9EBF5" fill-rule="evenodd"/><path d="M739.314 307.733 909.98 307.733 909.98 451.733 739.314 451.733Z" fill="#E9EBF5" fill-rule="evenodd"/><path d="M909.98 307.733 1080.65 307.733 1080.65 451.733 909.98 451.733Z" fill="#E9EBF5" fill-rule="evenodd"/><path d="M227.314 451.733 397.98 451.733 397.98 608.533 227.314 608.533Z" fill="#CFD5EA" fill-rule="evenodd"/><path d="M397.98 451.733 568.647 451.733 568.647 486.933 397.98 486.933Z" fill="#CFD5EA" fill-rule="evenodd"/><path d="M568.647 451.733 739.314 451.733 739.314 486.933 568.647 486.933Z" fill="#CFD5EA" fill-rule="evenodd"/><path d="M739.314 451.733 909.98 451.733 909.98 486.933 739.314 486.933Z" fill="#CFD5EA" fill-rule="evenodd"/><path d="M909.98 451.733 1080.65 451.733 1080.65 486.933 909.98 486.933Z" fill="#CFD5EA" fill-rule="evenodd"/><path d="M397.98 486.933 568.647 486.933 568.647 608.533 397.98 608.533Z" fill="#E9EBF5" fill-rule="evenodd"/><path d="M568.647 486.933 739.314 486.933 739.314 608.533 568.647 608.533Z" fill="#E9EBF5" fill-rule="evenodd"/><path d="M739.314 486.933 909.98 486.933 909.98 608.533 739.314 608.533Z" fill="#E9EBF5" fill-rule="evenodd"/><path d="M909.98 486.933 1080.65 486.933 1080.65 608.533 909.98 608.533Z" fill="#E9EBF5" fill-rule="evenodd"/><path d="M227.314 608.533 507.961 608.533 507.961 647.467 227.314 647.467Z" fill="#CFD5EA" fill-rule="evenodd"/><path d="M507.961 608.533 1080.65 608.533 1080.65 647.467 507.961 647.467Z" fill="#CFD5EA" fill-rule="evenodd"/><path d="M227.314 647.467 507.961 647.467 507.961 686.4 227.314 686.4Z" fill="#E9EBF5" fill-rule="evenodd"/><path d="M507.961 647.467 1080.65 647.467 1080.65 686.4 507.961 686.4Z" fill="#E9EBF5" fill-rule="evenodd"/><path d="M227.314 686.4 397.98 686.4 397.98 725.333 227.314 725.333Z" fill="#CFD5EA" fill-rule="evenodd"/><path d="M397.98 686.4 568.647 686.4 568.647 725.333 397.98 725.333Z" fill="#CFD5EA" fill-rule="evenodd"/><path d="M568.647 686.4 739.314 686.4 739.314 725.333 568.647 725.333Z" fill="#CFD5EA" fill-rule="evenodd"/><path d="M739.314 686.4 909.98 686.4 909.98 725.333 739.314 725.333Z" fill="#CFD5EA" fill-rule="evenodd"/><path d="M909.98 686.4 1080.65 686.4 1080.65 725.333 909.98 725.333Z" fill="#CFD5EA" fill-rule="evenodd"/><path d="M227.314 725.333 397.98 725.333 397.98 824.533 227.314 824.533Z" fill="#E9EBF5" fill-rule="evenodd"/><path d="M397.98 725.333 568.647 725.333 568.647 824.533 397.98 824.533Z" fill="#E9EBF5" fill-rule="evenodd"/><path d="M568.647 725.333 739.314 725.333 739.314 824.533 568.647 824.533Z" fill="#E9EBF5" fill-rule="evenodd"/><path d="M739.314 725.333 909.98 725.333 909.98 824.533 739.314 824.533Z" fill="#E9EBF5" fill-rule="evenodd"/><path d="M909.98 725.333 1080.65 725.333 1080.65 824.533 909.98 824.533Z" fill="#E9EBF5" fill-rule="evenodd"/><path d="M227.314 824.533 397.98 824.533 397.98 1007.47 227.314 1007.47Z" fill="#CFD5EA" fill-rule="evenodd"/><path d="M397.98 824.533 568.647 824.533 568.647 863.467 397.98 863.467Z" fill="#CFD5EA" fill-rule="evenodd"/><path d="M568.647 824.533 739.314 824.533 739.314 863.467 568.647 863.467Z" fill="#CFD5EA" fill-rule="evenodd"/><path d="M739.314 824.533 909.98 824.533 909.98 863.467 739.314 863.467Z" fill="#CFD5EA" fill-rule="evenodd"/><path d="M909.98 824.533 1080.65 824.533 1080.65 863.467 909.98 863.467Z" fill="#CFD5EA" fill-rule="evenodd"/><path d="M397.98 863.467 568.647 863.467 568.647 1007.47 397.98 1007.47Z" fill="#E9EBF5" fill-rule="evenodd"/><path d="M568.647 863.467 739.314 863.467 739.314 1007.47 568.647 1007.47Z" fill="#E9EBF5" fill-rule="evenodd"/><path d="M739.314 863.467 909.98 863.467 909.98 1007.47 739.314 1007.47Z" fill="#E9EBF5" fill-rule="evenodd"/><path d="M909.98 863.467 1080.65 863.467 1080.65 1007.47 909.98 1007.47Z" fill="#E9EBF5" fill-rule="evenodd"/><path d="M397.98 271.033 397.98 453.233" stroke="#000000" stroke-width="3" stroke-linejoin="round" stroke-miterlimit="10" fill="none" fill-rule="evenodd"/><path d="M397.98 453.233 397.98 609.2" stroke="#000000" stroke-width="1.33333" stroke-linejoin="round" stroke-miterlimit="10" fill="none" fill-rule="evenodd"/><path d="M397.98 684.9 397.98 826.033" stroke="#000000" stroke-width="3" stroke-linejoin="round" stroke-miterlimit="10" fill="none" fill-rule="evenodd"/><path d="M397.98 826.033 397.98 1008.13" stroke="#000000" stroke-width="1.33333" stroke-linejoin="round" stroke-miterlimit="10" fill="none" fill-rule="evenodd"/><path d="M507.961 607.867 507.961 687.067" stroke="#FFFFFF" stroke-width="1.33333" stroke-linejoin="round" stroke-miterlimit="10" fill="none" fill-rule="evenodd"/><path d="M568.647 36.9333 568.647 272.533" stroke="#FFFFFF" stroke-width="1.33333" stroke-linejoin="round" stroke-miterlimit="10" fill="none" fill-rule="evenodd"/><path d="M568.647 272.533 568.647 609.2" stroke="#000000" stroke-width="1.33333" stroke-linejoin="round" stroke-miterlimit="10" fill="none" fill-rule="evenodd"/><path d="M568.647 685.733 568.647 1008.13" stroke="#000000" stroke-width="1.33333" stroke-linejoin="round" stroke-miterlimit="10" fill="none" fill-rule="evenodd"/><path d="M739.314 271.867 739.314 609.2" stroke="#000000" stroke-width="1.33333" stroke-linejoin="round" stroke-miterlimit="10" fill="none" fill-rule="evenodd"/><path d="M739.314 685.733 739.314 1008.13" stroke="#000000" stroke-width="1.33333" stroke-linejoin="round" stroke-miterlimit="10" fill="none" fill-rule="evenodd"/><path d="M909.98 271.867 909.98 609.2" stroke="#000000" stroke-width="1.33333" stroke-linejoin="round" stroke-miterlimit="10" fill="none" fill-rule="evenodd"/><path d="M909.98 685.733 909.98 1008.13" stroke="#000000" stroke-width="1.33333" stroke-linejoin="round" stroke-miterlimit="10" fill="none" fill-rule="evenodd"/><path d="M226.647 38.9333 1081.31 38.9333" stroke="#FFFFFF" stroke-width="4" stroke-linejoin="round" stroke-miterlimit="10" fill="none" fill-rule="evenodd"/><path d="M226.647 77.8667 1081.31 77.8667" stroke="#FFFFFF" stroke-width="1.33333" stroke-linejoin="round" stroke-miterlimit="10" fill="none" fill-rule="evenodd"/><path d="M226.647 116.8 1081.31 116.8" stroke="#FFFFFF" stroke-width="1.33333" stroke-linejoin="round" stroke-miterlimit="10" fill="none" fill-rule="evenodd"/><path d="M226.647 155.733 1081.31 155.733" stroke="#FFFFFF" stroke-width="1.33333" stroke-linejoin="round" stroke-miterlimit="10" fill="none" fill-rule="evenodd"/><path d="M226.647 194.667 1081.31 194.667" stroke="#FFFFFF" stroke-width="1.33333" stroke-linejoin="round" stroke-miterlimit="10" fill="none" fill-rule="evenodd"/><path d="M226.647 233.6 1081.31 233.6" stroke="#FFFFFF" stroke-width="1.33333" stroke-linejoin="round" stroke-miterlimit="10" fill="none" fill-rule="evenodd"/><path d="M225.814 272.533 399.48 272.533" stroke="#000000" stroke-width="3" stroke-linejoin="round" stroke-miterlimit="10" fill="none" fill-rule="evenodd"/><path d="M399.48 272.533 1081.31 272.533" stroke="#000000" stroke-width="1.33333" stroke-linejoin="round" stroke-miterlimit="10" fill="none" fill-rule="evenodd"/><path d="M225.814 307.733 399.48 307.733" stroke="#000000" stroke-width="3" stroke-linejoin="round" stroke-miterlimit="10" fill="none" fill-rule="evenodd"/><path d="M399.48 307.733 1081.31 307.733" stroke="#000000" stroke-width="1.33333" stroke-linejoin="round" stroke-miterlimit="10" fill="none" fill-rule="evenodd"/><path d="M225.814 451.733 399.48 451.733" stroke="#000000" stroke-width="3" stroke-linejoin="round" stroke-miterlimit="10" fill="none" fill-rule="evenodd"/><path d="M399.48 451.733 1081.31 451.733" stroke="#000000" stroke-width="1.33333" stroke-linejoin="round" stroke-miterlimit="10" fill="none" fill-rule="evenodd"/><path d="M397.314 486.933 1081.31 486.933" stroke="#000000" stroke-width="1.33333" stroke-linejoin="round" stroke-miterlimit="10" fill="none" fill-rule="evenodd"/><path d="M397.314 608.533 1081.31 608.533" stroke="#000000" stroke-width="1.33333" stroke-linejoin="round" stroke-miterlimit="10" fill="none" fill-rule="evenodd"/><path d="M226.647 647.467 1081.31 647.467" stroke="#FFFFFF" stroke-width="1.33333" stroke-linejoin="round" stroke-miterlimit="10" fill="none" fill-rule="evenodd"/><path d="M225.814 686.4 399.48 686.4" stroke="#000000" stroke-width="3" stroke-linejoin="round" stroke-miterlimit="10" fill="none" fill-rule="evenodd"/><path d="M399.48 686.4 568.647 686.4" stroke="#000000" stroke-width="1.33333" stroke-linejoin="round" stroke-miterlimit="10" fill="none" fill-rule="evenodd"/><path d="M568.647 686.4 739.314 686.4" stroke="#FFFFFF" stroke-width="1.33333" stroke-linejoin="round" stroke-miterlimit="10" fill="none" fill-rule="evenodd"/><path d="M739.314 686.4 1081.31 686.4" stroke="#000000" stroke-width="1.33333" stroke-linejoin="round" stroke-miterlimit="10" fill="none" fill-rule="evenodd"/><path d="M225.814 725.333 399.48 725.333" stroke="#000000" stroke-width="3" stroke-linejoin="round" stroke-miterlimit="10" fill="none" fill-rule="evenodd"/><path d="M399.48 725.333 1081.31 725.333" stroke="#000000" stroke-width="1.33333" stroke-linejoin="round" stroke-miterlimit="10" fill="none" fill-rule="evenodd"/><path d="M225.814 824.533 399.48 824.533" stroke="#000000" stroke-width="3" stroke-linejoin="round" stroke-miterlimit="10" fill="none" fill-rule="evenodd"/><path d="M399.48 824.533 1081.31 824.533" stroke="#000000" stroke-width="1.33333" stroke-linejoin="round" stroke-miterlimit="10" fill="none" fill-rule="evenodd"/><path d="M397.314 863.467 1081.31 863.467" stroke="#000000" stroke-width="1.33333" stroke-linejoin="round" stroke-miterlimit="10" fill="none" fill-rule="evenodd"/><path d="M227.314-0.666667 227.314 271.033" stroke="#FFFFFF" stroke-width="1.33333" stroke-linejoin="round" stroke-miterlimit="10" fill="none" fill-rule="evenodd"/><path d="M227.314 271.033 227.314 453.233" stroke="#000000" stroke-width="3" stroke-linejoin="round" stroke-miterlimit="10" fill="none" fill-rule="evenodd"/><path d="M227.314 608.533 227.314 684.9" stroke="#FFFFFF" stroke-width="1.33333" stroke-linejoin="round" stroke-miterlimit="10" fill="none" fill-rule="evenodd"/><path d="M227.314 684.9 227.314 826.033" stroke="#000000" stroke-width="3" stroke-linejoin="round" stroke-miterlimit="10" fill="none" fill-rule="evenodd"/><path d="M1080.65-0.666667 1080.65 272.533" stroke="#FFFFFF" stroke-width="1.33333" stroke-linejoin="round" stroke-miterlimit="10" fill="none" fill-rule="evenodd"/><path d="M1080.65 272.533 1080.65 608.533" stroke="#000000" stroke-width="1.33333" stroke-linejoin="round" stroke-miterlimit="10" fill="none" fill-rule="evenodd"/><path d="M1080.65 608.533 1080.65 686.4" stroke="#FFFFFF" stroke-width="1.33333" stroke-linejoin="round" stroke-miterlimit="10" fill="none" fill-rule="evenodd"/><path d="M1080.65 686.4 1080.65 1008.13" stroke="#000000" stroke-width="1.33333" stroke-linejoin="round" stroke-miterlimit="10" fill="none" fill-rule="evenodd"/><path d="M226.647 0 1081.31 0" stroke="#FFFFFF" stroke-width="1.33333" stroke-linejoin="round" stroke-miterlimit="10" fill="none" fill-rule="evenodd"/><path d="M397.314 1007.47 1081.31 1007.47" stroke="#000000" stroke-width="1.33333" stroke-linejoin="round" stroke-miterlimit="10" fill="none" fill-rule="evenodd"/><g><text fill="#FFFFFF" font-family="DengXian,DengXian_MSFontService,sans-serif" font-weight="700" font-size="24" transform="translate(236.914 27)">Day3/</text></g><text fill="#FFFFFF" font-family="DengXian,DengXian_MSFontService,sans-serif" font-weight="700" font-size="24" transform="translate(302.08 27)">July</text><text fill="#FFFFFF" font-family="DengXian,DengXian_MSFontService,sans-serif" font-weight="700" font-size="24" transform="translate(350.747 27)">7,</text><text fill="#FFFFFF" font-family="DengXian,DengXian_MSFontService,sans-serif" font-weight="700" font-size="24" transform="translate(376.58 27)">2023</text><g><text font-family="DengXian,DengXian_MSFontService,sans-serif" font-weight="700" font-size="24" transform="translate(578.247 66)">Plenary Speech</text></g><g><text font-family="DengXian,DengXian_MSFontService,sans-serif" font-weight="700" font-size="24" transform="translate(236.914 66)">08:30</text></g><text font-family="DengXian,DengXian_MSFontService,sans-serif" font-weight="700" font-size="24" transform="translate(296.08 66)">-</text><text font-family="DengXian,DengXian_MSFontService,sans-serif" font-weight="700" font-size="24" transform="translate(308.08 66)">10:10</text><g><text font-family="DengXian,DengXian_MSFontService,sans-serif" font-weight="700" font-size="24" transform="translate(578.247 105)">Coffee &amp; Tea Break</text></g><g><text font-family="DengXian,DengXian_MSFontService,sans-serif" font-weight="700" font-size="24" transform="translate(236.914 105)">10:10</text></g><text font-family="DengXian,DengXian_MSFontService,sans-serif" font-weight="700" font-size="24" transform="translate(296.08 105)">-</text><text font-family="DengXian,DengXian_MSFontService,sans-serif" font-weight="700" font-size="24" transform="translate(308.08 105)">10:35</text><g><text font-family="DengXian,DengXian_MSFontService,sans-serif" font-weight="700" font-size="24" transform="translate(578.247 144)">Plenary Speech</text></g><g><text font-family="DengXian,DengXian_MSFontService,sans-serif" font-weight="700" font-size="24" transform="translate(236.914 144)">10:35</text></g><text font-family="DengXian,DengXian_MSFontService,sans-serif" font-weight="700" font-size="24" transform="translate(296.08 144)">-</text><text font-family="DengXian,DengXian_MSFontService,sans-serif" font-weight="700" font-size="24" transform="translate(308.08 144)">11:15</text><g><text font-family="DengXian,DengXian_MSFontService,sans-serif" font-weight="700" font-size="24" transform="translate(578.247 183)">Keynote Speech</text></g><g><text font-family="DengXian,DengXian_MSFontService,sans-serif" font-weight="700" font-size="24" transform="translate(236.914 183)">11:15</text></g><text font-family="DengXian,DengXian_MSFontService,sans-serif" font-weight="700" font-size="24" transform="translate(296.08 183)">-</text><text font-family="DengXian,DengXian_MSFontService,sans-serif" font-weight="700" font-size="24" transform="translate(308.08 183)">12:15</text><g><text font-family="DengXian,DengXian_MSFontService,sans-serif" font-weight="700" font-size="24" transform="translate(578.247 221)">Lunch &amp; Break</text></g><g><text font-family="DengXian,DengXian_MSFontService,sans-serif" font-weight="700" font-size="24" transform="translate(236.914 221)">12:15</text></g><text font-family="DengXian,DengXian_MSFontService,sans-serif" font-weight="700" font-size="24" transform="translate(296.08 221)">-</text><text font-family="DengXian,DengXian_MSFontService,sans-serif" font-weight="700" font-size="24" transform="translate(308.08 221)">13:30</text><g><text font-family="DengXian,DengXian_MSFontService,sans-serif" font-weight="700" font-size="24" transform="translate(578.247 260)">Session</text></g><text font-family="DengXian,DengXian_MSFontService,sans-serif" font-weight="700" font-size="24" transform="translate(666.08 260)">Ⅲ (S17</text><text font-family="DengXian,DengXian_MSFontService,sans-serif" font-weight="700" font-size="24" transform="translate(751.08 260)">–</text><text font-family="DengXian,DengXian_MSFontService,sans-serif" font-weight="700" font-size="24" transform="translate(769.747 260)">S24)</text><g><text font-family="DengXian,DengXian_MSFontService,sans-serif" font-weight="700" font-size="24" transform="translate(236.914 260)">13:30</text></g><text font-family="DengXian,DengXian_MSFontService,sans-serif" font-weight="700" font-size="24" transform="translate(296.08 260)">-</text><text font-family="DengXian,DengXian_MSFontService,sans-serif" font-weight="700" font-size="24" transform="translate(308.08 260)">15:30</text><text font-family="DengXian,DengXian_MSFontService,sans-serif" font-weight="700" font-size="21" transform="translate(977.647 297)">S20</text><text font-family="DengXian,DengXian_MSFontService,sans-serif" font-weight="700" font-size="21" transform="translate(806.98 297)">S19</text><text font-family="DengXian,DengXian_MSFontService,sans-serif" font-weight="700" font-size="21" transform="translate(636.314 297)">S18</text><text font-family="DengXian,DengXian_MSFontService,sans-serif" font-weight="700" font-size="21" transform="translate(465.647 297)">S17</text><text font-family="DengXian,DengXian_MSFontService,sans-serif" font-weight="700" font-size="21" transform="translate(294.147 297)">C01</text><text font-family="DengXian,DengXian_MSFontService,sans-serif" font-weight="700" font-size="19" transform="translate(947.814 363)">Design and</text><text font-family="DengXian,DengXian_MSFontService,sans-serif" font-weight="700" font-size="19" transform="translate(952.314 386)">Control of</text><text font-family="DengXian,DengXian_MSFontService,sans-serif" font-weight="700" font-size="19" transform="translate(931.48 408)">Legged Robots</text><text font-family="DengXian,DengXian_MSFontService,sans-serif" font-weight="700" font-size="19" transform="translate(772.65 352)">Knowledge</text><text font-family="DengXian,DengXian_MSFontService,sans-serif" font-weight="700" font-size="19" transform="translate(867.317 352)">-</text><text font-family="DengXian,DengXian_MSFontService,sans-serif" font-weight="700" font-size="19" transform="translate(771.15 375)">based Robot</text><text font-family="DengXian,DengXian_MSFontService,sans-serif" font-weight="700" font-size="19" transform="translate(752.65 397)">Decision</text><text font-family="DengXian,DengXian_MSFontService,sans-serif" font-weight="700" font-size="19" transform="translate(824.484 397)">-</text><g><text font-family="DengXian,DengXian_MSFontService,sans-serif" font-weight="700" font-size="19" transform="translate(833.817 397)">making</text></g><g><text font-family="DengXian,DengXian_MSFontService,sans-serif" font-weight="700" font-size="19" transform="translate(749.897 420)">and Manipulation</text></g><text font-family="DengXian,DengXian_MSFontService,sans-serif" font-weight="700" font-size="19" transform="translate(612.147 330)">Advanced</text><text font-family="DengXian,DengXian_MSFontService,sans-serif" font-weight="700" font-size="19" transform="translate(602.647 353)">Sensing and</text><text font-family="DengXian,DengXian_MSFontService,sans-serif" font-weight="700" font-size="19" transform="translate(622.394 375)">Control</text><text font-family="DengXian,DengXian_MSFontService,sans-serif" font-weight="700" font-size="19" transform="translate(589.814 398)">Technology for</text><text font-family="DengXian,DengXian_MSFontService,sans-serif" font-weight="700" font-size="19" transform="translate(595.06 420)">Human</text><text font-family="DengXian,DengXian_MSFontService,sans-serif" font-weight="700" font-size="19" transform="translate(656.56 420)">-</text><text font-family="DengXian,DengXian_MSFontService,sans-serif" font-weight="700" font-size="19" transform="translate(665.894 420)">robot</text><text font-family="DengXian,DengXian_MSFontService,sans-serif" font-weight="700" font-size="19" transform="translate(608.06 442)">Interaction</text><text font-family="DengXian,DengXian_MSFontService,sans-serif" font-weight="700" font-size="19" transform="translate(420.397 352)">Robotic Tactile</text><text font-family="DengXian,DengXian_MSFontService,sans-serif" font-weight="700" font-size="19" transform="translate(439.984 375)">Sensation,</text><text font-family="DengXian,DengXian_MSFontService,sans-serif" font-weight="700" font-size="19" transform="translate(417.064 397)">Perception, and</text><text font-family="DengXian,DengXian_MSFontService,sans-serif" font-weight="700" font-size="19" transform="translate(431.064 420)">Applications</text><text font-family="DengXian,DengXian_MSFontService,sans-serif" font-weight="700" font-size="19" transform="translate(255.48 363)">Cutting</text><text font-family="DengXian,DengXian_MSFontService,sans-serif" font-weight="700" font-size="19" transform="translate(318.147 363)">-</text><text font-family="DengXian,DengXian_MSFontService,sans-serif" font-weight="700" font-size="19" transform="translate(327.48 363)">edge</text><text font-family="DengXian,DengXian_MSFontService,sans-serif" font-weight="700" font-size="19" transform="translate(266.727 386)">research in</text><text font-family="DengXian,DengXian_MSFontService,sans-serif" font-weight="700" font-size="19" transform="translate(266.814 408)">robotics</text><text font-family="DengXian,DengXian_MSFontService,sans-serif" font-weight="700" font-size="19" transform="translate(340.647 408)">(I)</text><text font-family="DengXian,DengXian_MSFontService,sans-serif" font-weight="700" font-size="21" transform="translate(977.647 477)">S24</text><text font-family="DengXian,DengXian_MSFontService,sans-serif" font-weight="700" font-size="21" transform="translate(806.98 477)">S23</text><text font-family="DengXian,DengXian_MSFontService,sans-serif" font-weight="700" font-size="21" transform="translate(636.314 477)">S22</text><text font-family="DengXian,DengXian_MSFontService,sans-serif" font-weight="700" font-size="21" transform="translate(465.647 477)">S21</text><text font-family="DengXian,DengXian_MSFontService,sans-serif" font-weight="700" font-size="19" transform="translate(951.817 520)">Visual and</text><text font-family="DengXian,DengXian_MSFontService,sans-serif" font-weight="700" font-size="19" transform="translate(939.817 543)">Visual</text><text font-family="DengXian,DengXian_MSFontService,sans-serif" font-weight="700" font-size="19" transform="translate(989.984 543)">-</text><text font-family="DengXian,DengXian_MSFontService,sans-serif" font-weight="700" font-size="19" transform="translate(999.317 543)">tactile</text><text font-family="DengXian,DengXian_MSFontService,sans-serif" font-weight="700" font-size="19" transform="translate(934.897 565)">Perception for</text><text font-family="DengXian,DengXian_MSFontService,sans-serif" font-weight="700" font-size="19" transform="translate(958.564 588)">Robotics</text><text font-family="DengXian,DengXian_MSFontService,sans-serif" font-weight="700" font-size="19" transform="translate(787.317 509)">Clinically</text><text font-family="DengXian,DengXian_MSFontService,sans-serif" font-weight="700" font-size="19" transform="translate(755.73 532)">Oriented Design</text><text font-family="DengXian,DengXian_MSFontService,sans-serif" font-weight="700" font-size="19" transform="translate(781.484 554)">in Robotic</text><text font-family="DengXian,DengXian_MSFontService,sans-serif" font-weight="700" font-size="19" transform="translate(773.564 577)">Surgery and</text><text font-family="DengXian,DengXian_MSFontService,sans-serif" font-weight="700" font-size="19" transform="translate(765.817 599)">Rehabilitation</text><text font-family="DengXian,DengXian_MSFontService,sans-serif" font-weight="700" font-size="19" transform="translate(621.227 520)">Robotic</text><text font-family="DengXian,DengXian_MSFontService,sans-serif" font-weight="700" font-size="19" transform="translate(597.98 543)">Machining of</text><text font-family="DengXian,DengXian_MSFontService,sans-serif" font-weight="700" font-size="19" transform="translate(616.647 565)">Complex</text><text font-family="DengXian,DengXian_MSFontService,sans-serif" font-weight="700" font-size="19" transform="translate(599.98 588)">Components</text><text font-family="DengXian,DengXian_MSFontService,sans-serif" font-weight="700" font-size="19" transform="translate(442.984 520)">Robots in</text><text font-family="DengXian,DengXian_MSFontService,sans-serif" font-weight="700" font-size="19" transform="translate(420.23 543)">Tunnelling and</text><text font-family="DengXian,DengXian_MSFontService,sans-serif" font-weight="700" font-size="19" transform="translate(426.317 565)">Underground</text><text font-family="DengXian,DengXian_MSFontService,sans-serif" font-weight="700" font-size="19" transform="translate(458.397 588)">Space</text><g><text font-family="DengXian,DengXian_MSFontService,sans-serif" font-weight="700" font-size="24" transform="translate(517.561 635)">Poster Session (Coffee &amp; Tea Break)</text></g><g><text font-family="DengXian,DengXian_MSFontService,sans-serif" font-weight="700" font-size="24" transform="translate(236.914 635)">15:30</text></g><text font-family="DengXian,DengXian_MSFontService,sans-serif" font-weight="700" font-size="24" transform="translate(296.08 635)">-</text><text font-family="DengXian,DengXian_MSFontService,sans-serif" font-weight="700" font-size="24" transform="translate(308.08 635)">15:45</text><g><text font-family="DengXian,DengXian_MSFontService,sans-serif" font-weight="700" font-size="24" transform="translate(517.561 674)">Session</text></g><text font-family="DengXian,DengXian_MSFontService,sans-serif" font-weight="700" font-size="24" transform="translate(605.394 674)">Ⅳ (S25</text><text font-family="DengXian,DengXian_MSFontService,sans-serif" font-weight="700" font-size="24" transform="translate(690.394 674)">–</text><text font-family="DengXian,DengXian_MSFontService,sans-serif" font-weight="700" font-size="24" transform="translate(709.061 674)">S32)</text><g><text font-family="DengXian,DengXian_MSFontService,sans-serif" font-weight="700" font-size="24" transform="translate(236.914 674)">15:45</text></g><text font-family="DengXian,DengXian_MSFontService,sans-serif" font-weight="700" font-size="24" transform="translate(296.08 674)">-</text><text font-family="DengXian,DengXian_MSFontService,sans-serif" font-weight="700" font-size="24" transform="translate(308.08 674)">17:45</text><text font-family="DengXian,DengXian_MSFontService,sans-serif" font-weight="700" font-size="21" transform="translate(977.647 711)">S28</text><text font-family="DengXian,DengXian_MSFontService,sans-serif" font-weight="700" font-size="21" transform="translate(806.98 711)">S27</text><text font-family="DengXian,DengXian_MSFontService,sans-serif" font-weight="700" font-size="21" transform="translate(636.314 711)">S26</text><text font-family="DengXian,DengXian_MSFontService,sans-serif" font-weight="700" font-size="21" transform="translate(465.647 711)">S25</text><text font-family="DengXian,DengXian_MSFontService,sans-serif" font-weight="700" font-size="21" transform="translate(294.147 711)">C02</text><text font-family="DengXian,DengXian_MSFontService,sans-serif" font-weight="700" font-size="19" transform="translate(943.227 747)">Physical and</text><text font-family="DengXian,DengXian_MSFontService,sans-serif" font-weight="700" font-size="19" transform="translate(941.06 770)">Neurological</text><text font-family="DengXian,DengXian_MSFontService,sans-serif" font-weight="700" font-size="19" transform="translate(933.98 792)">Human</text><text font-family="DengXian,DengXian_MSFontService,sans-serif" font-weight="700" font-size="19" transform="translate(995.48 792)">-</text><text font-family="DengXian,DengXian_MSFontService,sans-serif" font-weight="700" font-size="19" transform="translate(1004.81 792)">Robot</text><text font-family="DengXian,DengXian_MSFontService,sans-serif" font-weight="700" font-size="19" transform="translate(949.394 815)">Interaction</text><text font-family="DengXian,DengXian_MSFontService,sans-serif" font-weight="700" font-size="19" transform="translate(774.23 747)">Multi</text><text font-family="DengXian,DengXian_MSFontService,sans-serif" font-weight="700" font-size="19" transform="translate(818.73 747)">-</text><text font-family="DengXian,DengXian_MSFontService,sans-serif" font-weight="700" font-size="19" transform="translate(828.064 747)">robot</text><g><text font-family="DengXian,DengXian_MSFontService,sans-serif" font-weight="700" font-size="19" transform="translate(754.73 770)">Systems for Real</text></g><text font-family="DengXian,DengXian_MSFontService,sans-serif" font-weight="700" font-size="19" transform="translate(798.65 792)">World</text><text font-family="DengXian,DengXian_MSFontService,sans-serif" font-weight="700" font-size="19" transform="translate(772.397 815)">Applications</text><text font-family="DengXian,DengXian_MSFontService,sans-serif" font-weight="700" font-size="19" transform="translate(584.894 770)">Marine Robotics</text><text font-family="DengXian,DengXian_MSFontService,sans-serif" font-weight="700" font-size="19" transform="translate(583.314 793)">and Applications</text><text font-family="DengXian,DengXian_MSFontService,sans-serif" font-weight="700" font-size="19" transform="translate(435.484 747)">Perception,</text><text font-family="DengXian,DengXian_MSFontService,sans-serif" font-weight="700" font-size="19" transform="translate(416.73 770)">Interaction, and</text><text font-family="DengXian,DengXian_MSFontService,sans-serif" font-weight="700" font-size="19" transform="translate(440.317 792)">Control of</text><text font-family="DengXian,DengXian_MSFontService,sans-serif" font-weight="700" font-size="19" transform="translate(410.73 815)">Wearable Robots</text><text font-family="DengXian,DengXian_MSFontService,sans-serif" font-weight="700" font-size="19" transform="translate(255.48 758)">Cutting</text><text font-family="DengXian,DengXian_MSFontService,sans-serif" font-weight="700" font-size="19" transform="translate(318.147 758)">-</text><text font-family="DengXian,DengXian_MSFontService,sans-serif" font-weight="700" font-size="19" transform="translate(327.48 758)">edge</text><text font-family="DengXian,DengXian_MSFontService,sans-serif" font-weight="700" font-size="19" transform="translate(266.727 781)">research in</text><text font-family="DengXian,DengXian_MSFontService,sans-serif" font-weight="700" font-size="19" transform="translate(260.227 803)">robotics</text><text font-family="DengXian,DengXian_MSFontService,sans-serif" font-weight="700" font-size="19" transform="translate(334.06 803)">(Ⅱ)</text><text font-family="DengXian,DengXian_MSFontService,sans-serif" font-weight="700" font-size="21" transform="translate(977.647 849)">S32</text><text font-family="DengXian,DengXian_MSFontService,sans-serif" font-weight="700" font-size="21" transform="translate(806.98 849)">S31</text><text font-family="DengXian,DengXian_MSFontService,sans-serif" font-weight="700" font-size="21" transform="translate(636.314 849)">S30</text><text font-family="DengXian,DengXian_MSFontService,sans-serif" font-weight="700" font-size="21" transform="translate(465.647 849)">S29</text><text font-family="DengXian,DengXian_MSFontService,sans-serif" font-weight="700" font-size="19" transform="translate(951.06 885)">Innovative</text><text font-family="DengXian,DengXian_MSFontService,sans-serif" font-weight="700" font-size="19" transform="translate(947.814 908)">Design and</text><text font-family="DengXian,DengXian_MSFontService,sans-serif" font-weight="700" font-size="19" transform="translate(941.314 930)">Performance</text><text font-family="DengXian,DengXian_MSFontService,sans-serif" font-weight="700" font-size="19" transform="translate(940.06 953)">Evaluation of</text><text font-family="DengXian,DengXian_MSFontService,sans-serif" font-weight="700" font-size="19" transform="translate(969.394 975)">Robot</text><text font-family="DengXian,DengXian_MSFontService,sans-serif" font-weight="700" font-size="19" transform="translate(924.814 997)">Mechanisms (Ⅱ)</text><text font-family="DengXian,DengXian_MSFontService,sans-serif" font-weight="700" font-size="19" transform="translate(777.484 896)">Robotics in</text><text font-family="DengXian,DengXian_MSFontService,sans-serif" font-weight="700" font-size="19" transform="translate(776.317 919)">Sustainable</text><text font-family="DengXian,DengXian_MSFontService,sans-serif" font-weight="700" font-size="19" transform="translate(762.23 941)">Manufacturing</text><text font-family="DengXian,DengXian_MSFontService,sans-serif" font-weight="700" font-size="19" transform="translate(779.15 964)">for Carbon</text><text font-family="DengXian,DengXian_MSFontService,sans-serif" font-weight="700" font-size="19" transform="translate(782.564 986)">Neutrality</text><text font-family="DengXian,DengXian_MSFontService,sans-serif" font-weight="700" font-size="19" transform="translate(610.897 919)">Intelligent</text><text font-family="DengXian,DengXian_MSFontService,sans-serif" font-weight="700" font-size="19" transform="translate(610.064 942)">Inspection</text><text font-family="DengXian,DengXian_MSFontService,sans-serif" font-weight="700" font-size="19" transform="translate(617.23 964)">Robotics</text><g><text font-family="DengXian,DengXian_MSFontService,sans-serif" font-weight="700" font-size="19" transform="translate(407.897 908)">Advanced Motion</text></g><text font-family="DengXian,DengXian_MSFontService,sans-serif" font-weight="700" font-size="19" transform="translate(451.73 931)">Control</text><g><text font-family="DengXian,DengXian_MSFontService,sans-serif" font-weight="700" font-size="19" transform="translate(412.484 953)">Technologies for</text></g><text font-family="DengXian,DengXian_MSFontService,sans-serif" font-weight="700" font-size="19" transform="translate(421.15 976)">Mobile Robots</text></g></svg>