<svg width="858" height="883" xmlns="http://www.w3.org/2000/svg" xmlns:xlink="http://www.w3.org/1999/xlink" overflow="hidden"><defs><clipPath id="clip0"><rect x="226" y="-3" width="858" height="883"/></clipPath><clipPath id="clip1"><rect x="227" y="-82" width="854" height="202"/></clipPath><clipPath id="clip2"><rect x="511" y="-43" width="570" height="202"/></clipPath><clipPath id="clip3"><rect x="227" y="-43" width="285" height="202"/></clipPath><clipPath id="clip4"><rect x="511" y="-4" width="570" height="202"/></clipPath><clipPath id="clip5"><rect x="227" y="-4" width="285" height="202"/></clipPath><clipPath id="clip6"><rect x="511" y="35" width="570" height="202"/></clipPath><clipPath id="clip7"><rect x="227" y="35" width="285" height="202"/></clipPath><clipPath id="clip8"><rect x="511" y="74" width="570" height="202"/></clipPath><clipPath id="clip9"><rect x="227" y="74" width="285" height="202"/></clipPath><clipPath id="clip10"><rect x="511" y="113" width="570" height="202"/></clipPath><clipPath id="clip11"><rect x="227" y="113" width="285" height="202"/></clipPath><clipPath id="clip12"><rect x="511" y="152" width="570" height="202"/></clipPath><clipPath id="clip13"><rect x="227" y="152" width="285" height="202"/></clipPath><clipPath id="clip14"><rect x="867" y="200" width="214" height="315"/></clipPath><clipPath id="clip15"><rect x="440" y="43" width="214" height="628"/></clipPath><clipPath id="clip16"><rect x="227" y="122" width="214" height="471"/></clipPath><clipPath id="clip17"><rect x="440" y="334" width="214" height="315"/></clipPath><clipPath id="clip18"><rect x="511" y="459" width="570" height="203"/></clipPath><clipPath id="clip19"><rect x="227" y="459" width="285" height="203"/></clipPath><clipPath id="clip20"><rect x="511" y="498" width="570" height="203"/></clipPath><clipPath id="clip21"><rect x="227" y="498" width="285" height="203"/></clipPath><clipPath id="clip22"><rect x="227" y="461" width="214" height="471"/></clipPath><clipPath id="clip23"><rect x="867" y="509" width="214" height="629"/></clipPath></defs><g clip-path="url(#clip0)" transform="translate(-226 3)"><path d="M227.314 0 1080.65 0 1080.65 38.9333 227.314 38.9333Z" fill="#4472C4" fill-rule="evenodd"/><path d="M227.314 38.9333 511.758 38.9333 511.758 77.8667 227.314 77.8667Z" fill="#CFD5EA" fill-rule="evenodd"/><path d="M511.758 38.9333 1080.65 38.9333 1080.65 77.8667 511.758 77.8667Z" fill="#CFD5EA" fill-rule="evenodd"/><path d="M227.314 77.8667 511.758 77.8667 511.758 116.8 227.314 116.8Z" fill="#E9EBF5" fill-rule="evenodd"/><path d="M511.758 77.8667 1080.65 77.8667 1080.65 116.8 511.758 116.8Z" fill="#E9EBF5" fill-rule="evenodd"/><path d="M227.314 116.8 511.758 116.8 511.758 155.733 227.314 155.733Z" fill="#CFD5EA" fill-rule="evenodd"/><path d="M511.758 116.8 1080.65 116.8 1080.65 155.733 511.758 155.733Z" fill="#CFD5EA" fill-rule="evenodd"/><path d="M227.314 155.733 511.758 155.733 511.758 194.667 227.314 194.667Z" fill="#E9EBF5" fill-rule="evenodd"/><path d="M511.758 155.733 1080.65 155.733 1080.65 194.667 511.758 194.667Z" fill="#E9EBF5" fill-rule="evenodd"/><path d="M227.314 194.667 511.758 194.667 511.758 233.6 227.314 233.6Z" fill="#CFD5EA" fill-rule="evenodd"/><path d="M511.758 194.667 1080.65 194.667 1080.65 233.6 511.758 233.6Z" fill="#CFD5EA" fill-rule="evenodd"/><path d="M227.314 233.6 511.758 233.6 511.758 272.533 227.314 272.533Z" fill="#E9EBF5" fill-rule="evenodd"/><path d="M511.758 233.6 1080.65 233.6 1080.65 272.533 511.758 272.533Z" fill="#E9EBF5" fill-rule="evenodd"/><path d="M227.314 272.533 440.647 272.533 440.647 307.733 227.314 307.733Z" fill="#CFD5EA" fill-rule="evenodd"/><path d="M440.647 272.533 653.98 272.533 653.98 307.733 440.647 307.733Z" fill="#CFD5EA" fill-rule="evenodd"/><path d="M653.98 272.533 867.314 272.533 867.314 307.733 653.98 307.733Z" fill="#CFD5EA" fill-rule="evenodd"/><path d="M867.314 272.533 1080.65 272.533 1080.65 307.733 867.314 307.733Z" fill="#CFD5EA" fill-rule="evenodd"/><path d="M227.314 307.733 440.647 307.733 440.647 406.933 227.314 406.933Z" fill="#E9EBF5" fill-rule="evenodd"/><path d="M440.647 307.733 653.98 307.733 653.98 406.933 440.647 406.933Z" fill="#E9EBF5" fill-rule="evenodd"/><path d="M653.98 307.733 867.314 307.733 867.314 406.933 653.98 406.933Z" fill="#E9EBF5" fill-rule="evenodd"/><path d="M867.314 307.733 1080.65 307.733 1080.65 406.933 867.314 406.933Z" fill="#E9EBF5" fill-rule="evenodd"/><path d="M227.314 406.933 440.647 406.933 440.647 442.133 227.314 442.133Z" fill="#CFD5EA" fill-rule="evenodd"/><path d="M440.647 406.933 653.98 406.933 653.98 442.133 440.647 442.133Z" fill="#CFD5EA" fill-rule="evenodd"/><path d="M653.98 406.933 867.314 406.933 867.314 442.133 653.98 442.133Z" fill="#CFD5EA" fill-rule="evenodd"/><path d="M867.314 406.933 1080.65 406.933 1080.65 442.133 867.314 442.133Z" fill="#CFD5EA" fill-rule="evenodd"/><path d="M227.314 442.133 440.647 442.133 440.647 541.333 227.314 541.333Z" fill="#E9EBF5" fill-rule="evenodd"/><path d="M440.647 442.133 653.98 442.133 653.98 541.333 440.647 541.333Z" fill="#E9EBF5" fill-rule="evenodd"/><path d="M653.98 442.133 867.314 442.133 867.314 541.333 653.98 541.333Z" fill="#E9EBF5" fill-rule="evenodd"/><path d="M867.314 442.133 1080.65 442.133 1080.65 541.333 867.314 541.333Z" fill="#E9EBF5" fill-rule="evenodd"/><path d="M227.314 541.333 511.758 541.333 511.758 580.267 227.314 580.267Z" fill="#CFD5EA" fill-rule="evenodd"/><path d="M511.758 541.333 1080.65 541.333 1080.65 580.267 511.758 580.267Z" fill="#CFD5EA" fill-rule="evenodd"/><path d="M227.314 580.267 511.758 580.267 511.758 619.2 227.314 619.2Z" fill="#E9EBF5" fill-rule="evenodd"/><path d="M511.758 580.267 1080.65 580.267 1080.65 619.2 511.758 619.2Z" fill="#E9EBF5" fill-rule="evenodd"/><path d="M227.314 619.2 440.647 619.2 440.647 658.133 227.314 658.133Z" fill="#CFD5EA" fill-rule="evenodd"/><path d="M440.647 619.2 653.98 619.2 653.98 658.133 440.647 658.133Z" fill="#CFD5EA" fill-rule="evenodd"/><path d="M653.98 619.2 867.314 619.2 867.314 658.133 653.98 658.133Z" fill="#CFD5EA" fill-rule="evenodd"/><path d="M867.314 619.2 1080.65 619.2 1080.65 658.133 867.314 658.133Z" fill="#CFD5EA" fill-rule="evenodd"/><path d="M227.314 658.133 440.647 658.133 440.647 734.933 227.314 734.933Z" fill="#E9EBF5" fill-rule="evenodd"/><path d="M440.647 658.133 653.98 658.133 653.98 734.933 440.647 734.933Z" fill="#E9EBF5" fill-rule="evenodd"/><path d="M653.98 658.133 867.314 658.133 867.314 734.933 653.98 734.933Z" fill="#E9EBF5" fill-rule="evenodd"/><path d="M867.314 658.133 1080.65 658.133 1080.65 734.933 867.314 734.933Z" fill="#E9EBF5" fill-rule="evenodd"/><path d="M227.314 734.933 440.647 734.933 440.647 773.867 227.314 773.867Z" fill="#CFD5EA" fill-rule="evenodd"/><path d="M440.647 734.933 653.98 734.933 653.98 773.867 440.647 773.867Z" fill="#CFD5EA" fill-rule="evenodd"/><path d="M653.98 734.933 867.314 734.933 867.314 773.867 653.98 773.867Z" fill="#CFD5EA" fill-rule="evenodd"/><path d="M867.314 734.933 1080.65 734.933 1080.65 773.867 867.314 773.867Z" fill="#CFD5EA" fill-rule="evenodd"/><path d="M227.314 773.867 440.647 773.867 440.647 873.067 227.314 873.067Z" fill="#E9EBF5" fill-rule="evenodd"/><path d="M440.647 773.867 653.98 773.867 653.98 873.067 440.647 873.067Z" fill="#E9EBF5" fill-rule="evenodd"/><path d="M653.98 773.867 867.314 773.867 867.314 873.067 653.98 873.067Z" fill="#E9EBF5" fill-rule="evenodd"/><path d="M867.314 773.867 1080.65 773.867 1080.65 873.067 867.314 873.067Z" fill="#E9EBF5" fill-rule="evenodd"/><path d="M440.647 271.867 440.647 542" stroke="#000000" stroke-width="1.33333" stroke-linejoin="round" stroke-miterlimit="10" fill="none" fill-rule="evenodd"/><path d="M440.647 618.533 440.647 873.733" stroke="#000000" stroke-width="1.33333" stroke-linejoin="round" stroke-miterlimit="10" fill="none" fill-rule="evenodd"/><path d="M511.758 36.9333 511.758 273.2" stroke="#FFFFFF" stroke-width="1.33333" stroke-linejoin="round" stroke-miterlimit="10" fill="none" fill-rule="evenodd"/><path d="M511.758 540.667 511.758 619.867" stroke="#FFFFFF" stroke-width="1.33333" stroke-linejoin="round" stroke-miterlimit="10" fill="none" fill-rule="evenodd"/><path d="M653.98 271.867 653.98 542" stroke="#000000" stroke-width="1.33333" stroke-linejoin="round" stroke-miterlimit="10" fill="none" fill-rule="evenodd"/><path d="M653.98 618.533 653.98 873.733" stroke="#000000" stroke-width="1.33333" stroke-linejoin="round" stroke-miterlimit="10" fill="none" fill-rule="evenodd"/><path d="M867.314 271.867 867.314 542" stroke="#000000" stroke-width="1.33333" stroke-linejoin="round" stroke-miterlimit="10" fill="none" fill-rule="evenodd"/><path d="M867.314 618.533 867.314 873.733" stroke="#000000" stroke-width="1.33333" stroke-linejoin="round" stroke-miterlimit="10" fill="none" fill-rule="evenodd"/><path d="M226.647 38.9333 1081.31 38.9333" stroke="#FFFFFF" stroke-width="4" stroke-linejoin="round" stroke-miterlimit="10" fill="none" fill-rule="evenodd"/><path d="M226.647 77.8667 1081.31 77.8667" stroke="#FFFFFF" stroke-width="1.33333" stroke-linejoin="round" stroke-miterlimit="10" fill="none" fill-rule="evenodd"/><path d="M226.647 116.8 1081.31 116.8" stroke="#FFFFFF" stroke-width="1.33333" stroke-linejoin="round" stroke-miterlimit="10" fill="none" fill-rule="evenodd"/><path d="M226.647 155.733 1081.31 155.733" stroke="#FFFFFF" stroke-width="1.33333" stroke-linejoin="round" stroke-miterlimit="10" fill="none" fill-rule="evenodd"/><path d="M226.647 194.667 1081.31 194.667" stroke="#FFFFFF" stroke-width="1.33333" stroke-linejoin="round" stroke-miterlimit="10" fill="none" fill-rule="evenodd"/><path d="M226.647 233.6 1081.31 233.6" stroke="#FFFFFF" stroke-width="1.33333" stroke-linejoin="round" stroke-miterlimit="10" fill="none" fill-rule="evenodd"/><path d="M226.647 272.533 1081.31 272.533" stroke="#000000" stroke-width="1.33333" stroke-linejoin="round" stroke-miterlimit="10" fill="none" fill-rule="evenodd"/><path d="M226.647 307.733 1081.31 307.733" stroke="#000000" stroke-width="1.33333" stroke-linejoin="round" stroke-miterlimit="10" fill="none" fill-rule="evenodd"/><path d="M226.647 406.933 1081.31 406.933" stroke="#000000" stroke-width="1.33333" stroke-linejoin="round" stroke-miterlimit="10" fill="none" fill-rule="evenodd"/><path d="M226.647 442.133 1081.31 442.133" stroke="#000000" stroke-width="1.33333" stroke-linejoin="round" stroke-miterlimit="10" fill="none" fill-rule="evenodd"/><path d="M226.647 541.333 1081.31 541.333" stroke="#000000" stroke-width="1.33333" stroke-linejoin="round" stroke-miterlimit="10" fill="none" fill-rule="evenodd"/><path d="M226.647 580.267 1081.31 580.267" stroke="#FFFFFF" stroke-width="1.33333" stroke-linejoin="round" stroke-miterlimit="10" fill="none" fill-rule="evenodd"/><path d="M226.647 619.2 1081.31 619.2" stroke="#000000" stroke-width="1.33333" stroke-linejoin="round" stroke-miterlimit="10" fill="none" fill-rule="evenodd"/><path d="M226.647 658.133 1081.31 658.133" stroke="#000000" stroke-width="1.33333" stroke-linejoin="round" stroke-miterlimit="10" fill="none" fill-rule="evenodd"/><path d="M226.647 734.933 1081.31 734.933" stroke="#000000" stroke-width="1.33333" stroke-linejoin="round" stroke-miterlimit="10" fill="none" fill-rule="evenodd"/><path d="M226.647 773.867 1081.31 773.867" stroke="#000000" stroke-width="1.33333" stroke-linejoin="round" stroke-miterlimit="10" fill="none" fill-rule="evenodd"/><path d="M227.314-0.666667 227.314 272.533" stroke="#FFFFFF" stroke-width="1.33333" stroke-linejoin="round" stroke-miterlimit="10" fill="none" fill-rule="evenodd"/><path d="M227.314 272.533 227.314 541.333" stroke="#000000" stroke-width="1.33333" stroke-linejoin="round" stroke-miterlimit="10" fill="none" fill-rule="evenodd"/><path d="M227.314 541.333 227.314 619.2" stroke="#FFFFFF" stroke-width="1.33333" stroke-linejoin="round" stroke-miterlimit="10" fill="none" fill-rule="evenodd"/><path d="M227.314 619.2 227.314 873.733" stroke="#000000" stroke-width="1.33333" stroke-linejoin="round" stroke-miterlimit="10" fill="none" fill-rule="evenodd"/><path d="M1080.65-0.666667 1080.65 272.533" stroke="#FFFFFF" stroke-width="1.33333" stroke-linejoin="round" stroke-miterlimit="10" fill="none" fill-rule="evenodd"/><path d="M1080.65 272.533 1080.65 541.333" stroke="#000000" stroke-width="1.33333" stroke-linejoin="round" stroke-miterlimit="10" fill="none" fill-rule="evenodd"/><path d="M1080.65 541.333 1080.65 619.2" stroke="#FFFFFF" stroke-width="1.33333" stroke-linejoin="round" stroke-miterlimit="10" fill="none" fill-rule="evenodd"/><path d="M1080.65 619.2 1080.65 873.733" stroke="#000000" stroke-width="1.33333" stroke-linejoin="round" stroke-miterlimit="10" fill="none" fill-rule="evenodd"/><path d="M226.647 0 1081.31 0" stroke="#FFFFFF" stroke-width="1.33333" stroke-linejoin="round" stroke-miterlimit="10" fill="none" fill-rule="evenodd"/><path d="M226.647 873.067 1081.31 873.067" stroke="#000000" stroke-width="1.33333" stroke-linejoin="round" stroke-miterlimit="10" fill="none" fill-rule="evenodd"/><g clip-path="url(#clip1)"><text fill="#FFFFFF" font-family="DengXian,DengXian_MSFontService,sans-serif" font-weight="700" font-size="24" transform="translate(236.914 27)">Day3/July 7,</text></g><text fill="#FFFFFF" font-family="DengXian,DengXian_MSFontService,sans-serif" font-weight="700" font-size="24" transform="translate(376.58 27)">2023</text><g clip-path="url(#clip2)"><text font-family="DengXian,DengXian_MSFontService,sans-serif" font-weight="700" font-size="24" transform="translate(521.358 66)">Plenary Speech</text></g><g clip-path="url(#clip3)"><text font-family="DengXian,DengXian_MSFontService,sans-serif" font-weight="700" font-size="24" transform="translate(236.914 66)">08:30</text></g><text font-family="DengXian,DengXian_MSFontService,sans-serif" font-weight="700" font-size="24" transform="translate(296.08 66)">-</text><text font-family="DengXian,DengXian_MSFontService,sans-serif" font-weight="700" font-size="24" transform="translate(308.08 66)">10:10</text><g clip-path="url(#clip4)"><text font-family="DengXian,DengXian_MSFontService,sans-serif" font-weight="700" font-size="24" transform="translate(521.358 105)">Photograph &amp; Coffee &amp; Tea Break</text></g><g clip-path="url(#clip5)"><text font-family="DengXian,DengXian_MSFontService,sans-serif" font-weight="700" font-size="24" transform="translate(236.914 105)">10:10</text></g><text font-family="DengXian,DengXian_MSFontService,sans-serif" font-weight="700" font-size="24" transform="translate(296.08 105)">-</text><text font-family="DengXian,DengXian_MSFontService,sans-serif" font-weight="700" font-size="24" transform="translate(308.08 105)">10:35</text><g clip-path="url(#clip6)"><text font-family="DengXian,DengXian_MSFontService,sans-serif" font-weight="700" font-size="24" transform="translate(521.358 144)">Plenary Speech</text></g><g clip-path="url(#clip7)"><text font-family="DengXian,DengXian_MSFontService,sans-serif" font-weight="700" font-size="24" transform="translate(236.914 144)">10:35</text></g><text font-family="DengXian,DengXian_MSFontService,sans-serif" font-weight="700" font-size="24" transform="translate(296.08 144)">-</text><text font-family="DengXian,DengXian_MSFontService,sans-serif" font-weight="700" font-size="24" transform="translate(308.08 144)">11:15</text><g clip-path="url(#clip8)"><text font-family="DengXian,DengXian_MSFontService,sans-serif" font-weight="700" font-size="24" transform="translate(521.358 183)">Keynote Speech</text></g><g clip-path="url(#clip9)"><text font-family="DengXian,DengXian_MSFontService,sans-serif" font-weight="700" font-size="24" transform="translate(236.914 183)">11:15</text></g><text font-family="DengXian,DengXian_MSFontService,sans-serif" font-weight="700" font-size="24" transform="translate(296.08 183)">-</text><text font-family="DengXian,DengXian_MSFontService,sans-serif" font-weight="700" font-size="24" transform="translate(308.08 183)">12:15</text><g clip-path="url(#clip10)"><text font-family="DengXian,DengXian_MSFontService,sans-serif" font-weight="700" font-size="24" transform="translate(521.358 221)">Lunch &amp; Break</text></g><g clip-path="url(#clip11)"><text font-family="DengXian,DengXian_MSFontService,sans-serif" font-weight="700" font-size="24" transform="translate(236.914 221)">12:15</text></g><text font-family="DengXian,DengXian_MSFontService,sans-serif" font-weight="700" font-size="24" transform="translate(296.08 221)">-</text><text font-family="DengXian,DengXian_MSFontService,sans-serif" font-weight="700" font-size="24" transform="translate(308.08 221)">14:00</text><g clip-path="url(#clip12)"><text font-family="DengXian,DengXian_MSFontService,sans-serif" font-weight="700" font-size="24" transform="translate(521.358 260)">Session</text></g><text font-family="DengXian,DengXian_MSFontService,sans-serif" font-weight="700" font-size="24" transform="translate(609.191 260)">Ⅲ (S17</text><text font-family="DengXian,DengXian_MSFontService,sans-serif" font-weight="700" font-size="24" transform="translate(694.191 260)">–</text><text font-family="DengXian,DengXian_MSFontService,sans-serif" font-weight="700" font-size="24" transform="translate(712.858 260)">S24)</text><g clip-path="url(#clip13)"><text font-family="DengXian,DengXian_MSFontService,sans-serif" font-weight="700" font-size="24" transform="translate(236.914 260)">14:00</text></g><text font-family="DengXian,DengXian_MSFontService,sans-serif" font-weight="700" font-size="24" transform="translate(296.08 260)">-</text><text font-family="DengXian,DengXian_MSFontService,sans-serif" font-weight="700" font-size="24" transform="translate(308.08 260)">15:30</text><text font-family="DengXian,DengXian_MSFontService,sans-serif" font-weight="700" font-size="21" transform="translate(956.314 297)">S20</text><text font-family="DengXian,DengXian_MSFontService,sans-serif" font-weight="700" font-size="21" transform="translate(742.98 297)">S19</text><text font-family="DengXian,DengXian_MSFontService,sans-serif" font-weight="700" font-size="21" transform="translate(529.647 297)">S18</text><text font-family="DengXian,DengXian_MSFontService,sans-serif" font-weight="700" font-size="21" transform="translate(316.314 297)">S17</text><g clip-path="url(#clip14)"><text font-family="DengXian,DengXian_MSFontService,sans-serif" font-weight="700" font-size="19" transform="translate(880.897 352)">Design and Control of</text></g><text font-family="DengXian,DengXian_MSFontService,sans-serif" font-weight="700" font-size="19" transform="translate(910.15 375)">Legged Robots</text><text font-family="DengXian,DengXian_MSFontService,sans-serif" font-weight="700" font-size="19" transform="translate(683.647 330)">Knowledge</text><text font-family="DengXian,DengXian_MSFontService,sans-serif" font-weight="700" font-size="19" transform="translate(778.314 330)">-</text><text font-family="DengXian,DengXian_MSFontService,sans-serif" font-weight="700" font-size="19" transform="translate(787.647 330)">based</text><text font-family="DengXian,DengXian_MSFontService,sans-serif" font-weight="700" font-size="19" transform="translate(691.56 353)">Robot Decision</text><text font-family="DengXian,DengXian_MSFontService,sans-serif" font-weight="700" font-size="19" transform="translate(820.394 353)">-</text><text font-family="DengXian,DengXian_MSFontService,sans-serif" font-weight="700" font-size="19" transform="translate(710.814 375)">making and</text><text font-family="DengXian,DengXian_MSFontService,sans-serif" font-weight="700" font-size="19" transform="translate(704.314 398)">Manipulation</text><g clip-path="url(#clip15)"><text font-family="DengXian,DengXian_MSFontService,sans-serif" font-weight="700" font-size="19" transform="translate(451.564 330)">Advanced Sensing and</text></g><text font-family="DengXian,DengXian_MSFontService,sans-serif" font-weight="700" font-size="19" transform="translate(463.817 353)">Control Technology</text><text font-family="DengXian,DengXian_MSFontService,sans-serif" font-weight="700" font-size="19" transform="translate(473.564 375)">for Human</text><text font-family="DengXian,DengXian_MSFontService,sans-serif" font-weight="700" font-size="19" transform="translate(564.73 375)">-</text><text font-family="DengXian,DengXian_MSFontService,sans-serif" font-weight="700" font-size="19" transform="translate(574.064 375)">robot</text><text font-family="DengXian,DengXian_MSFontService,sans-serif" font-weight="700" font-size="19" transform="translate(501.397 398)">Interaction</text><text font-family="DengXian,DengXian_MSFontService,sans-serif" font-weight="700" font-size="19" transform="translate(271.064 341)">Robotic Tactile</text><g clip-path="url(#clip16)"><text font-family="DengXian,DengXian_MSFontService,sans-serif" font-weight="700" font-size="19" transform="translate(240.23 364)">Sensation, Perception,</text></g><text font-family="DengXian,DengXian_MSFontService,sans-serif" font-weight="700" font-size="19" transform="translate(263.317 386)">and Applications</text><text font-family="DengXian,DengXian_MSFontService,sans-serif" font-weight="700" font-size="21" transform="translate(956.314 432)">S24</text><text font-family="DengXian,DengXian_MSFontService,sans-serif" font-weight="700" font-size="21" transform="translate(742.98 432)">S23</text><text font-family="DengXian,DengXian_MSFontService,sans-serif" font-weight="700" font-size="21" transform="translate(529.647 432)">S22</text><text font-family="DengXian,DengXian_MSFontService,sans-serif" font-weight="700" font-size="21" transform="translate(316.314 432)">S21</text><text font-family="DengXian,DengXian_MSFontService,sans-serif" font-weight="700" font-size="19" transform="translate(898.15 475)">Visual</text><text font-family="DengXian,DengXian_MSFontService,sans-serif" font-weight="700" font-size="19" transform="translate(953.484 475)">and Visual</text><text font-family="DengXian,DengXian_MSFontService,sans-serif" font-weight="700" font-size="19" transform="translate(1040.48 475)">-</text><text font-family="DengXian,DengXian_MSFontService,sans-serif" font-weight="700" font-size="19" transform="translate(885.23 498)">tactile Perception for</text><text font-family="DengXian,DengXian_MSFontService,sans-serif" font-weight="700" font-size="19" transform="translate(937.23 520)">Robotics</text><text font-family="DengXian,DengXian_MSFontService,sans-serif" font-weight="700" font-size="19" transform="translate(683.48 464)">Clinically Oriented</text><text font-family="DengXian,DengXian_MSFontService,sans-serif" font-weight="700" font-size="19" transform="translate(685.814 487)">Design in Robotic</text><text font-family="DengXian,DengXian_MSFontService,sans-serif" font-weight="700" font-size="19" transform="translate(709.56 509)">Surgery and</text><text font-family="DengXian,DengXian_MSFontService,sans-serif" font-weight="700" font-size="19" transform="translate(701.814 532)">Rehabilitation</text><g clip-path="url(#clip17)"><text font-family="DengXian,DengXian_MSFontService,sans-serif" font-weight="700" font-size="19" transform="translate(455.984 486)">Robotic Machining of</text></g><text font-family="DengXian,DengXian_MSFontService,sans-serif" font-weight="700" font-size="19" transform="translate(453.397 509)">Complex Components</text><text font-family="DengXian,DengXian_MSFontService,sans-serif" font-weight="700" font-size="19" transform="translate(246.397 475)">Robots in Tunnelling</text><text font-family="DengXian,DengXian_MSFontService,sans-serif" font-weight="700" font-size="19" transform="translate(258.564 498)">and Underground</text><text font-family="DengXian,DengXian_MSFontService,sans-serif" font-weight="700" font-size="19" transform="translate(309.064 520)">Space</text><g clip-path="url(#clip18)"><text font-family="DengXian,DengXian_MSFontService,sans-serif" font-weight="700" font-size="24" transform="translate(521.358 568)">Coffee &amp; Tea Break</text></g><g clip-path="url(#clip19)"><text font-family="DengXian,DengXian_MSFontService,sans-serif" font-weight="700" font-size="24" transform="translate(236.914 568)">15:30</text></g><text font-family="DengXian,DengXian_MSFontService,sans-serif" font-weight="700" font-size="24" transform="translate(296.08 568)">-</text><text font-family="DengXian,DengXian_MSFontService,sans-serif" font-weight="700" font-size="24" transform="translate(308.08 568)">16:00</text><g clip-path="url(#clip20)"><text font-family="DengXian,DengXian_MSFontService,sans-serif" font-weight="700" font-size="24" transform="translate(521.358 607)">Session</text></g><text font-family="DengXian,DengXian_MSFontService,sans-serif" font-weight="700" font-size="24" transform="translate(609.191 607)">Ⅳ (S25</text><text font-family="DengXian,DengXian_MSFontService,sans-serif" font-weight="700" font-size="24" transform="translate(694.191 607)">–</text><text font-family="DengXian,DengXian_MSFontService,sans-serif" font-weight="700" font-size="24" transform="translate(712.858 607)">S32)</text><g clip-path="url(#clip21)"><text font-family="DengXian,DengXian_MSFontService,sans-serif" font-weight="700" font-size="24" transform="translate(236.914 607)">16:00</text></g><text font-family="DengXian,DengXian_MSFontService,sans-serif" font-weight="700" font-size="24" transform="translate(296.08 607)">-</text><text font-family="DengXian,DengXian_MSFontService,sans-serif" font-weight="700" font-size="24" transform="translate(308.08 607)">17:30</text><text font-family="DengXian,DengXian_MSFontService,sans-serif" font-weight="700" font-size="21" transform="translate(956.314 644)">S28</text><text font-family="DengXian,DengXian_MSFontService,sans-serif" font-weight="700" font-size="21" transform="translate(742.98 644)">S27</text><text font-family="DengXian,DengXian_MSFontService,sans-serif" font-weight="700" font-size="21" transform="translate(529.647 644)">S26</text><text font-family="DengXian,DengXian_MSFontService,sans-serif" font-weight="700" font-size="21" transform="translate(316.314 644)">S25</text><text font-family="DengXian,DengXian_MSFontService,sans-serif" font-weight="700" font-size="19" transform="translate(921.897 680)">Physical and</text><text font-family="DengXian,DengXian_MSFontService,sans-serif" font-weight="700" font-size="19" transform="translate(881.73 703)">Neurological Human</text><text font-family="DengXian,DengXian_MSFontService,sans-serif" font-weight="700" font-size="19" transform="translate(1056.9 703)">-</text><text font-family="DengXian,DengXian_MSFontService,sans-serif" font-weight="700" font-size="19" transform="translate(899.564 725)">Robot Interaction</text><text font-family="DengXian,DengXian_MSFontService,sans-serif" font-weight="700" font-size="19" transform="translate(673.23 680)">Multi</text><text font-family="DengXian,DengXian_MSFontService,sans-serif" font-weight="700" font-size="19" transform="translate(717.73 680)">-</text><text font-family="DengXian,DengXian_MSFontService,sans-serif" font-weight="700" font-size="19" transform="translate(727.064 680)">robot Systems</text><text font-family="DengXian,DengXian_MSFontService,sans-serif" font-weight="700" font-size="19" transform="translate(699.15 703)">for Real World</text><text font-family="DengXian,DengXian_MSFontService,sans-serif" font-weight="700" font-size="19" transform="translate(708.397 725)">Applications</text><text font-family="DengXian,DengXian_MSFontService,sans-serif" font-weight="700" font-size="19" transform="translate(459.814 691)">Marine Robotics and</text><text font-family="DengXian,DengXian_MSFontService,sans-serif" font-weight="700" font-size="19" transform="translate(495.06 714)">Applications</text><g clip-path="url(#clip22)"><text font-family="DengXian,DengXian_MSFontService,sans-serif" font-weight="700" font-size="19" transform="translate(235.397 680)">Perception, Interaction,</text></g><text font-family="DengXian,DengXian_MSFontService,sans-serif" font-weight="700" font-size="19" transform="translate(270.977 703)">and Control of</text><text font-family="DengXian,DengXian_MSFontService,sans-serif" font-weight="700" font-size="19" transform="translate(259.81 725)">Wearable Robots</text><text font-family="DengXian,DengXian_MSFontService,sans-serif" font-weight="700" font-size="21" transform="translate(956.314 760)">S32</text><text font-family="DengXian,DengXian_MSFontService,sans-serif" font-weight="700" font-size="21" transform="translate(742.98 760)">S31</text><text font-family="DengXian,DengXian_MSFontService,sans-serif" font-weight="700" font-size="21" transform="translate(529.647 760)">S30</text><text font-family="DengXian,DengXian_MSFontService,sans-serif" font-weight="700" font-size="21" transform="translate(316.314 760)">S29</text><g clip-path="url(#clip23)"><text font-family="DengXian,DengXian_MSFontService,sans-serif" font-weight="700" font-size="19" transform="translate(879.647 796)">Innovative Design and</text></g><text font-family="DengXian,DengXian_MSFontService,sans-serif" font-weight="700" font-size="19" transform="translate(919.98 819)">Performance</text><text font-family="DengXian,DengXian_MSFontService,sans-serif" font-weight="700" font-size="19" transform="translate(890.227 841)">Evaluation of Robot</text><text font-family="DengXian,DengXian_MSFontService,sans-serif" font-weight="700" font-size="19" transform="translate(921.56 864)">Mechanisms</text><text font-family="DengXian,DengXian_MSFontService,sans-serif" font-weight="700" font-size="19" transform="translate(713.484 796)">Robotics in</text><text font-family="DengXian,DengXian_MSFontService,sans-serif" font-weight="700" font-size="19" transform="translate(712.317 819)">Sustainable</text><text font-family="DengXian,DengXian_MSFontService,sans-serif" font-weight="700" font-size="19" transform="translate(683.397 841)">Manufacturing for</text><text font-family="DengXian,DengXian_MSFontService,sans-serif" font-weight="700" font-size="19" transform="translate(685.317 864)">Carbon Neutrality</text><text font-family="DengXian,DengXian_MSFontService,sans-serif" font-weight="700" font-size="19" transform="translate(457.73 818)">Intelligent Inspection</text><text font-family="DengXian,DengXian_MSFontService,sans-serif" font-weight="700" font-size="19" transform="translate(510.564 841)">Robotics</text><text font-family="DengXian,DengXian_MSFontService,sans-serif" font-weight="700" font-size="19" transform="translate(258.56 807)">Advanced Motion</text><text font-family="DengXian,DengXian_MSFontService,sans-serif" font-weight="700" font-size="19" transform="translate(243.814 830)">Control Technologies</text><text font-family="DengXian,DengXian_MSFontService,sans-serif" font-weight="700" font-size="19" transform="translate(256.98 852)">for Mobile Robots</text></g></svg>