<svg width="858" height="979" xmlns="http://www.w3.org/2000/svg" xmlns:xlink="http://www.w3.org/1999/xlink" overflow="hidden"><g transform="translate(-226 3)"><path d="M227.314 0 1080.65 0 1080.65 38.9333 227.314 38.9333Z" fill="#4472C4" fill-rule="evenodd"/><path d="M227.314 38.9333 568.647 38.9333 568.647 77.8667 227.314 77.8667Z" fill="#CFD5EA" fill-rule="evenodd"/><path d="M568.647 38.9333 1080.65 38.9333 1080.65 77.8667 568.647 77.8667Z" fill="#CFD5EA" fill-rule="evenodd"/><path d="M227.314 77.8667 568.647 77.8667 568.647 116.8 227.314 116.8Z" fill="#E9EBF5" fill-rule="evenodd"/><path d="M568.647 77.8667 1080.65 77.8667 1080.65 116.8 568.647 116.8Z" fill="#E9EBF5" fill-rule="evenodd"/><path d="M227.314 116.8 568.647 116.8 568.647 155.733 227.314 155.733Z" fill="#CFD5EA" fill-rule="evenodd"/><path d="M568.647 116.8 1080.65 116.8 1080.65 155.733 568.647 155.733Z" fill="#CFD5EA" fill-rule="evenodd"/><path d="M227.314 155.733 568.647 155.733 568.647 194.667 227.314 194.667Z" fill="#E9EBF5" fill-rule="evenodd"/><path d="M568.647 155.733 1080.65 155.733 1080.65 194.667 568.647 194.667Z" fill="#E9EBF5" fill-rule="evenodd"/><path d="M227.314 194.667 568.647 194.667 568.647 233.6 227.314 233.6Z" fill="#CFD5EA" fill-rule="evenodd"/><path d="M568.647 194.667 1080.65 194.667 1080.65 233.6 568.647 233.6Z" fill="#CFD5EA" fill-rule="evenodd"/><path d="M227.314 233.6 397.98 233.6 397.98 268.8 227.314 268.8Z" fill="#E9EBF5" fill-rule="evenodd"/><path d="M397.98 233.6 568.647 233.6 568.647 268.8 397.98 268.8Z" fill="#E9EBF5" fill-rule="evenodd"/><path d="M568.647 233.6 739.314 233.6 739.314 268.8 568.647 268.8Z" fill="#E9EBF5" fill-rule="evenodd"/><path d="M739.314 233.6 909.98 233.6 909.98 268.8 739.314 268.8Z" fill="#E9EBF5" fill-rule="evenodd"/><path d="M909.98 233.6 1080.65 233.6 1080.65 268.8 909.98 268.8Z" fill="#E9EBF5" fill-rule="evenodd"/><path d="M227.314 268.8 397.98 268.8 397.98 412.8 227.314 412.8Z" fill="#CFD5EA" fill-rule="evenodd"/><path d="M397.98 268.8 568.647 268.8 568.647 412.8 397.98 412.8Z" fill="#CFD5EA" fill-rule="evenodd"/><path d="M568.647 268.8 739.314 268.8 739.314 412.8 568.647 412.8Z" fill="#CFD5EA" fill-rule="evenodd"/><path d="M739.314 268.8 909.98 268.8 909.98 412.8 739.314 412.8Z" fill="#CFD5EA" fill-rule="evenodd"/><path d="M909.98 268.8 1080.65 268.8 1080.65 412.8 909.98 412.8Z" fill="#CFD5EA" fill-rule="evenodd"/><path d="M227.314 412.8 397.98 412.8 397.98 569.6 227.314 569.6Z" fill="#E9EBF5" fill-rule="evenodd"/><path d="M397.98 412.8 568.647 412.8 568.647 448 397.98 448Z" fill="#E9EBF5" fill-rule="evenodd"/><path d="M568.647 412.8 739.314 412.8 739.314 448 568.647 448Z" fill="#E9EBF5" fill-rule="evenodd"/><path d="M739.314 412.8 909.98 412.8 909.98 448 739.314 448Z" fill="#E9EBF5" fill-rule="evenodd"/><path d="M909.98 412.8 1080.65 412.8 1080.65 448 909.98 448Z" fill="#E9EBF5" fill-rule="evenodd"/><path d="M397.98 448 568.647 448 568.647 569.6 397.98 569.6Z" fill="#CFD5EA" fill-rule="evenodd"/><path d="M568.647 448 739.314 448 739.314 569.6 568.647 569.6Z" fill="#CFD5EA" fill-rule="evenodd"/><path d="M739.314 448 909.98 448 909.98 569.6 739.314 569.6Z" fill="#CFD5EA" fill-rule="evenodd"/><path d="M909.98 448 1080.65 448 1080.65 569.6 909.98 569.6Z" fill="#CFD5EA" fill-rule="evenodd"/><path d="M227.314 569.6 568.647 569.6 568.647 608.533 227.314 608.533Z" fill="#E9EBF5" fill-rule="evenodd"/><path d="M568.647 569.6 1080.65 569.6 1080.65 608.533 568.647 608.533Z" fill="#E9EBF5" fill-rule="evenodd"/><path d="M227.314 608.533 568.647 608.533 568.647 647.467 227.314 647.467Z" fill="#CFD5EA" fill-rule="evenodd"/><path d="M568.647 608.533 1080.65 608.533 1080.65 647.467 568.647 647.467Z" fill="#CFD5EA" fill-rule="evenodd"/><path d="M227.314 647.467 397.98 647.467 397.98 686.4 227.314 686.4Z" fill="#E9EBF5" fill-rule="evenodd"/><path d="M397.98 647.467 568.647 647.467 568.647 686.4 397.98 686.4Z" fill="#E9EBF5" fill-rule="evenodd"/><path d="M568.647 647.467 739.314 647.467 739.314 686.4 568.647 686.4Z" fill="#E9EBF5" fill-rule="evenodd"/><path d="M739.314 647.467 909.98 647.467 909.98 686.4 739.314 686.4Z" fill="#E9EBF5" fill-rule="evenodd"/><path d="M909.98 647.467 1080.65 647.467 1080.65 686.4 909.98 686.4Z" fill="#E9EBF5" fill-rule="evenodd"/><path d="M227.314 686.4 397.98 686.4 397.98 785.6 227.314 785.6Z" fill="#CFD5EA" fill-rule="evenodd"/><path d="M397.98 686.4 568.647 686.4 568.647 785.6 397.98 785.6Z" fill="#CFD5EA" fill-rule="evenodd"/><path d="M568.647 686.4 739.314 686.4 739.314 785.6 568.647 785.6Z" fill="#CFD5EA" fill-rule="evenodd"/><path d="M739.314 686.4 909.98 686.4 909.98 785.6 739.314 785.6Z" fill="#CFD5EA" fill-rule="evenodd"/><path d="M909.98 686.4 1080.65 686.4 1080.65 785.6 909.98 785.6Z" fill="#CFD5EA" fill-rule="evenodd"/><path d="M227.314 785.6 397.98 785.6 397.98 968.533 227.314 968.533Z" fill="#E9EBF5" fill-rule="evenodd"/><path d="M397.98 785.6 568.647 785.6 568.647 824.533 397.98 824.533Z" fill="#E9EBF5" fill-rule="evenodd"/><path d="M568.647 785.6 739.314 785.6 739.314 824.533 568.647 824.533Z" fill="#E9EBF5" fill-rule="evenodd"/><path d="M739.314 785.6 909.98 785.6 909.98 824.533 739.314 824.533Z" fill="#E9EBF5" fill-rule="evenodd"/><path d="M909.98 785.6 1080.65 785.6 1080.65 824.533 909.98 824.533Z" fill="#E9EBF5" fill-rule="evenodd"/><path d="M397.98 824.533 568.647 824.533 568.647 968.533 397.98 968.533Z" fill="#CFD5EA" fill-rule="evenodd"/><path d="M568.647 824.533 739.314 824.533 739.314 968.533 568.647 968.533Z" fill="#CFD5EA" fill-rule="evenodd"/><path d="M739.314 824.533 909.98 824.533 909.98 968.533 739.314 968.533Z" fill="#CFD5EA" fill-rule="evenodd"/><path d="M909.98 824.533 1080.65 824.533 1080.65 968.533 909.98 968.533Z" fill="#CFD5EA" fill-rule="evenodd"/><path d="M397.98 232.933 397.98 570.267" stroke="#000000" stroke-width="1.33333" stroke-linejoin="round" stroke-miterlimit="10" fill="none" fill-rule="evenodd"/><path d="M397.98 646.8 397.98 969.2" stroke="#000000" stroke-width="1.33333" stroke-linejoin="round" stroke-miterlimit="10" fill="none" fill-rule="evenodd"/><path d="M568.647 36.9333 568.647 233.6" stroke="#FFFFFF" stroke-width="1.33333" stroke-linejoin="round" stroke-miterlimit="10" fill="none" fill-rule="evenodd"/><path d="M568.647 233.6 568.647 569.6" stroke="#000000" stroke-width="1.33333" stroke-linejoin="round" stroke-miterlimit="10" fill="none" fill-rule="evenodd"/><path d="M568.647 569.6 568.647 647.467" stroke="#FFFFFF" stroke-width="1.33333" stroke-linejoin="round" stroke-miterlimit="10" fill="none" fill-rule="evenodd"/><path d="M568.647 647.467 568.647 969.2" stroke="#000000" stroke-width="1.33333" stroke-linejoin="round" stroke-miterlimit="10" fill="none" fill-rule="evenodd"/><path d="M739.314 232.933 739.314 570.267" stroke="#000000" stroke-width="1.33333" stroke-linejoin="round" stroke-miterlimit="10" fill="none" fill-rule="evenodd"/><path d="M739.314 646.8 739.314 969.2" stroke="#000000" stroke-width="1.33333" stroke-linejoin="round" stroke-miterlimit="10" fill="none" fill-rule="evenodd"/><path d="M909.98 232.933 909.98 411.3" stroke="#000000" stroke-width="1.33333" stroke-linejoin="round" stroke-miterlimit="10" fill="none" fill-rule="evenodd"/><path d="M909.98 411.3 909.98 571.1" stroke="#000000" stroke-width="3" stroke-linejoin="round" stroke-miterlimit="10" fill="none" fill-rule="evenodd"/><path d="M909.98 646.8 909.98 784.1" stroke="#000000" stroke-width="1.33333" stroke-linejoin="round" stroke-miterlimit="10" fill="none" fill-rule="evenodd"/><path d="M909.98 784.1 909.98 970.033" stroke="#000000" stroke-width="3" stroke-linejoin="round" stroke-miterlimit="10" fill="none" fill-rule="evenodd"/><path d="M226.647 38.9333 1081.31 38.9333" stroke="#FFFFFF" stroke-width="4" stroke-linejoin="round" stroke-miterlimit="10" fill="none" fill-rule="evenodd"/><path d="M226.647 77.8667 1081.31 77.8667" stroke="#FFFFFF" stroke-width="1.33333" stroke-linejoin="round" stroke-miterlimit="10" fill="none" fill-rule="evenodd"/><path d="M226.647 116.8 1081.31 116.8" stroke="#FFFFFF" stroke-width="1.33333" stroke-linejoin="round" stroke-miterlimit="10" fill="none" fill-rule="evenodd"/><path d="M226.647 155.733 1081.31 155.733" stroke="#FFFFFF" stroke-width="1.33333" stroke-linejoin="round" stroke-miterlimit="10" fill="none" fill-rule="evenodd"/><path d="M226.647 194.667 1081.31 194.667" stroke="#FFFFFF" stroke-width="1.33333" stroke-linejoin="round" stroke-miterlimit="10" fill="none" fill-rule="evenodd"/><path d="M226.647 233.6 1081.31 233.6" stroke="#000000" stroke-width="1.33333" stroke-linejoin="round" stroke-miterlimit="10" fill="none" fill-rule="evenodd"/><path d="M226.647 268.8 1081.31 268.8" stroke="#000000" stroke-width="1.33333" stroke-linejoin="round" stroke-miterlimit="10" fill="none" fill-rule="evenodd"/><path d="M226.647 412.8 908.48 412.8" stroke="#000000" stroke-width="1.33333" stroke-linejoin="round" stroke-miterlimit="10" fill="none" fill-rule="evenodd"/><path d="M908.48 412.8 1082.15 412.8" stroke="#000000" stroke-width="3" stroke-linejoin="round" stroke-miterlimit="10" fill="none" fill-rule="evenodd"/><path d="M397.314 448 908.48 448" stroke="#000000" stroke-width="1.33333" stroke-linejoin="round" stroke-miterlimit="10" fill="none" fill-rule="evenodd"/><path d="M908.48 448 1082.15 448" stroke="#000000" stroke-width="3" stroke-linejoin="round" stroke-miterlimit="10" fill="none" fill-rule="evenodd"/><path d="M397.314 569.6 908.48 569.6" stroke="#000000" stroke-width="1.33333" stroke-linejoin="round" stroke-miterlimit="10" fill="none" fill-rule="evenodd"/><path d="M908.48 569.6 1082.15 569.6" stroke="#000000" stroke-width="3" stroke-linejoin="round" stroke-miterlimit="10" fill="none" fill-rule="evenodd"/><path d="M226.647 608.533 1081.31 608.533" stroke="#FFFFFF" stroke-width="1.33333" stroke-linejoin="round" stroke-miterlimit="10" fill="none" fill-rule="evenodd"/><path d="M226.647 647.467 1081.31 647.467" stroke="#000000" stroke-width="1.33333" stroke-linejoin="round" stroke-miterlimit="10" fill="none" fill-rule="evenodd"/><path d="M226.647 686.4 1081.31 686.4" stroke="#000000" stroke-width="1.33333" stroke-linejoin="round" stroke-miterlimit="10" fill="none" fill-rule="evenodd"/><path d="M226.647 785.6 908.48 785.6" stroke="#000000" stroke-width="1.33333" stroke-linejoin="round" stroke-miterlimit="10" fill="none" fill-rule="evenodd"/><path d="M908.48 785.6 1082.15 785.6" stroke="#000000" stroke-width="3" stroke-linejoin="round" stroke-miterlimit="10" fill="none" fill-rule="evenodd"/><path d="M397.314 824.533 908.48 824.533" stroke="#000000" stroke-width="1.33333" stroke-linejoin="round" stroke-miterlimit="10" fill="none" fill-rule="evenodd"/><path d="M908.48 824.533 1082.15 824.533" stroke="#000000" stroke-width="3" stroke-linejoin="round" stroke-miterlimit="10" fill="none" fill-rule="evenodd"/><path d="M227.314-0.666667 227.314 233.6" stroke="#FFFFFF" stroke-width="1.33333" stroke-linejoin="round" stroke-miterlimit="10" fill="none" fill-rule="evenodd"/><path d="M227.314 233.6 227.314 413.467" stroke="#000000" stroke-width="1.33333" stroke-linejoin="round" stroke-miterlimit="10" fill="none" fill-rule="evenodd"/><path d="M227.314 569.6 227.314 647.467" stroke="#FFFFFF" stroke-width="1.33333" stroke-linejoin="round" stroke-miterlimit="10" fill="none" fill-rule="evenodd"/><path d="M227.314 647.467 227.314 786.267" stroke="#000000" stroke-width="1.33333" stroke-linejoin="round" stroke-miterlimit="10" fill="none" fill-rule="evenodd"/><path d="M1080.65-0.666667 1080.65 233.6" stroke="#FFFFFF" stroke-width="1.33333" stroke-linejoin="round" stroke-miterlimit="10" fill="none" fill-rule="evenodd"/><path d="M1080.65 233.6 1080.65 411.3" stroke="#000000" stroke-width="1.33333" stroke-linejoin="round" stroke-miterlimit="10" fill="none" fill-rule="evenodd"/><path d="M1080.65 411.3 1080.65 571.1" stroke="#000000" stroke-width="3" stroke-linejoin="round" stroke-miterlimit="10" fill="none" fill-rule="evenodd"/><path d="M1080.65 571.1 1080.65 647.467" stroke="#FFFFFF" stroke-width="1.33333" stroke-linejoin="round" stroke-miterlimit="10" fill="none" fill-rule="evenodd"/><path d="M1080.65 647.467 1080.65 784.1" stroke="#000000" stroke-width="1.33333" stroke-linejoin="round" stroke-miterlimit="10" fill="none" fill-rule="evenodd"/><path d="M1080.65 784.1 1080.65 970.033" stroke="#000000" stroke-width="3" stroke-linejoin="round" stroke-miterlimit="10" fill="none" fill-rule="evenodd"/><path d="M226.647 0 1081.31 0" stroke="#FFFFFF" stroke-width="1.33333" stroke-linejoin="round" stroke-miterlimit="10" fill="none" fill-rule="evenodd"/><path d="M397.314 968.533 908.48 968.533" stroke="#000000" stroke-width="1.33333" stroke-linejoin="round" stroke-miterlimit="10" fill="none" fill-rule="evenodd"/><path d="M908.48 968.533 1082.15 968.533" stroke="#000000" stroke-width="3" stroke-linejoin="round" stroke-miterlimit="10" fill="none" fill-rule="evenodd"/><g><text fill="#FFFFFF" font-family="DengXian,DengXian_MSFontService,sans-serif" font-weight="700" font-size="24" transform="translate(236.914 27)">Day3/July 7,</text></g><text fill="#FFFFFF" font-family="DengXian,DengXian_MSFontService,sans-serif" font-weight="700" font-size="24" transform="translate(376.58 27)">2023</text><g><text font-family="DengXian,DengXian_MSFontService,sans-serif" font-weight="700" font-size="24" transform="translate(578.247 66)">Plenary Speech</text></g><text font-family="DengXian,DengXian_MSFontService,sans-serif" font-weight="700" font-size="24" transform="translate(750.747 66)">III</text><g><text font-family="DengXian,DengXian_MSFontService,sans-serif" font-weight="700" font-size="24" transform="translate(236.914 66)">08:30</text></g><text font-family="DengXian,DengXian_MSFontService,sans-serif" font-weight="700" font-size="24" transform="translate(296.08 66)">-</text><text font-family="DengXian,DengXian_MSFontService,sans-serif" font-weight="700" font-size="24" transform="translate(308.08 66)">10:00</text><g><text font-family="DengXian,DengXian_MSFontService,sans-serif" font-weight="700" font-size="24" transform="translate(578.247 105)">Photograph &amp; Coffee &amp; Tea Break</text></g><g><text font-family="DengXian,DengXian_MSFontService,sans-serif" font-weight="700" font-size="24" transform="translate(236.914 105)">10:00</text></g><text font-family="DengXian,DengXian_MSFontService,sans-serif" font-weight="700" font-size="24" transform="translate(296.08 105)">-</text><text font-family="DengXian,DengXian_MSFontService,sans-serif" font-weight="700" font-size="24" transform="translate(308.08 105)">10:15</text><g><text font-family="DengXian,DengXian_MSFontService,sans-serif" font-weight="700" font-size="24" transform="translate(578.247 144)">Plenary Speech IV</text></g><g><text font-family="DengXian,DengXian_MSFontService,sans-serif" font-weight="700" font-size="24" transform="translate(236.914 144)">10:15</text></g><text font-family="DengXian,DengXian_MSFontService,sans-serif" font-weight="700" font-size="24" transform="translate(296.08 144)">-</text><text font-family="DengXian,DengXian_MSFontService,sans-serif" font-weight="700" font-size="24" transform="translate(308.08 144)">11:45</text><g><text font-family="DengXian,DengXian_MSFontService,sans-serif" font-weight="700" font-size="24" transform="translate(578.247 183)">Lunch &amp; Break</text></g><g><text font-family="DengXian,DengXian_MSFontService,sans-serif" font-weight="700" font-size="24" transform="translate(236.914 183)">11:45</text></g><text font-family="DengXian,DengXian_MSFontService,sans-serif" font-weight="700" font-size="24" transform="translate(296.08 183)">-</text><text font-family="DengXian,DengXian_MSFontService,sans-serif" font-weight="700" font-size="24" transform="translate(308.08 183)">14:00</text><g><text font-family="DengXian,DengXian_MSFontService,sans-serif" font-weight="700" font-size="24" transform="translate(578.247 221)">Oral Presentation</text></g><text font-family="DengXian,DengXian_MSFontService,sans-serif" font-weight="700" font-size="24" transform="translate(774.747 221)">Ⅲ (S17</text><text font-family="DengXian,DengXian_MSFontService,sans-serif" font-weight="700" font-size="24" transform="translate(859.747 221)">–</text><text font-family="DengXian,DengXian_MSFontService,sans-serif" font-weight="700" font-size="24" transform="translate(878.414 221)">S24)</text><g><text font-family="DengXian,DengXian_MSFontService,sans-serif" font-weight="700" font-size="24" transform="translate(236.914 221)">14:00</text></g><text font-family="DengXian,DengXian_MSFontService,sans-serif" font-weight="700" font-size="24" transform="translate(296.08 221)">-</text><text font-family="DengXian,DengXian_MSFontService,sans-serif" font-weight="700" font-size="24" transform="translate(308.08 221)">15:45</text><text font-family="DengXian,DengXian_MSFontService,sans-serif" font-weight="700" font-size="21" transform="translate(977.647 258)">S21</text><text font-family="DengXian,DengXian_MSFontService,sans-serif" font-weight="700" font-size="21" transform="translate(806.98 258)">S20</text><text font-family="DengXian,DengXian_MSFontService,sans-serif" font-weight="700" font-size="21" transform="translate(636.314 258)">S19</text><text font-family="DengXian,DengXian_MSFontService,sans-serif" font-weight="700" font-size="21" transform="translate(465.647 258)">S18</text><text font-family="DengXian,DengXian_MSFontService,sans-serif" font-weight="700" font-size="21" transform="translate(294.98 258)">S17</text><text font-family="DengXian,DengXian_MSFontService,sans-serif" font-weight="700" font-size="19" transform="translate(954.984 313)">Robots in</text><text font-family="DengXian,DengXian_MSFontService,sans-serif" font-weight="700" font-size="19" transform="translate(932.23 336)">Tunnelling and</text><text font-family="DengXian,DengXian_MSFontService,sans-serif" font-weight="700" font-size="19" transform="translate(938.317 358)">Underground</text><text font-family="DengXian,DengXian_MSFontService,sans-serif" font-weight="700" font-size="19" transform="translate(970.397 381)">Space</text><text font-family="DengXian,DengXian_MSFontService,sans-serif" font-weight="700" font-size="19" transform="translate(777.147 324)">Design and</text><text font-family="DengXian,DengXian_MSFontService,sans-serif" font-weight="700" font-size="19" transform="translate(781.647 347)">Control of</text><text font-family="DengXian,DengXian_MSFontService,sans-serif" font-weight="700" font-size="19" transform="translate(760.814 369)">Legged Robots</text><text font-family="DengXian,DengXian_MSFontService,sans-serif" font-weight="700" font-size="19" transform="translate(601.984 313)">Knowledge</text><text font-family="DengXian,DengXian_MSFontService,sans-serif" font-weight="700" font-size="19" transform="translate(696.65 313)">-</text><text font-family="DengXian,DengXian_MSFontService,sans-serif" font-weight="700" font-size="19" transform="translate(600.484 336)">based Robot</text><text font-family="DengXian,DengXian_MSFontService,sans-serif" font-weight="700" font-size="19" transform="translate(581.984 358)">Decision</text><text font-family="DengXian,DengXian_MSFontService,sans-serif" font-weight="700" font-size="19" transform="translate(653.817 358)">-</text><g><text font-family="DengXian,DengXian_MSFontService,sans-serif" font-weight="700" font-size="19" transform="translate(663.15 358)">making</text></g><g><text font-family="DengXian,DengXian_MSFontService,sans-serif" font-weight="700" font-size="19" transform="translate(579.23 381)">and Manipulation</text></g><text font-family="DengXian,DengXian_MSFontService,sans-serif" font-weight="700" font-size="19" transform="translate(441.48 291)">Advanced</text><text font-family="DengXian,DengXian_MSFontService,sans-serif" font-weight="700" font-size="19" transform="translate(431.98 314)">Sensing and</text><text font-family="DengXian,DengXian_MSFontService,sans-serif" font-weight="700" font-size="19" transform="translate(451.727 336)">Control</text><text font-family="DengXian,DengXian_MSFontService,sans-serif" font-weight="700" font-size="19" transform="translate(419.147 359)">Technology for</text><text font-family="DengXian,DengXian_MSFontService,sans-serif" font-weight="700" font-size="19" transform="translate(424.394 381)">Human</text><text font-family="DengXian,DengXian_MSFontService,sans-serif" font-weight="700" font-size="19" transform="translate(485.894 381)">-</text><text font-family="DengXian,DengXian_MSFontService,sans-serif" font-weight="700" font-size="19" transform="translate(495.227 381)">robot</text><text font-family="DengXian,DengXian_MSFontService,sans-serif" font-weight="700" font-size="19" transform="translate(437.394 403)">Interaction</text><text font-family="DengXian,DengXian_MSFontService,sans-serif" font-weight="700" font-size="19" transform="translate(249.73 313)">Robotic Tactile</text><text font-family="DengXian,DengXian_MSFontService,sans-serif" font-weight="700" font-size="19" transform="translate(269.317 336)">Sensation,</text><text font-family="DengXian,DengXian_MSFontService,sans-serif" font-weight="700" font-size="19" transform="translate(246.397 358)">Perception, and</text><text font-family="DengXian,DengXian_MSFontService,sans-serif" font-weight="700" font-size="19" transform="translate(260.397 381)">Applications</text><text font-family="DengXian,DengXian_MSFontService,sans-serif" font-weight="700" font-size="21" transform="translate(976.814 438)">C01</text><text font-family="DengXian,DengXian_MSFontService,sans-serif" font-weight="700" font-size="21" transform="translate(806.98 438)">S24</text><text font-family="DengXian,DengXian_MSFontService,sans-serif" font-weight="700" font-size="21" transform="translate(636.314 438)">S23</text><text font-family="DengXian,DengXian_MSFontService,sans-serif" font-weight="700" font-size="21" transform="translate(465.647 438)">S22</text><text font-family="DengXian,DengXian_MSFontService,sans-serif" font-weight="700" font-size="19" transform="translate(938.147 492)">Cutting</text><text font-family="DengXian,DengXian_MSFontService,sans-serif" font-weight="700" font-size="19" transform="translate(1000.81 492)">-</text><text font-family="DengXian,DengXian_MSFontService,sans-serif" font-weight="700" font-size="19" transform="translate(1010.15 492)">edge</text><text font-family="DengXian,DengXian_MSFontService,sans-serif" font-weight="700" font-size="19" transform="translate(949.394 515)">research in</text><text font-family="DengXian,DengXian_MSFontService,sans-serif" font-weight="700" font-size="19" transform="translate(949.48 537)">robotics (I)</text><text font-family="DengXian,DengXian_MSFontService,sans-serif" font-weight="700" font-size="19" transform="translate(781.15 481)">Visual and</text><text font-family="DengXian,DengXian_MSFontService,sans-serif" font-weight="700" font-size="19" transform="translate(769.15 504)">Visual</text><text font-family="DengXian,DengXian_MSFontService,sans-serif" font-weight="700" font-size="19" transform="translate(819.317 504)">-</text><text font-family="DengXian,DengXian_MSFontService,sans-serif" font-weight="700" font-size="19" transform="translate(828.65 504)">tactile</text><text font-family="DengXian,DengXian_MSFontService,sans-serif" font-weight="700" font-size="19" transform="translate(764.23 526)">Perception for</text><text font-family="DengXian,DengXian_MSFontService,sans-serif" font-weight="700" font-size="19" transform="translate(787.897 549)">Robotics</text><text font-family="DengXian,DengXian_MSFontService,sans-serif" font-weight="700" font-size="19" transform="translate(616.65 470)">Clinically</text><text font-family="DengXian,DengXian_MSFontService,sans-serif" font-weight="700" font-size="19" transform="translate(585.064 493)">Oriented Design</text><text font-family="DengXian,DengXian_MSFontService,sans-serif" font-weight="700" font-size="19" transform="translate(610.817 515)">in Robotic</text><text font-family="DengXian,DengXian_MSFontService,sans-serif" font-weight="700" font-size="19" transform="translate(602.897 538)">Surgery and</text><text font-family="DengXian,DengXian_MSFontService,sans-serif" font-weight="700" font-size="19" transform="translate(595.15 560)">Rehabilitation</text><text font-family="DengXian,DengXian_MSFontService,sans-serif" font-weight="700" font-size="19" transform="translate(450.56 481)">Robotic</text><text font-family="DengXian,DengXian_MSFontService,sans-serif" font-weight="700" font-size="19" transform="translate(427.314 504)">Machining of</text><text font-family="DengXian,DengXian_MSFontService,sans-serif" font-weight="700" font-size="19" transform="translate(445.98 526)">Complex</text><text font-family="DengXian,DengXian_MSFontService,sans-serif" font-weight="700" font-size="19" transform="translate(429.314 549)">Components</text><g><text font-family="DengXian,DengXian_MSFontService,sans-serif" font-weight="700" font-size="24" transform="translate(578.247 596)">Coffee &amp; Tea Break</text></g><g><text font-family="DengXian,DengXian_MSFontService,sans-serif" font-weight="700" font-size="24" transform="translate(236.914 596)">15:45</text></g><text font-family="DengXian,DengXian_MSFontService,sans-serif" font-weight="700" font-size="24" transform="translate(296.08 596)">-</text><text font-family="DengXian,DengXian_MSFontService,sans-serif" font-weight="700" font-size="24" transform="translate(308.08 596)">16:00</text><g><text font-family="DengXian,DengXian_MSFontService,sans-serif" font-weight="700" font-size="24" transform="translate(578.247 635)">Oral Presentation</text></g><text font-family="DengXian,DengXian_MSFontService,sans-serif" font-weight="700" font-size="24" transform="translate(774.747 635)">Ⅳ (S25</text><text font-family="DengXian,DengXian_MSFontService,sans-serif" font-weight="700" font-size="24" transform="translate(859.747 635)">–</text><text font-family="DengXian,DengXian_MSFontService,sans-serif" font-weight="700" font-size="24" transform="translate(878.414 635)">S32)</text><g><text font-family="DengXian,DengXian_MSFontService,sans-serif" font-weight="700" font-size="24" transform="translate(236.914 635)">16:00</text></g><text font-family="DengXian,DengXian_MSFontService,sans-serif" font-weight="700" font-size="24" transform="translate(296.08 635)">-</text><text font-family="DengXian,DengXian_MSFontService,sans-serif" font-weight="700" font-size="24" transform="translate(308.08 635)">17:45</text><text font-family="DengXian,DengXian_MSFontService,sans-serif" font-weight="700" font-size="21" transform="translate(977.647 672)">S29</text><text font-family="DengXian,DengXian_MSFontService,sans-serif" font-weight="700" font-size="21" transform="translate(806.98 672)">S28</text><text font-family="DengXian,DengXian_MSFontService,sans-serif" font-weight="700" font-size="21" transform="translate(636.314 672)">S27</text><text font-family="DengXian,DengXian_MSFontService,sans-serif" font-weight="700" font-size="21" transform="translate(465.647 672)">S26</text><text font-family="DengXian,DengXian_MSFontService,sans-serif" font-weight="700" font-size="21" transform="translate(294.98 672)">S25</text><g><text font-family="DengXian,DengXian_MSFontService,sans-serif" font-weight="700" font-size="19" transform="translate(919.897 708)">Advanced Motion</text></g><text font-family="DengXian,DengXian_MSFontService,sans-serif" font-weight="700" font-size="19" transform="translate(963.73 731)">Control</text><g><text font-family="DengXian,DengXian_MSFontService,sans-serif" font-weight="700" font-size="19" transform="translate(924.484 753)">Technologies for</text></g><text font-family="DengXian,DengXian_MSFontService,sans-serif" font-weight="700" font-size="19" transform="translate(933.15 776)">Mobile Robots</text><text font-family="DengXian,DengXian_MSFontService,sans-serif" font-weight="700" font-size="19" transform="translate(772.56 708)">Physical and</text><text font-family="DengXian,DengXian_MSFontService,sans-serif" font-weight="700" font-size="19" transform="translate(770.394 731)">Neurological</text><text font-family="DengXian,DengXian_MSFontService,sans-serif" font-weight="700" font-size="19" transform="translate(763.314 753)">Human</text><text font-family="DengXian,DengXian_MSFontService,sans-serif" font-weight="700" font-size="19" transform="translate(824.814 753)">-</text><text font-family="DengXian,DengXian_MSFontService,sans-serif" font-weight="700" font-size="19" transform="translate(834.147 753)">Robot</text><text font-family="DengXian,DengXian_MSFontService,sans-serif" font-weight="700" font-size="19" transform="translate(778.727 776)">Interaction</text><text font-family="DengXian,DengXian_MSFontService,sans-serif" font-weight="700" font-size="19" transform="translate(603.564 708)">Multi</text><text font-family="DengXian,DengXian_MSFontService,sans-serif" font-weight="700" font-size="19" transform="translate(648.064 708)">-</text><text font-family="DengXian,DengXian_MSFontService,sans-serif" font-weight="700" font-size="19" transform="translate(657.397 708)">robot</text><g><text font-family="DengXian,DengXian_MSFontService,sans-serif" font-weight="700" font-size="19" transform="translate(584.064 731)">Systems for Real</text></g><text font-family="DengXian,DengXian_MSFontService,sans-serif" font-weight="700" font-size="19" transform="translate(627.984 753)">World</text><text font-family="DengXian,DengXian_MSFontService,sans-serif" font-weight="700" font-size="19" transform="translate(601.73 776)">Applications</text><text font-family="DengXian,DengXian_MSFontService,sans-serif" font-weight="700" font-size="19" transform="translate(414.227 731)">Marine Robotics</text><text font-family="DengXian,DengXian_MSFontService,sans-serif" font-weight="700" font-size="19" transform="translate(412.647 754)">and Applications</text><text font-family="DengXian,DengXian_MSFontService,sans-serif" font-weight="700" font-size="19" transform="translate(264.817 708)">Perception,</text><text font-family="DengXian,DengXian_MSFontService,sans-serif" font-weight="700" font-size="19" transform="translate(246.064 731)">Interaction, and</text><text font-family="DengXian,DengXian_MSFontService,sans-serif" font-weight="700" font-size="19" transform="translate(269.65 753)">Control of</text><text font-family="DengXian,DengXian_MSFontService,sans-serif" font-weight="700" font-size="19" transform="translate(240.064 776)">Wearable Robots</text><text font-family="DengXian,DengXian_MSFontService,sans-serif" font-weight="700" font-size="21" transform="translate(976.814 810)">C02</text><text font-family="DengXian,DengXian_MSFontService,sans-serif" font-weight="700" font-size="21" transform="translate(806.98 810)">S32</text><text font-family="DengXian,DengXian_MSFontService,sans-serif" font-weight="700" font-size="21" transform="translate(636.314 810)">S31</text><text font-family="DengXian,DengXian_MSFontService,sans-serif" font-weight="700" font-size="21" transform="translate(465.647 810)">S30</text><text font-family="DengXian,DengXian_MSFontService,sans-serif" font-weight="700" font-size="19" transform="translate(938.147 880)">Cutting</text><text font-family="DengXian,DengXian_MSFontService,sans-serif" font-weight="700" font-size="19" transform="translate(1000.81 880)">-</text><text font-family="DengXian,DengXian_MSFontService,sans-serif" font-weight="700" font-size="19" transform="translate(1010.15 880)">edge</text><text font-family="DengXian,DengXian_MSFontService,sans-serif" font-weight="700" font-size="19" transform="translate(949.394 903)">research in</text><text font-family="DengXian,DengXian_MSFontService,sans-serif" font-weight="700" font-size="19" transform="translate(942.894 925)">robotics (Ⅱ)</text><text font-family="DengXian,DengXian_MSFontService,sans-serif" font-weight="700" font-size="19" transform="translate(780.394 846)">Innovative</text><text font-family="DengXian,DengXian_MSFontService,sans-serif" font-weight="700" font-size="19" transform="translate(777.147 869)">Design and</text><text font-family="DengXian,DengXian_MSFontService,sans-serif" font-weight="700" font-size="19" transform="translate(770.647 891)">Performance</text><text font-family="DengXian,DengXian_MSFontService,sans-serif" font-weight="700" font-size="19" transform="translate(769.394 914)">Evaluation of</text><text font-family="DengXian,DengXian_MSFontService,sans-serif" font-weight="700" font-size="19" transform="translate(798.727 936)">Robot</text><text font-family="DengXian,DengXian_MSFontService,sans-serif" font-weight="700" font-size="19" transform="translate(754.147 958)">Mechanisms (Ⅱ)</text><text font-family="DengXian,DengXian_MSFontService,sans-serif" font-weight="700" font-size="19" transform="translate(606.817 858)">Robotics in</text><text font-family="DengXian,DengXian_MSFontService,sans-serif" font-weight="700" font-size="19" transform="translate(605.65 881)">Sustainable</text><text font-family="DengXian,DengXian_MSFontService,sans-serif" font-weight="700" font-size="19" transform="translate(591.564 903)">Manufacturing</text><text font-family="DengXian,DengXian_MSFontService,sans-serif" font-weight="700" font-size="19" transform="translate(608.484 926)">for Carbon</text><text font-family="DengXian,DengXian_MSFontService,sans-serif" font-weight="700" font-size="19" transform="translate(611.897 948)">Neutrality</text><text font-family="DengXian,DengXian_MSFontService,sans-serif" font-weight="700" font-size="19" transform="translate(440.23 880)">Intelligent</text><text font-family="DengXian,DengXian_MSFontService,sans-serif" font-weight="700" font-size="19" transform="translate(439.397 903)">Inspection</text><text font-family="DengXian,DengXian_MSFontService,sans-serif" font-weight="700" font-size="19" transform="translate(446.564 925)">Robotics</text></g></svg>