<svg width="858" height="906" xmlns="http://www.w3.org/2000/svg" xmlns:xlink="http://www.w3.org/1999/xlink" overflow="hidden"><defs><clipPath id="clip0"><rect x="226" y="-3" width="858" height="906"/></clipPath><clipPath id="clip1"><rect x="227" y="-82" width="854" height="202"/></clipPath><clipPath id="clip2"><rect x="511" y="-43" width="570" height="202"/></clipPath><clipPath id="clip3"><rect x="227" y="-43" width="285" height="202"/></clipPath><clipPath id="clip4"><rect x="511" y="-4" width="570" height="202"/></clipPath><clipPath id="clip5"><rect x="227" y="-4" width="285" height="202"/></clipPath><clipPath id="clip6"><rect x="511" y="35" width="570" height="202"/></clipPath><clipPath id="clip7"><rect x="227" y="35" width="285" height="202"/></clipPath><clipPath id="clip8"><rect x="511" y="74" width="570" height="202"/></clipPath><clipPath id="clip9"><rect x="227" y="74" width="285" height="202"/></clipPath><clipPath id="clip10"><rect x="511" y="113" width="570" height="202"/></clipPath><clipPath id="clip11"><rect x="227" y="113" width="285" height="202"/></clipPath><clipPath id="clip12"><rect x="511" y="152" width="570" height="202"/></clipPath><clipPath id="clip13"><rect x="227" y="152" width="285" height="202"/></clipPath><clipPath id="clip14"><rect x="867" y="200" width="214" height="315"/></clipPath><clipPath id="clip15"><rect x="440" y="43" width="214" height="628"/></clipPath><clipPath id="clip16"><rect x="227" y="122" width="214" height="471"/></clipPath><clipPath id="clip17"><rect x="867" y="110" width="214" height="785"/></clipPath><clipPath id="clip18"><rect x="440" y="346" width="214" height="314"/></clipPath><clipPath id="clip19"><rect x="511" y="482" width="570" height="202"/></clipPath><clipPath id="clip20"><rect x="227" y="482" width="285" height="202"/></clipPath><clipPath id="clip21"><rect x="511" y="521" width="570" height="202"/></clipPath><clipPath id="clip22"><rect x="227" y="521" width="285" height="202"/></clipPath><clipPath id="clip23"><rect x="227" y="483" width="214" height="472"/></clipPath><clipPath id="clip24"><rect x="867" y="532" width="214" height="628"/></clipPath></defs><g clip-path="url(#clip0)" transform="translate(-226 3)"><path d="M227.314 0 1080.65 0 1080.65 38.9333 227.314 38.9333Z" fill="#4472C4" fill-rule="evenodd"/><path d="M227.314 38.9333 511.758 38.9333 511.758 77.8667 227.314 77.8667Z" fill="#CFD5EA" fill-rule="evenodd"/><path d="M511.758 38.9333 1080.65 38.9333 1080.65 77.8667 511.758 77.8667Z" fill="#CFD5EA" fill-rule="evenodd"/><path d="M227.314 77.8667 511.758 77.8667 511.758 116.8 227.314 116.8Z" fill="#E9EBF5" fill-rule="evenodd"/><path d="M511.758 77.8667 1080.65 77.8667 1080.65 116.8 511.758 116.8Z" fill="#E9EBF5" fill-rule="evenodd"/><path d="M227.314 116.8 511.758 116.8 511.758 155.733 227.314 155.733Z" fill="#CFD5EA" fill-rule="evenodd"/><path d="M511.758 116.8 1080.65 116.8 1080.65 155.733 511.758 155.733Z" fill="#CFD5EA" fill-rule="evenodd"/><path d="M227.314 155.733 511.758 155.733 511.758 194.667 227.314 194.667Z" fill="#E9EBF5" fill-rule="evenodd"/><path d="M511.758 155.733 1080.65 155.733 1080.65 194.667 511.758 194.667Z" fill="#E9EBF5" fill-rule="evenodd"/><path d="M227.314 194.667 511.758 194.667 511.758 233.6 227.314 233.6Z" fill="#CFD5EA" fill-rule="evenodd"/><path d="M511.758 194.667 1080.65 194.667 1080.65 233.6 511.758 233.6Z" fill="#CFD5EA" fill-rule="evenodd"/><path d="M227.314 233.6 511.758 233.6 511.758 272.533 227.314 272.533Z" fill="#E9EBF5" fill-rule="evenodd"/><path d="M511.758 233.6 1080.65 233.6 1080.65 272.533 511.758 272.533Z" fill="#E9EBF5" fill-rule="evenodd"/><path d="M227.314 272.533 440.647 272.533 440.647 307.733 227.314 307.733Z" fill="#CFD5EA" fill-rule="evenodd"/><path d="M440.647 272.533 653.98 272.533 653.98 307.733 440.647 307.733Z" fill="#CFD5EA" fill-rule="evenodd"/><path d="M653.98 272.533 867.314 272.533 867.314 307.733 653.98 307.733Z" fill="#CFD5EA" fill-rule="evenodd"/><path d="M867.314 272.533 1080.65 272.533 1080.65 307.733 867.314 307.733Z" fill="#CFD5EA" fill-rule="evenodd"/><path d="M227.314 307.733 440.647 307.733 440.647 406.933 227.314 406.933Z" fill="#E9EBF5" fill-rule="evenodd"/><path d="M440.647 307.733 653.98 307.733 653.98 406.933 440.647 406.933Z" fill="#E9EBF5" fill-rule="evenodd"/><path d="M653.98 307.733 867.314 307.733 867.314 406.933 653.98 406.933Z" fill="#E9EBF5" fill-rule="evenodd"/><path d="M867.314 307.733 1080.65 307.733 1080.65 406.933 867.314 406.933Z" fill="#E9EBF5" fill-rule="evenodd"/><path d="M227.314 406.933 440.647 406.933 440.647 442.133 227.314 442.133Z" fill="#CFD5EA" fill-rule="evenodd"/><path d="M440.647 406.933 653.98 406.933 653.98 442.133 440.647 442.133Z" fill="#CFD5EA" fill-rule="evenodd"/><path d="M653.98 406.933 867.314 406.933 867.314 442.133 653.98 442.133Z" fill="#CFD5EA" fill-rule="evenodd"/><path d="M867.314 406.933 1080.65 406.933 1080.65 442.133 867.314 442.133Z" fill="#CFD5EA" fill-rule="evenodd"/><path d="M227.314 442.133 440.647 442.133 440.647 563.733 227.314 563.733Z" fill="#E9EBF5" fill-rule="evenodd"/><path d="M440.647 442.133 653.98 442.133 653.98 563.733 440.647 563.733Z" fill="#E9EBF5" fill-rule="evenodd"/><path d="M653.98 442.133 867.314 442.133 867.314 563.733 653.98 563.733Z" fill="#E9EBF5" fill-rule="evenodd"/><path d="M867.314 442.133 1080.65 442.133 1080.65 563.733 867.314 563.733Z" fill="#E9EBF5" fill-rule="evenodd"/><path d="M227.314 563.733 511.758 563.733 511.758 602.667 227.314 602.667Z" fill="#CFD5EA" fill-rule="evenodd"/><path d="M511.758 563.733 1080.65 563.733 1080.65 602.667 511.758 602.667Z" fill="#CFD5EA" fill-rule="evenodd"/><path d="M227.314 602.667 511.758 602.667 511.758 641.6 227.314 641.6Z" fill="#E9EBF5" fill-rule="evenodd"/><path d="M511.758 602.667 1080.65 602.667 1080.65 641.6 511.758 641.6Z" fill="#E9EBF5" fill-rule="evenodd"/><path d="M227.314 641.6 440.647 641.6 440.647 680.533 227.314 680.533Z" fill="#CFD5EA" fill-rule="evenodd"/><path d="M440.647 641.6 653.98 641.6 653.98 680.533 440.647 680.533Z" fill="#CFD5EA" fill-rule="evenodd"/><path d="M653.98 641.6 867.314 641.6 867.314 680.533 653.98 680.533Z" fill="#CFD5EA" fill-rule="evenodd"/><path d="M867.314 641.6 1080.65 641.6 1080.65 680.533 867.314 680.533Z" fill="#CFD5EA" fill-rule="evenodd"/><path d="M227.314 680.533 440.647 680.533 440.647 757.333 227.314 757.333Z" fill="#E9EBF5" fill-rule="evenodd"/><path d="M440.647 680.533 653.98 680.533 653.98 757.333 440.647 757.333Z" fill="#E9EBF5" fill-rule="evenodd"/><path d="M653.98 680.533 867.314 680.533 867.314 757.333 653.98 757.333Z" fill="#E9EBF5" fill-rule="evenodd"/><path d="M867.314 680.533 1080.65 680.533 1080.65 757.333 867.314 757.333Z" fill="#E9EBF5" fill-rule="evenodd"/><path d="M227.314 757.333 440.647 757.333 440.647 796.267 227.314 796.267Z" fill="#CFD5EA" fill-rule="evenodd"/><path d="M440.647 757.333 653.98 757.333 653.98 796.267 440.647 796.267Z" fill="#CFD5EA" fill-rule="evenodd"/><path d="M653.98 757.333 867.314 757.333 867.314 796.267 653.98 796.267Z" fill="#CFD5EA" fill-rule="evenodd"/><path d="M867.314 757.333 1080.65 757.333 1080.65 796.267 867.314 796.267Z" fill="#CFD5EA" fill-rule="evenodd"/><path d="M227.314 796.267 440.647 796.267 440.647 895.467 227.314 895.467Z" fill="#E9EBF5" fill-rule="evenodd"/><path d="M440.647 796.267 653.98 796.267 653.98 895.467 440.647 895.467Z" fill="#E9EBF5" fill-rule="evenodd"/><path d="M653.98 796.267 867.314 796.267 867.314 895.467 653.98 895.467Z" fill="#E9EBF5" fill-rule="evenodd"/><path d="M867.314 796.267 1080.65 796.267 1080.65 895.467 867.314 895.467Z" fill="#E9EBF5" fill-rule="evenodd"/><path d="M440.647 271.867 440.647 564.4" stroke="#000000" stroke-width="1.33333" stroke-linejoin="round" stroke-miterlimit="10" fill="none" fill-rule="evenodd"/><path d="M440.647 640.933 440.647 896.133" stroke="#000000" stroke-width="1.33333" stroke-linejoin="round" stroke-miterlimit="10" fill="none" fill-rule="evenodd"/><path d="M511.758 36.9333 511.758 273.2" stroke="#FFFFFF" stroke-width="1.33333" stroke-linejoin="round" stroke-miterlimit="10" fill="none" fill-rule="evenodd"/><path d="M511.758 563.067 511.758 642.267" stroke="#FFFFFF" stroke-width="1.33333" stroke-linejoin="round" stroke-miterlimit="10" fill="none" fill-rule="evenodd"/><path d="M653.98 271.867 653.98 564.4" stroke="#000000" stroke-width="1.33333" stroke-linejoin="round" stroke-miterlimit="10" fill="none" fill-rule="evenodd"/><path d="M653.98 640.933 653.98 896.133" stroke="#000000" stroke-width="1.33333" stroke-linejoin="round" stroke-miterlimit="10" fill="none" fill-rule="evenodd"/><path d="M867.314 271.867 867.314 564.4" stroke="#000000" stroke-width="1.33333" stroke-linejoin="round" stroke-miterlimit="10" fill="none" fill-rule="evenodd"/><path d="M867.314 640.933 867.314 896.133" stroke="#000000" stroke-width="1.33333" stroke-linejoin="round" stroke-miterlimit="10" fill="none" fill-rule="evenodd"/><path d="M226.647 38.9333 1081.31 38.9333" stroke="#FFFFFF" stroke-width="4" stroke-linejoin="round" stroke-miterlimit="10" fill="none" fill-rule="evenodd"/><path d="M226.647 77.8667 1081.31 77.8667" stroke="#FFFFFF" stroke-width="1.33333" stroke-linejoin="round" stroke-miterlimit="10" fill="none" fill-rule="evenodd"/><path d="M226.647 116.8 1081.31 116.8" stroke="#FFFFFF" stroke-width="1.33333" stroke-linejoin="round" stroke-miterlimit="10" fill="none" fill-rule="evenodd"/><path d="M226.647 155.733 1081.31 155.733" stroke="#FFFFFF" stroke-width="1.33333" stroke-linejoin="round" stroke-miterlimit="10" fill="none" fill-rule="evenodd"/><path d="M226.647 194.667 1081.31 194.667" stroke="#FFFFFF" stroke-width="1.33333" stroke-linejoin="round" stroke-miterlimit="10" fill="none" fill-rule="evenodd"/><path d="M226.647 233.6 1081.31 233.6" stroke="#FFFFFF" stroke-width="1.33333" stroke-linejoin="round" stroke-miterlimit="10" fill="none" fill-rule="evenodd"/><path d="M226.647 272.533 1081.31 272.533" stroke="#000000" stroke-width="1.33333" stroke-linejoin="round" stroke-miterlimit="10" fill="none" fill-rule="evenodd"/><path d="M226.647 307.733 1081.31 307.733" stroke="#000000" stroke-width="1.33333" stroke-linejoin="round" stroke-miterlimit="10" fill="none" fill-rule="evenodd"/><path d="M226.647 406.933 1081.31 406.933" stroke="#000000" stroke-width="1.33333" stroke-linejoin="round" stroke-miterlimit="10" fill="none" fill-rule="evenodd"/><path d="M226.647 442.133 1081.31 442.133" stroke="#000000" stroke-width="1.33333" stroke-linejoin="round" stroke-miterlimit="10" fill="none" fill-rule="evenodd"/><path d="M226.647 563.733 1081.31 563.733" stroke="#000000" stroke-width="1.33333" stroke-linejoin="round" stroke-miterlimit="10" fill="none" fill-rule="evenodd"/><path d="M226.647 602.667 1081.31 602.667" stroke="#FFFFFF" stroke-width="1.33333" stroke-linejoin="round" stroke-miterlimit="10" fill="none" fill-rule="evenodd"/><path d="M226.647 641.6 1081.31 641.6" stroke="#000000" stroke-width="1.33333" stroke-linejoin="round" stroke-miterlimit="10" fill="none" fill-rule="evenodd"/><path d="M226.647 680.533 1081.31 680.533" stroke="#000000" stroke-width="1.33333" stroke-linejoin="round" stroke-miterlimit="10" fill="none" fill-rule="evenodd"/><path d="M226.647 757.333 1081.31 757.333" stroke="#000000" stroke-width="1.33333" stroke-linejoin="round" stroke-miterlimit="10" fill="none" fill-rule="evenodd"/><path d="M226.647 796.267 1081.31 796.267" stroke="#000000" stroke-width="1.33333" stroke-linejoin="round" stroke-miterlimit="10" fill="none" fill-rule="evenodd"/><path d="M227.314-0.666667 227.314 272.533" stroke="#FFFFFF" stroke-width="1.33333" stroke-linejoin="round" stroke-miterlimit="10" fill="none" fill-rule="evenodd"/><path d="M227.314 272.533 227.314 563.733" stroke="#000000" stroke-width="1.33333" stroke-linejoin="round" stroke-miterlimit="10" fill="none" fill-rule="evenodd"/><path d="M227.314 563.733 227.314 641.6" stroke="#FFFFFF" stroke-width="1.33333" stroke-linejoin="round" stroke-miterlimit="10" fill="none" fill-rule="evenodd"/><path d="M227.314 641.6 227.314 896.133" stroke="#000000" stroke-width="1.33333" stroke-linejoin="round" stroke-miterlimit="10" fill="none" fill-rule="evenodd"/><path d="M1080.65-0.666667 1080.65 272.533" stroke="#FFFFFF" stroke-width="1.33333" stroke-linejoin="round" stroke-miterlimit="10" fill="none" fill-rule="evenodd"/><path d="M1080.65 272.533 1080.65 563.733" stroke="#000000" stroke-width="1.33333" stroke-linejoin="round" stroke-miterlimit="10" fill="none" fill-rule="evenodd"/><path d="M1080.65 563.733 1080.65 641.6" stroke="#FFFFFF" stroke-width="1.33333" stroke-linejoin="round" stroke-miterlimit="10" fill="none" fill-rule="evenodd"/><path d="M1080.65 641.6 1080.65 896.133" stroke="#000000" stroke-width="1.33333" stroke-linejoin="round" stroke-miterlimit="10" fill="none" fill-rule="evenodd"/><path d="M226.647 0 1081.31 0" stroke="#FFFFFF" stroke-width="1.33333" stroke-linejoin="round" stroke-miterlimit="10" fill="none" fill-rule="evenodd"/><path d="M226.647 895.467 1081.31 895.467" stroke="#000000" stroke-width="1.33333" stroke-linejoin="round" stroke-miterlimit="10" fill="none" fill-rule="evenodd"/><g clip-path="url(#clip1)"><text fill="#FFFFFF" font-family="DengXian,DengXian_MSFontService,sans-serif" font-weight="700" font-size="24" transform="translate(236.914 27)">Day3/</text></g><text fill="#FFFFFF" font-family="DengXian,DengXian_MSFontService,sans-serif" font-weight="700" font-size="24" transform="translate(302.08 27)">July</text><text fill="#FFFFFF" font-family="DengXian,DengXian_MSFontService,sans-serif" font-weight="700" font-size="24" transform="translate(350.747 27)">7,</text><text fill="#FFFFFF" font-family="DengXian,DengXian_MSFontService,sans-serif" font-weight="700" font-size="24" transform="translate(376.58 27)">2023</text><g clip-path="url(#clip2)"><text font-family="DengXian,DengXian_MSFontService,sans-serif" font-weight="700" font-size="24" transform="translate(521.358 66)">Plenary Speech</text></g><g clip-path="url(#clip3)"><text font-family="DengXian,DengXian_MSFontService,sans-serif" font-weight="700" font-size="24" transform="translate(236.914 66)">08:30</text></g><text font-family="DengXian,DengXian_MSFontService,sans-serif" font-weight="700" font-size="24" transform="translate(296.08 66)">-</text><text font-family="DengXian,DengXian_MSFontService,sans-serif" font-weight="700" font-size="24" transform="translate(308.08 66)">10:10</text><g clip-path="url(#clip4)"><text font-family="DengXian,DengXian_MSFontService,sans-serif" font-weight="700" font-size="24" transform="translate(521.358 105)">Photograph &amp; Coffee &amp; Tea Break</text></g><g clip-path="url(#clip5)"><text font-family="DengXian,DengXian_MSFontService,sans-serif" font-weight="700" font-size="24" transform="translate(236.914 105)">10:10</text></g><text font-family="DengXian,DengXian_MSFontService,sans-serif" font-weight="700" font-size="24" transform="translate(296.08 105)">-</text><text font-family="DengXian,DengXian_MSFontService,sans-serif" font-weight="700" font-size="24" transform="translate(308.08 105)">10:35</text><g clip-path="url(#clip6)"><text font-family="DengXian,DengXian_MSFontService,sans-serif" font-weight="700" font-size="24" transform="translate(521.358 144)">Plenary Speech</text></g><g clip-path="url(#clip7)"><text font-family="DengXian,DengXian_MSFontService,sans-serif" font-weight="700" font-size="24" transform="translate(236.914 144)">10:35</text></g><text font-family="DengXian,DengXian_MSFontService,sans-serif" font-weight="700" font-size="24" transform="translate(296.08 144)">-</text><text font-family="DengXian,DengXian_MSFontService,sans-serif" font-weight="700" font-size="24" transform="translate(308.08 144)">11:15</text><g clip-path="url(#clip8)"><text font-family="DengXian,DengXian_MSFontService,sans-serif" font-weight="700" font-size="24" transform="translate(521.358 183)">Keynote Speech</text></g><g clip-path="url(#clip9)"><text font-family="DengXian,DengXian_MSFontService,sans-serif" font-weight="700" font-size="24" transform="translate(236.914 183)">11:15</text></g><text font-family="DengXian,DengXian_MSFontService,sans-serif" font-weight="700" font-size="24" transform="translate(296.08 183)">-</text><text font-family="DengXian,DengXian_MSFontService,sans-serif" font-weight="700" font-size="24" transform="translate(308.08 183)">12:15</text><g clip-path="url(#clip10)"><text font-family="DengXian,DengXian_MSFontService,sans-serif" font-weight="700" font-size="24" transform="translate(521.358 221)">Lunch &amp; Break</text></g><g clip-path="url(#clip11)"><text font-family="DengXian,DengXian_MSFontService,sans-serif" font-weight="700" font-size="24" transform="translate(236.914 221)">12:15</text></g><text font-family="DengXian,DengXian_MSFontService,sans-serif" font-weight="700" font-size="24" transform="translate(296.08 221)">-</text><text font-family="DengXian,DengXian_MSFontService,sans-serif" font-weight="700" font-size="24" transform="translate(308.08 221)">14:00</text><g clip-path="url(#clip12)"><text font-family="DengXian,DengXian_MSFontService,sans-serif" font-weight="700" font-size="24" transform="translate(521.358 260)">Session</text></g><text font-family="DengXian,DengXian_MSFontService,sans-serif" font-weight="700" font-size="24" transform="translate(609.191 260)">Ⅲ</text><text font-family="DengXian,DengXian_MSFontService,sans-serif" font-weight="700" font-size="24" transform="translate(639.858 260)">(</text><text font-family="DengXian,DengXian_MSFontService,sans-serif" font-weight="700" font-size="24" transform="translate(647.858 260)">S17</text><text font-family="DengXian,DengXian_MSFontService,sans-serif" font-weight="700" font-size="24" transform="translate(694.191 260)">–</text><text font-family="DengXian,DengXian_MSFontService,sans-serif" font-weight="700" font-size="24" transform="translate(712.858 260)">S24)</text><g clip-path="url(#clip13)"><text font-family="DengXian,DengXian_MSFontService,sans-serif" font-weight="700" font-size="24" transform="translate(236.914 260)">14:00</text></g><text font-family="DengXian,DengXian_MSFontService,sans-serif" font-weight="700" font-size="24" transform="translate(296.08 260)">-</text><text font-family="DengXian,DengXian_MSFontService,sans-serif" font-weight="700" font-size="24" transform="translate(308.08 260)">15:30</text><text font-family="DengXian,DengXian_MSFontService,sans-serif" font-weight="700" font-size="21" transform="translate(956.314 297)">S20</text><text font-family="DengXian,DengXian_MSFontService,sans-serif" font-weight="700" font-size="21" transform="translate(742.98 297)">S19</text><text font-family="DengXian,DengXian_MSFontService,sans-serif" font-weight="700" font-size="21" transform="translate(529.647 297)">S18</text><text font-family="DengXian,DengXian_MSFontService,sans-serif" font-weight="700" font-size="21" transform="translate(316.314 297)">S17</text><g clip-path="url(#clip14)"><text font-family="DengXian,DengXian_MSFontService,sans-serif" font-weight="700" font-size="19" transform="translate(880.897 352)">Design and Control of</text></g><text font-family="DengXian,DengXian_MSFontService,sans-serif" font-weight="700" font-size="19" transform="translate(910.15 375)">Legged Robots</text><text font-family="DengXian,DengXian_MSFontService,sans-serif" font-weight="700" font-size="19" transform="translate(683.647 330)">Knowledge</text><text font-family="DengXian,DengXian_MSFontService,sans-serif" font-weight="700" font-size="19" transform="translate(778.314 330)">-</text><text font-family="DengXian,DengXian_MSFontService,sans-serif" font-weight="700" font-size="19" transform="translate(787.647 330)">based</text><text font-family="DengXian,DengXian_MSFontService,sans-serif" font-weight="700" font-size="19" transform="translate(691.56 353)">Robot Decision</text><text font-family="DengXian,DengXian_MSFontService,sans-serif" font-weight="700" font-size="19" transform="translate(820.394 353)">-</text><text font-family="DengXian,DengXian_MSFontService,sans-serif" font-weight="700" font-size="19" transform="translate(710.814 375)">making and</text><text font-family="DengXian,DengXian_MSFontService,sans-serif" font-weight="700" font-size="19" transform="translate(704.314 398)">Manipulation</text><g clip-path="url(#clip15)"><text font-family="DengXian,DengXian_MSFontService,sans-serif" font-weight="700" font-size="19" transform="translate(451.564 330)">Advanced Sensing and</text></g><text font-family="DengXian,DengXian_MSFontService,sans-serif" font-weight="700" font-size="19" transform="translate(463.817 353)">Control Technology</text><text font-family="DengXian,DengXian_MSFontService,sans-serif" font-weight="700" font-size="19" transform="translate(473.564 375)">for Human</text><text font-family="DengXian,DengXian_MSFontService,sans-serif" font-weight="700" font-size="19" transform="translate(564.73 375)">-</text><text font-family="DengXian,DengXian_MSFontService,sans-serif" font-weight="700" font-size="19" transform="translate(574.064 375)">robot</text><text font-family="DengXian,DengXian_MSFontService,sans-serif" font-weight="700" font-size="19" transform="translate(501.397 398)">Interaction</text><text font-family="DengXian,DengXian_MSFontService,sans-serif" font-weight="700" font-size="19" transform="translate(271.064 341)">Robotic Tactile</text><g clip-path="url(#clip16)"><text font-family="DengXian,DengXian_MSFontService,sans-serif" font-weight="700" font-size="19" transform="translate(240.23 364)">Sensation, Perception,</text></g><text font-family="DengXian,DengXian_MSFontService,sans-serif" font-weight="700" font-size="19" transform="translate(263.317 386)">and Applications</text><text font-family="DengXian,DengXian_MSFontService,sans-serif" font-weight="700" font-size="21" transform="translate(956.314 432)">S24</text><text font-family="DengXian,DengXian_MSFontService,sans-serif" font-weight="700" font-size="21" transform="translate(742.98 432)">S23</text><text font-family="DengXian,DengXian_MSFontService,sans-serif" font-weight="700" font-size="21" transform="translate(529.647 432)">S22</text><text font-family="DengXian,DengXian_MSFontService,sans-serif" font-weight="700" font-size="21" transform="translate(316.314 432)">S21</text><text font-family="DengXian,DengXian_MSFontService,sans-serif" font-weight="700" font-size="19" transform="translate(888.144 464)">Technical Outline of</text><g clip-path="url(#clip17)"><text font-family="DengXian,DengXian_MSFontService,sans-serif" font-weight="700" font-size="19" transform="translate(875.73 487)">the Session and Topics:</text></g><text font-family="DengXian,DengXian_MSFontService,sans-serif" font-weight="700" font-size="19" transform="translate(896.897 509)">Visual and Visual</text><text font-family="DengXian,DengXian_MSFontService,sans-serif" font-weight="700" font-size="19" transform="translate(1039.23 509)">-</text><text font-family="DengXian,DengXian_MSFontService,sans-serif" font-weight="700" font-size="19" transform="translate(883.977 532)">tactile Perception for</text><text font-family="DengXian,DengXian_MSFontService,sans-serif" font-weight="700" font-size="19" transform="translate(935.977 554)">Robotics</text><text font-family="DengXian,DengXian_MSFontService,sans-serif" font-weight="700" font-size="19" transform="translate(683.48 475)">Clinically Oriented</text><text font-family="DengXian,DengXian_MSFontService,sans-serif" font-weight="700" font-size="19" transform="translate(685.814 498)">Design in Robotic</text><text font-family="DengXian,DengXian_MSFontService,sans-serif" font-weight="700" font-size="19" transform="translate(709.56 520)">Surgery and</text><text font-family="DengXian,DengXian_MSFontService,sans-serif" font-weight="700" font-size="19" transform="translate(701.814 543)">Rehabilitation</text><g clip-path="url(#clip18)"><text font-family="DengXian,DengXian_MSFontService,sans-serif" font-weight="700" font-size="19" transform="translate(455.984 498)">Robotic Machining of</text></g><text font-family="DengXian,DengXian_MSFontService,sans-serif" font-weight="700" font-size="19" transform="translate(453.397 521)">Complex Components</text><text font-family="DengXian,DengXian_MSFontService,sans-serif" font-weight="700" font-size="19" transform="translate(246.397 486)">Robots in Tunnelling</text><text font-family="DengXian,DengXian_MSFontService,sans-serif" font-weight="700" font-size="19" transform="translate(258.564 509)">and Underground</text><text font-family="DengXian,DengXian_MSFontService,sans-serif" font-weight="700" font-size="19" transform="translate(309.064 531)">Space</text><g clip-path="url(#clip19)"><text font-family="DengXian,DengXian_MSFontService,sans-serif" font-weight="700" font-size="24" transform="translate(521.358 591)">Coffee &amp; Tea Break</text></g><g clip-path="url(#clip20)"><text font-family="DengXian,DengXian_MSFontService,sans-serif" font-weight="700" font-size="24" transform="translate(236.914 591)">15:30</text></g><text font-family="DengXian,DengXian_MSFontService,sans-serif" font-weight="700" font-size="24" transform="translate(296.08 591)">-</text><text font-family="DengXian,DengXian_MSFontService,sans-serif" font-weight="700" font-size="24" transform="translate(308.08 591)">16:00</text><g clip-path="url(#clip21)"><text font-family="DengXian,DengXian_MSFontService,sans-serif" font-weight="700" font-size="24" transform="translate(521.358 629)">Session</text></g><text font-family="DengXian,DengXian_MSFontService,sans-serif" font-weight="700" font-size="24" transform="translate(609.191 629)">Ⅳ</text><text font-family="DengXian,DengXian_MSFontService,sans-serif" font-weight="700" font-size="24" transform="translate(639.858 629)">(</text><text font-family="DengXian,DengXian_MSFontService,sans-serif" font-weight="700" font-size="24" transform="translate(647.858 629)">S25</text><text font-family="DengXian,DengXian_MSFontService,sans-serif" font-weight="700" font-size="24" transform="translate(694.191 629)">–</text><text font-family="DengXian,DengXian_MSFontService,sans-serif" font-weight="700" font-size="24" transform="translate(712.858 629)">S32)</text><g clip-path="url(#clip22)"><text font-family="DengXian,DengXian_MSFontService,sans-serif" font-weight="700" font-size="24" transform="translate(236.914 629)">16:00</text></g><text font-family="DengXian,DengXian_MSFontService,sans-serif" font-weight="700" font-size="24" transform="translate(296.08 629)">-</text><text font-family="DengXian,DengXian_MSFontService,sans-serif" font-weight="700" font-size="24" transform="translate(308.08 629)">17:30</text><text font-family="DengXian,DengXian_MSFontService,sans-serif" font-weight="700" font-size="21" transform="translate(956.314 666)">S28</text><text font-family="DengXian,DengXian_MSFontService,sans-serif" font-weight="700" font-size="21" transform="translate(742.98 666)">S27</text><text font-family="DengXian,DengXian_MSFontService,sans-serif" font-weight="700" font-size="21" transform="translate(529.647 666)">S26</text><text font-family="DengXian,DengXian_MSFontService,sans-serif" font-weight="700" font-size="21" transform="translate(316.314 666)">S25</text><text font-family="DengXian,DengXian_MSFontService,sans-serif" font-weight="700" font-size="19" transform="translate(921.897 702)">Physical and</text><text font-family="DengXian,DengXian_MSFontService,sans-serif" font-weight="700" font-size="19" transform="translate(881.73 725)">Neurological Human</text><text font-family="DengXian,DengXian_MSFontService,sans-serif" font-weight="700" font-size="19" transform="translate(1056.9 725)">-</text><text font-family="DengXian,DengXian_MSFontService,sans-serif" font-weight="700" font-size="19" transform="translate(899.564 747)">Robot Interaction</text><text font-family="DengXian,DengXian_MSFontService,sans-serif" font-weight="700" font-size="19" transform="translate(673.23 702)">Multi</text><text font-family="DengXian,DengXian_MSFontService,sans-serif" font-weight="700" font-size="19" transform="translate(717.73 702)">-</text><text font-family="DengXian,DengXian_MSFontService,sans-serif" font-weight="700" font-size="19" transform="translate(727.064 702)">robot Systems</text><text font-family="DengXian,DengXian_MSFontService,sans-serif" font-weight="700" font-size="19" transform="translate(699.15 725)">for Real World</text><text font-family="DengXian,DengXian_MSFontService,sans-serif" font-weight="700" font-size="19" transform="translate(708.397 747)">Applications</text><text font-family="DengXian,DengXian_MSFontService,sans-serif" font-weight="700" font-size="19" transform="translate(459.814 714)">Marine Robotics and</text><text font-family="DengXian,DengXian_MSFontService,sans-serif" font-weight="700" font-size="19" transform="translate(495.06 737)">Applications</text><g clip-path="url(#clip23)"><text font-family="DengXian,DengXian_MSFontService,sans-serif" font-weight="700" font-size="19" transform="translate(235.397 702)">Perception, Interaction,</text></g><text font-family="DengXian,DengXian_MSFontService,sans-serif" font-weight="700" font-size="19" transform="translate(270.977 725)">and Control of</text><text font-family="DengXian,DengXian_MSFontService,sans-serif" font-weight="700" font-size="19" transform="translate(259.81 747)">Wearable Robots</text><text font-family="DengXian,DengXian_MSFontService,sans-serif" font-weight="700" font-size="21" transform="translate(956.314 782)">S32</text><text font-family="DengXian,DengXian_MSFontService,sans-serif" font-weight="700" font-size="21" transform="translate(742.98 782)">S31</text><text font-family="DengXian,DengXian_MSFontService,sans-serif" font-weight="700" font-size="21" transform="translate(529.647 782)">S30</text><text font-family="DengXian,DengXian_MSFontService,sans-serif" font-weight="700" font-size="21" transform="translate(316.314 782)">S29</text><g clip-path="url(#clip24)"><text font-family="DengXian,DengXian_MSFontService,sans-serif" font-weight="700" font-size="19" transform="translate(879.647 818)">Innovative Design and</text></g><text font-family="DengXian,DengXian_MSFontService,sans-serif" font-weight="700" font-size="19" transform="translate(919.98 841)">Performance</text><text font-family="DengXian,DengXian_MSFontService,sans-serif" font-weight="700" font-size="19" transform="translate(890.227 863)">Evaluation of Robot</text><text font-family="DengXian,DengXian_MSFontService,sans-serif" font-weight="700" font-size="19" transform="translate(921.56 886)">Mechanisms</text><text font-family="DengXian,DengXian_MSFontService,sans-serif" font-weight="700" font-size="19" transform="translate(713.484 818)">Robotics in</text><text font-family="DengXian,DengXian_MSFontService,sans-serif" font-weight="700" font-size="19" transform="translate(712.317 841)">Sustainable</text><text font-family="DengXian,DengXian_MSFontService,sans-serif" font-weight="700" font-size="19" transform="translate(683.397 863)">Manufacturing for</text><text font-family="DengXian,DengXian_MSFontService,sans-serif" font-weight="700" font-size="19" transform="translate(685.317 886)">Carbon Neutrality</text><text font-family="DengXian,DengXian_MSFontService,sans-serif" font-weight="700" font-size="19" transform="translate(457.73 840)">Intelligent Inspection</text><text font-family="DengXian,DengXian_MSFontService,sans-serif" font-weight="700" font-size="19" transform="translate(510.564 863)">Robotics</text><text font-family="DengXian,DengXian_MSFontService,sans-serif" font-weight="700" font-size="19" transform="translate(258.56 829)">Advanced Motion</text><text font-family="DengXian,DengXian_MSFontService,sans-serif" font-weight="700" font-size="19" transform="translate(243.814 852)">Control Technologies</text><text font-family="DengXian,DengXian_MSFontService,sans-serif" font-weight="700" font-size="19" transform="translate(256.98 874)">for Mobile Robots</text></g></svg>